SplineFontDB: 3.0
FontName: Neuton-SC-Extrabold
FullName: Neuton SC Extrabold
FamilyName: Neuton SC
Weight: Bold
Copyright: Copyright (c) 2010, 2011 Brian M Zick (http://21326.info/), \nwith Reserved Font Name 'Neuton SC'.\n\nThis Font Software is licensed under the SIL Open Font License, Version 1.1.\nThis license is available with a FAQ at: http://scripts.sil.org/OFL\n   WITHOUT WARRANTIES OR CONDITIONS OF ANY KIND, either express or implied.\n   See the License for the specific language governing permissions and\n   limitations under the License.
UComments: "2011-6-6: Created." 
Version: 1.46
ItalicAngle: 0
UnderlinePosition: -361
UnderlineWidth: 0
Ascent: 1638
Descent: 410
LayerCount: 2
Layer: 0 1 "Back"  1
Layer: 1 1 "Fore"  0
XUID: [1021 467 2011608612 15596835]
FSType: 1
OS2Version: 1
OS2_WeightWidthSlopeOnly: 0
OS2_UseTypoMetrics: 0
CreationTime: 1307367768
ModificationTime: 1333038476
PfmFamily: 17
TTFWeight: 800
TTFWidth: 5
LineGap: 0
VLineGap: 0
Panose: 2 0 9 3 0 0 0 0 0 0
OS2TypoAscent: 2106
OS2TypoAOffset: 0
OS2TypoDescent: -485
OS2TypoDOffset: 0
OS2TypoLinegap: 0
OS2WinAscent: 2106
OS2WinAOffset: 0
OS2WinDescent: 485
OS2WinDOffset: 0
HheadAscent: 2106
HheadAOffset: 0
HheadDescent: -485
HheadDOffset: 0
OS2SubXSize: 1095
OS2SubYSize: 1179
OS2SubXOff: 0
OS2SubYOff: 235
OS2SupXSize: 1095
OS2SupYSize: 1179
OS2SupXOff: 0
OS2SupYOff: 809
OS2StrikeYSize: 84
OS2StrikeYPos: 4436
OS2Vendor: 'PfEd'
Lookup: 3 0 0 "'salt' Stylistic Alternates"  {"Alternate Substitution in Latin lookup 0-1"  } ['salt' ('DFLT' <'dflt' > 'latn' <'dflt' > ) ]
MarkAttachClasses: 1
DEI: 91125
TtTable: prep
PUSHW_1
 511
SCANCTRL
PUSHB_1
 4
SCANTYPE
EndTTInstrs

StartChar: A
Encoding: 65 65 0
Width: 1502
VWidth: 0
Flags: MW
LayerCount: 2
Back
SplineSet
0 0 m 5,0,-1
 19 138 l 1,1,-1
 180 241 l 1,2,-1
 618 1205 l 1,3,-1
 965 1270 l 1,4,-1
 1305 238 l 1,5,-1
 1453 145 l 1,6,-1
 1441 -2 l 1,7,-1
 716 -2 l 1,8,-1
 732 136 l 1,9,-1
 898 240 l 1,10,-1
 869 341 l 1,11,-1
 471 341 l 1,12,-1
 431 240 l 1,13,-1
 620 148 l 1,14,-1
 605 0 l 1,15,-1
 0 0 l 5,0,-1
546 534 m 5,16,-1
 815 534 l 1,17,-1
 703 933 l 1,18,-1
 546 534 l 5,16,-1
EndSplineSet
Fore
SplineSet
562 561 m 1,0,-1
 813 561 l 1,1,-1
 686 933 l 1,2,-1
 562 561 l 1,0,-1
34 0 m 1,3,-1
 53 138 l 1,4,-1
 204 241 l 1,5,-1
 592 1205 l 1,6,-1
 939 1270 l 1,7,-1
 1329 238 l 1,8,-1
 1467 145 l 1,9,-1
 1455 -2 l 1,10,-1
 740 -2 l 1,11,-1
 756 136 l 1,12,-1
 922 240 l 1,13,-1
 884 352 l 1,14,-1
 492 352 l 1,15,-1
 455 240 l 1,16,-1
 644 148 l 1,17,-1
 629 0 l 1,18,-1
 34 0 l 1,3,-1
EndSplineSet
Colour: ffffff
EndChar

StartChar: AE
Encoding: 198 198 1
Width: 1983
VWidth: 0
Flags: MW
LayerCount: 2
Back
SplineSet
691 1100 m 1,0,-1
 710 1244 l 1,1,-1
 1883 1244 l 1,2,-1
 1853 826 l 1,3,-1
 1682 852 l 1,4,-1
 1599 1072 l 1,5,-1
 1254 1072 l 1,6,-1
 1254 712 l 1,7,-1
 1504 732.286 l 1,8,-1
 1549 735.938 l 1,9,-1
 1673 746 l 1,10,-1
 1640 470 l 1,11,-1
 1507 494.119 l 1,12,-1
 1462 502.28 l 1,13,-1
 1254 540 l 1,14,-1
 1254 210 l 1,15,-1
 1617 170 l 1,16,-1
 1763 428 l 1,17,-1
 1928 411 l 1,18,-1
 1898 0 l 1,19,-1
 707 0 l 1,20,-1
 717 138 l 1,21,-1
 881 217 l 1,22,-1
 881 1030 l 1,23,-1
 691 1100 l 1,0,-1
EndSplineSet
Fore
SplineSet
701 615 m 1,0,-1
 987 615 l 1,1,-1
 975 1008 l 1,2,-1
 701 615 l 1,0,-1
45 -2 m 1,3,-1
 65 162 l 1,4,-1
 199 237 l 1,5,-1
 760 1020 l 1,6,-1
 580 1094 l 1,7,-1
 601 1244 l 1,8,-1
 1852 1244 l 1,9,-1
 1822 826 l 1,10,-1
 1651 852 l 1,11,-1
 1568 1072 l 1,12,-1
 1320 1072 l 1,13,-1
 1337 708 l 1,14,-1
 1469 724 l 1,15,-1
 1497 727 l 1,16,-1
 1675 749 l 1,17,-1
 1643 507 l 1,18,-1
 1477 523 l 1,19,-1
 1453 526 l 1,20,-1
 1344 536 l 1,21,-1
 1360 198 l 1,22,-1
 1626 180 l 1,23,-1
 1772 428 l 1,24,-1
 1937 411 l 1,25,-1
 1907 0 l 1,26,-1
 836 0 l 1,27,-1
 849 138 l 1,28,-1
 1012 217 l 1,29,-1
 999 443 l 1,30,-1
 597 443 l 1,31,-1
 465 243 l 1,32,-1
 646 150 l 1,33,-1
 629 -2 l 1,34,-1
 45 -2 l 1,3,-1
EndSplineSet
Colour: ffffff
EndChar

StartChar: Aacute
Encoding: 193 193 2
Width: 1502
VWidth: 0
Flags: MW
LayerCount: 2
Fore
SplineSet
633 1337 m 1,0,-1
 778 1642 l 1,1,-1
 1128 1632 l 1,2,-1
 867 1311 l 1,3,-1
 633 1337 l 1,0,-1
562 561 m 1,4,-1
 813 561 l 1,5,-1
 686 933 l 1,6,-1
 562 561 l 1,4,-1
34 0 m 1,7,-1
 53 138 l 1,8,-1
 204 241 l 1,9,-1
 592 1205 l 1,10,-1
 939 1270 l 1,11,-1
 1329 238 l 1,12,-1
 1467 145 l 1,13,-1
 1455 -2 l 1,14,-1
 740 -2 l 1,15,-1
 756 136 l 1,16,-1
 922 240 l 1,17,-1
 884 352 l 1,18,-1
 492 352 l 1,19,-1
 455 240 l 1,20,-1
 644 148 l 1,21,-1
 629 0 l 1,22,-1
 34 0 l 1,7,-1
EndSplineSet
Colour: ffffff
EndChar

StartChar: Acircumflex
Encoding: 194 194 3
Width: 1502
VWidth: 0
Flags: MW
LayerCount: 2
Fore
SplineSet
464 1318 m 1,0,-1
 617 1573 l 1,1,-1
 942 1573 l 1,2,-1
 1096 1318 l 1,3,-1
 843 1309 l 1,4,-1
 779 1430 l 1,5,-1
 765 1430 l 1,6,-1
 697 1308 l 1,7,-1
 464 1318 l 1,0,-1
562 561 m 1,8,-1
 813 561 l 1,9,-1
 686 933 l 1,10,-1
 562 561 l 1,8,-1
34 0 m 1,11,-1
 53 138 l 1,12,-1
 204 241 l 1,13,-1
 592 1205 l 1,14,-1
 939 1270 l 1,15,-1
 1329 238 l 1,16,-1
 1467 145 l 1,17,-1
 1455 -2 l 1,18,-1
 740 -2 l 1,19,-1
 756 136 l 1,20,-1
 922 240 l 1,21,-1
 884 352 l 1,22,-1
 492 352 l 1,23,-1
 455 240 l 1,24,-1
 644 148 l 1,25,-1
 629 0 l 1,26,-1
 34 0 l 1,11,-1
EndSplineSet
Colour: ffffff
EndChar

StartChar: Adieresis
Encoding: 196 196 4
Width: 1502
VWidth: 0
Flags: MW
LayerCount: 2
Fore
SplineSet
480 1416 m 0,0,1
 480 1435 480 1435 486.5 1452.5 c 128,-1,2
 493 1470 493 1470 508 1486.5 c 128,-1,3
 523 1503 523 1503 551 1513 c 128,-1,4
 579 1523 579 1523 618 1523 c 0,5,6
 659 1523 659 1523 688 1513 c 128,-1,7
 717 1503 717 1503 732.5 1487 c 128,-1,8
 748 1471 748 1471 754.5 1454 c 128,-1,9
 761 1437 761 1437 761 1418 c 0,10,11
 761 1309 761 1309 617 1309 c 0,12,13
 480 1309 480 1309 480 1416 c 0,0,1
789 1416 m 0,14,15
 789 1435 789 1435 795.5 1452.5 c 128,-1,16
 802 1470 802 1470 817 1486.5 c 128,-1,17
 832 1503 832 1503 860 1513 c 128,-1,18
 888 1523 888 1523 927 1523 c 0,19,20
 968 1523 968 1523 997 1513 c 128,-1,21
 1026 1503 1026 1503 1041.5 1487 c 128,-1,22
 1057 1471 1057 1471 1063.5 1454 c 128,-1,23
 1070 1437 1070 1437 1070 1418 c 0,24,25
 1070 1309 1070 1309 926 1309 c 0,26,27
 789 1309 789 1309 789 1416 c 0,14,15
562 561 m 1,28,-1
 813 561 l 1,29,-1
 686 933 l 1,30,-1
 562 561 l 1,28,-1
34 0 m 1,31,-1
 53 138 l 1,32,-1
 204 241 l 1,33,-1
 592 1205 l 1,34,-1
 939 1270 l 1,35,-1
 1329 238 l 1,36,-1
 1467 145 l 1,37,-1
 1455 -2 l 1,38,-1
 740 -2 l 1,39,-1
 756 136 l 1,40,-1
 922 240 l 1,41,-1
 884 352 l 1,42,-1
 492 352 l 1,43,-1
 455 240 l 1,44,-1
 644 148 l 1,45,-1
 629 0 l 1,46,-1
 34 0 l 1,31,-1
EndSplineSet
Colour: ffffff
EndChar

StartChar: Agrave
Encoding: 192 192 5
Width: 1502
VWidth: 0
Flags: MW
LayerCount: 2
Fore
SplineSet
383 1629 m 1,0,-1
 733 1639 l 1,1,-1
 878 1334 l 1,2,-1
 644 1308 l 1,3,-1
 383 1629 l 1,0,-1
562 561 m 1,4,-1
 813 561 l 1,5,-1
 686 933 l 1,6,-1
 562 561 l 1,4,-1
34 0 m 1,7,-1
 53 138 l 1,8,-1
 204 241 l 1,9,-1
 592 1205 l 1,10,-1
 939 1270 l 1,11,-1
 1329 238 l 1,12,-1
 1467 145 l 1,13,-1
 1455 -2 l 1,14,-1
 740 -2 l 1,15,-1
 756 136 l 1,16,-1
 922 240 l 1,17,-1
 884 352 l 1,18,-1
 492 352 l 1,19,-1
 455 240 l 1,20,-1
 644 148 l 1,21,-1
 629 0 l 1,22,-1
 34 0 l 1,7,-1
EndSplineSet
Colour: ffffff
EndChar

StartChar: Aring
Encoding: 197 197 6
Width: 1502
VWidth: 0
Flags: MW
LayerCount: 2
Fore
SplineSet
697 1474 m 0,0,1
 697 1417 697 1417 765 1417 c 0,2,3
 791 1417 791 1417 811.5 1432 c 128,-1,4
 832 1447 832 1447 832 1474 c 128,-1,5
 832 1501 832 1501 810 1517 c 128,-1,6
 788 1533 788 1533 759 1533 c 0,7,8
 735 1533 735 1533 716 1516 c 128,-1,9
 697 1499 697 1499 697 1474 c 0,0,1
486 1469 m 0,10,11
 486 1545 486 1545 556.5 1593.5 c 128,-1,12
 627 1642 627 1642 770 1642 c 0,13,14
 1055 1642 1055 1642 1055 1478 c 0,15,16
 1055 1406 1055 1406 982.5 1356.5 c 128,-1,17
 910 1307 910 1307 762 1307 c 0,18,19
 615 1307 615 1307 550.5 1349 c 128,-1,20
 486 1391 486 1391 486 1469 c 0,10,11
562 561 m 1,21,-1
 813 561 l 1,22,-1
 686 933 l 1,23,-1
 562 561 l 1,21,-1
34 0 m 1,24,-1
 53 138 l 1,25,-1
 204 241 l 1,26,-1
 592 1205 l 1,27,-1
 939 1270 l 1,28,-1
 1329 238 l 1,29,-1
 1467 145 l 1,30,-1
 1455 -2 l 1,31,-1
 740 -2 l 1,32,-1
 756 136 l 1,33,-1
 922 240 l 1,34,-1
 884 352 l 1,35,-1
 492 352 l 1,36,-1
 455 240 l 1,37,-1
 644 148 l 1,38,-1
 629 0 l 1,39,-1
 34 0 l 1,24,-1
EndSplineSet
Colour: ffffff
EndChar

StartChar: Atilde
Encoding: 195 195 7
Width: 1502
VWidth: 0
Flags: MW
LayerCount: 2
Fore
SplineSet
464 1319 m 1,0,1
 466 1399 466 1399 482.5 1455.5 c 128,-1,2
 499 1512 499 1512 526 1543 c 128,-1,3
 553 1574 553 1574 592 1586.5 c 128,-1,4
 631 1599 631 1599 674 1595.5 c 128,-1,5
 717 1592 717 1592 769 1576 c 2,6,-1
 839 1554 l 2,7,8
 906 1532 906 1532 941 1542.5 c 128,-1,9
 976 1553 976 1553 990 1604 c 1,10,-1
 1105 1593 l 1,11,12
 1095 1407 1095 1407 1022.5 1349 c 128,-1,13
 950 1291 950 1291 811 1334 c 2,14,-1
 745 1354 l 1,15,16
 658 1378 658 1378 628.5 1368 c 128,-1,17
 599 1358 599 1358 581 1308 c 1,18,-1
 464 1319 l 1,0,1
562 561 m 1,19,-1
 813 561 l 1,20,-1
 686 933 l 1,21,-1
 562 561 l 1,19,-1
34 0 m 1,22,-1
 53 138 l 1,23,-1
 204 241 l 1,24,-1
 592 1205 l 1,25,-1
 939 1270 l 1,26,-1
 1329 238 l 1,27,-1
 1467 145 l 1,28,-1
 1455 -2 l 1,29,-1
 740 -2 l 1,30,-1
 756 136 l 1,31,-1
 922 240 l 1,32,-1
 884 352 l 1,33,-1
 492 352 l 1,34,-1
 455 240 l 1,35,-1
 644 148 l 1,36,-1
 629 0 l 1,37,-1
 34 0 l 1,22,-1
EndSplineSet
Colour: ffffff
EndChar

StartChar: B
Encoding: 66 66 8
Width: 1311
VWidth: 0
Flags: MW
LayerCount: 2
Fore
SplineSet
586 698 m 1,0,-1
 770 698 l 1,1,2
 797 731 797 731 816 790 c 128,-1,3
 835 849 835 849 835 907 c 0,4,5
 835 983 835 983 791 1031.5 c 128,-1,6
 747 1080 747 1080 650 1080 c 0,7,8
 614 1080 614 1080 586 1075 c 1,9,-1
 586 698 l 1,0,-1
586 186 m 1,10,-1
 728 186 l 2,11,12
 811 186 811 186 854 234.5 c 128,-1,13
 897 283 897 283 897 378 c 0,14,15
 897 456 897 456 837.5 506.5 c 128,-1,16
 778 557 778 557 672 557 c 2,17,-1
 586 557 l 1,18,-1
 586 186 l 1,10,-1
34 0 m 1,19,-1
 48 138 l 1,20,-1
 214 217 l 1,21,-1
 214 1008 l 1,22,-1
 45 1052 l 1,23,-1
 55 1211 l 1,24,25
 261 1257 261 1257 722 1257 c 0,26,27
 963 1257 963 1257 1081.5 1178 c 128,-1,28
 1200 1099 1200 1099 1200 951 c 0,29,30
 1200 873 1200 873 1140 799.5 c 128,-1,31
 1080 726 1080 726 997 694 c 1,32,-1
 997 684 l 1,33,34
 1061 681 1061 681 1124 644 c 128,-1,35
 1187 607 1187 607 1231.5 538.5 c 128,-1,36
 1276 470 1276 470 1276 390 c 0,37,38
 1276 197 1276 197 1109 98.5 c 128,-1,39
 942 0 942 0 628 0 c 2,40,-1
 34 0 l 1,19,-1
EndSplineSet
Colour: ffffff
EndChar

StartChar: C
Encoding: 67 67 9
Width: 1235
VWidth: 0
Flags: MW
LayerCount: 2
Back
SplineSet
0 619 m 4,0,1
 0 911 0 911 203.5 1090 c 0
 407 1269 407 1269 755 1269 c 0,2,3
 914 1269 914 1269 1038.5 1231.5 c 0
 1163 1194 1163 1194 1256.5 1116 c 0
 1350 1038 1350 1038 1399.5 908.5 c 0
 1449 779 1449 779 1449 603 c 0,4,5
 1449 448 1449 448 1391 326.5 c 0
 1333 205 1333 205 1229.5 128.5 c 0
 1126 52 1126 52 988 12.5 c 0
 850 -27 850 -27 685 -27 c 0,6,7
 512 -27 512 -27 380 20 c 0
 248 67 248 67 165.5 153.5 c 0
 83 240 83 240 41.5 357 c 0
 0 474 0 474 0 619 c 4,0,1
448 671 m 4,8,9
 448 630 448 630 453 582.5 c 0
 458 535 458 535 469.5 475.5 c 0
 481 416 481 416 503 362.5 c 0
 525 309 525 309 555.5 263 c 0
 586 217 586 217 633 190 c 0
 680 163 680 163 738 163 c 0,10,11
 868 163 868 163 933 262.5 c 0
 998 362 998 362 998 573 c 0,12,13
 998 609 998 609 995.5 648.5 c 0
 993 688 993 688 985 740.5 c 0
 977 793 977 793 964 840 c 0
 951 887 951 887 928.5 934.5 c 0
 906 982 906 982 877 1016.5 c 0
 848 1051 848 1051 804.5 1072.5 c 0
 761 1094 761 1094 709 1094 c 0,14,15
 572 1094 572 1094 510 985.5 c 0
 448 877 448 877 448 671 c 4,8,9
EndSplineSet
Fore
SplineSet
36 583 m 0,0,1
 36 691 36 691 61.5 789.5 c 128,-1,2
 87 888 87 888 144 976.5 c 128,-1,3
 201 1065 201 1065 285 1130 c 128,-1,4
 369 1195 369 1195 494 1233.5 c 128,-1,5
 619 1272 619 1272 773 1272 c 0,6,7
 871 1272 871 1272 983.5 1244 c 128,-1,8
 1096 1216 1096 1216 1148 1172 c 1,9,-1
 1117 748 l 1,10,-1
 947 771 l 1,11,-1
 883 1003 l 1,12,13
 848 1042 848 1042 791 1066.5 c 128,-1,14
 734 1091 734 1091 674 1091 c 0,15,16
 554 1091 554 1091 491 981.5 c 128,-1,17
 428 872 428 872 428 676 c 0,18,19
 428 458 428 458 536 331.5 c 128,-1,20
 644 205 644 205 815 205 c 0,21,22
 996 205 996 205 1141 313 c 1,23,-1
 1200 178 l 1,24,25
 1142 96 1142 96 999 33.5 c 128,-1,26
 856 -29 856 -29 686 -29 c 0,27,28
 360 -29 360 -29 198 131 c 128,-1,29
 36 291 36 291 36 583 c 0,0,1
EndSplineSet
Colour: ffffff
EndChar

StartChar: Ccedilla
Encoding: 199 199 10
Width: 1235
VWidth: 0
Flags: MW
LayerCount: 2
Fore
SplineSet
472 -319 m 1,0,1
 530 -318 530 -318 569.5 -298.5 c 128,-1,2
 609 -279 609 -279 609 -255 c 0,3,4
 609 -216 609 -216 453 -163 c 1,5,-1
 626 -28 l 1,6,7
 330 -13 330 -13 183 145.5 c 128,-1,8
 36 304 36 304 36 583 c 0,9,10
 36 691 36 691 61.5 789.5 c 128,-1,11
 87 888 87 888 144 976.5 c 128,-1,12
 201 1065 201 1065 285 1130 c 128,-1,13
 369 1195 369 1195 494 1233.5 c 128,-1,14
 619 1272 619 1272 773 1272 c 0,15,16
 871 1272 871 1272 983.5 1244 c 128,-1,17
 1096 1216 1096 1216 1148 1172 c 1,18,-1
 1117 748 l 1,19,-1
 947 771 l 1,20,-1
 883 1003 l 1,21,22
 848 1042 848 1042 791 1066.5 c 128,-1,23
 734 1091 734 1091 674 1091 c 0,24,25
 554 1091 554 1091 491 981.5 c 128,-1,26
 428 872 428 872 428 676 c 0,27,28
 428 458 428 458 536 331.5 c 128,-1,29
 644 205 644 205 815 205 c 0,30,31
 996 205 996 205 1141 313 c 1,32,-1
 1200 178 l 1,33,34
 1154 113 1154 113 1048 57 c 128,-1,35
 942 1 942 1 810 -19 c 1,36,-1
 697 -102 l 1,37,38
 872 -117 872 -117 872 -245 c 0,39,40
 872 -329 872 -329 789 -368 c 128,-1,41
 706 -407 706 -407 508 -407 c 1,42,-1
 472 -319 l 1,0,1
EndSplineSet
Colour: ffffff
EndChar

StartChar: D
Encoding: 68 68 11
Width: 1432
VWidth: 0
Flags: MW
LayerCount: 2
Fore
SplineSet
597 202 m 1,0,-1
 672 202 l 2,1,2
 737 202 737 202 790 217 c 128,-1,3
 843 232 843 232 878 256 c 128,-1,4
 913 280 913 280 940 314.5 c 128,-1,5
 967 349 967 349 982 383.5 c 128,-1,6
 997 418 997 418 1006 459 c 128,-1,7
 1015 500 1015 500 1017.5 532 c 128,-1,8
 1020 564 1020 564 1020 598 c 0,9,10
 1020 659 1020 659 1006.5 720.5 c 128,-1,11
 993 782 993 782 961.5 843.5 c 128,-1,12
 930 905 930 905 884.5 952 c 128,-1,13
 839 999 839 999 769 1028 c 128,-1,14
 699 1057 699 1057 615 1057 c 0,15,16
 602 1057 602 1057 597 1056 c 1,17,-1
 597 202 l 1,0,-1
34 0 m 1,18,-1
 47 158 l 1,19,-1
 227 241 l 1,20,-1
 227 1003 l 1,21,-1
 54 1049 l 1,22,-1
 61 1206 l 1,23,24
 162 1226 162 1226 333 1242 c 128,-1,25
 504 1258 504 1258 654 1258 c 0,26,27
 788 1258 788 1258 899 1237 c 128,-1,28
 1010 1216 1010 1216 1090.5 1177 c 128,-1,29
 1171 1138 1171 1138 1230 1085.5 c 128,-1,30
 1289 1033 1289 1033 1325 966 c 128,-1,31
 1361 899 1361 899 1378 826.5 c 128,-1,32
 1395 754 1395 754 1395 672 c 0,33,34
 1395 526 1395 526 1343 402.5 c 128,-1,35
 1291 279 1291 279 1196 190 c 128,-1,36
 1101 101 1101 101 958.5 50.5 c 128,-1,37
 816 0 816 0 642 0 c 2,38,-1
 34 0 l 1,18,-1
EndSplineSet
Colour: ffffff
EndChar

StartChar: E
Encoding: 69 69 12
Width: 1306
VWidth: 0
Flags: MW
LayerCount: 2
Fore
SplineSet
34 1100 m 1,0,-1
 53 1244 l 1,1,-1
 1226 1244 l 1,2,-1
 1196 826 l 1,3,-1
 1025 852 l 1,4,-1
 942 1072 l 1,5,-1
 597 1072 l 1,6,-1
 597 712 l 1,7,-1
 730 723 l 1,8,-1
 762 725 l 1,9,-1
 1016 746 l 1,10,-1
 983 470 l 1,11,-1
 742 514 l 1,12,-1
 710 520 l 1,13,-1
 597 540 l 1,14,-1
 597 200 l 1,15,-1
 960 180 l 1,16,-1
 1106 428 l 1,17,-1
 1271 411 l 1,18,-1
 1241 0 l 1,19,-1
 50 0 l 1,20,-1
 60 158 l 1,21,-1
 224 217 l 1,22,-1
 224 1030 l 1,23,-1
 34 1100 l 1,0,-1
EndSplineSet
Colour: ffffff
EndChar

StartChar: Eacute
Encoding: 201 201 13
Width: 1306
VWidth: 0
Flags: MW
LayerCount: 2
Fore
SplineSet
503 1336 m 1,0,-1
 648 1641 l 1,1,-1
 998 1631 l 1,2,-1
 737 1310 l 1,3,-1
 503 1336 l 1,0,-1
34 1100 m 1,4,-1
 53 1244 l 1,5,-1
 1226 1244 l 1,6,-1
 1196 826 l 1,7,-1
 1025 852 l 1,8,-1
 942 1072 l 1,9,-1
 597 1072 l 1,10,-1
 597 712 l 1,11,-1
 730 723 l 1,12,-1
 762 725 l 1,13,-1
 1016 746 l 1,14,-1
 983 470 l 1,15,-1
 742 514 l 1,16,-1
 710 520 l 1,17,-1
 597 540 l 1,18,-1
 597 200 l 1,19,-1
 960 180 l 1,20,-1
 1106 428 l 1,21,-1
 1271 411 l 1,22,-1
 1241 0 l 1,23,-1
 50 0 l 1,24,-1
 60 158 l 1,25,-1
 224 217 l 1,26,-1
 224 1030 l 1,27,-1
 34 1100 l 1,4,-1
EndSplineSet
Colour: ffffff
EndChar

StartChar: Ecircumflex
Encoding: 202 202 14
Width: 1306
VWidth: 0
Flags: MW
LayerCount: 2
Fore
SplineSet
364 1316 m 1,0,-1
 517 1571 l 1,1,-1
 842 1571 l 1,2,-1
 996 1316 l 1,3,-1
 743 1307 l 1,4,-1
 679 1428 l 1,5,-1
 665 1428 l 1,6,-1
 597 1306 l 1,7,-1
 364 1316 l 1,0,-1
34 1100 m 1,8,-1
 53 1244 l 1,9,-1
 1226 1244 l 1,10,-1
 1196 826 l 1,11,-1
 1025 852 l 1,12,-1
 942 1072 l 1,13,-1
 597 1072 l 1,14,-1
 597 712 l 1,15,-1
 730 723 l 1,16,-1
 762 725 l 1,17,-1
 1016 746 l 1,18,-1
 983 470 l 1,19,-1
 742 514 l 1,20,-1
 710 520 l 1,21,-1
 597 540 l 1,22,-1
 597 200 l 1,23,-1
 960 180 l 1,24,-1
 1106 428 l 1,25,-1
 1271 411 l 1,26,-1
 1241 0 l 1,27,-1
 50 0 l 1,28,-1
 60 158 l 1,29,-1
 224 217 l 1,30,-1
 224 1030 l 1,31,-1
 34 1100 l 1,8,-1
EndSplineSet
Colour: ffffff
EndChar

StartChar: Edieresis
Encoding: 203 203 15
Width: 1306
VWidth: 0
Flags: MW
LayerCount: 2
Fore
SplineSet
382 1418 m 0,0,1
 382 1437 382 1437 388.5 1454.5 c 128,-1,2
 395 1472 395 1472 410 1488.5 c 128,-1,3
 425 1505 425 1505 453 1515 c 128,-1,4
 481 1525 481 1525 520 1525 c 0,5,6
 561 1525 561 1525 590 1515 c 128,-1,7
 619 1505 619 1505 634.5 1489 c 128,-1,8
 650 1473 650 1473 656.5 1456 c 128,-1,9
 663 1439 663 1439 663 1420 c 0,10,11
 663 1311 663 1311 519 1311 c 0,12,13
 382 1311 382 1311 382 1418 c 0,0,1
691 1418 m 0,14,15
 691 1437 691 1437 697.5 1454.5 c 128,-1,16
 704 1472 704 1472 719 1488.5 c 128,-1,17
 734 1505 734 1505 762 1515 c 128,-1,18
 790 1525 790 1525 829 1525 c 0,19,20
 870 1525 870 1525 899 1515 c 128,-1,21
 928 1505 928 1505 943.5 1489 c 128,-1,22
 959 1473 959 1473 965.5 1456 c 128,-1,23
 972 1439 972 1439 972 1420 c 0,24,25
 972 1311 972 1311 828 1311 c 0,26,27
 691 1311 691 1311 691 1418 c 0,14,15
34 1100 m 1,28,-1
 53 1244 l 1,29,-1
 1226 1244 l 1,30,-1
 1196 826 l 1,31,-1
 1025 852 l 1,32,-1
 942 1072 l 1,33,-1
 597 1072 l 1,34,-1
 597 712 l 1,35,-1
 730 723 l 1,36,-1
 762 725 l 1,37,-1
 1016 746 l 1,38,-1
 983 470 l 1,39,-1
 742 514 l 1,40,-1
 710 520 l 1,41,-1
 597 540 l 1,42,-1
 597 200 l 1,43,-1
 960 180 l 1,44,-1
 1106 428 l 1,45,-1
 1271 411 l 1,46,-1
 1241 0 l 1,47,-1
 50 0 l 1,48,-1
 60 158 l 1,49,-1
 224 217 l 1,50,-1
 224 1030 l 1,51,-1
 34 1100 l 1,28,-1
EndSplineSet
Colour: ffffff
EndChar

StartChar: Egrave
Encoding: 200 200 16
Width: 1306
VWidth: 0
Flags: MW
LayerCount: 2
Fore
SplineSet
321 1632 m 1,0,-1
 671 1642 l 1,1,-1
 816 1337 l 1,2,-1
 582 1311 l 1,3,-1
 321 1632 l 1,0,-1
34 1100 m 1,4,-1
 53 1244 l 1,5,-1
 1226 1244 l 1,6,-1
 1196 826 l 1,7,-1
 1025 852 l 1,8,-1
 942 1072 l 1,9,-1
 597 1072 l 1,10,-1
 597 712 l 1,11,-1
 730 723 l 1,12,-1
 762 725 l 1,13,-1
 1016 746 l 1,14,-1
 983 470 l 1,15,-1
 742 514 l 1,16,-1
 710 520 l 1,17,-1
 597 540 l 1,18,-1
 597 200 l 1,19,-1
 960 180 l 1,20,-1
 1106 428 l 1,21,-1
 1271 411 l 1,22,-1
 1241 0 l 1,23,-1
 50 0 l 1,24,-1
 60 158 l 1,25,-1
 224 217 l 1,26,-1
 224 1030 l 1,27,-1
 34 1100 l 1,4,-1
EndSplineSet
Colour: ffffff
EndChar

StartChar: Eth
Encoding: 208 208 17
Width: 1540
VWidth: 0
Flags: MW
LayerCount: 2
Fore
SplineSet
616 202 m 1,0,-1
 691 202 l 2,1,2
 765 202 765 202 825.5 217 c 128,-1,3
 886 232 886 232 926.5 256 c 128,-1,4
 967 280 967 280 997.5 314.5 c 128,-1,5
 1028 349 1028 349 1045 383.5 c 128,-1,6
 1062 418 1062 418 1072.5 459 c 128,-1,7
 1083 500 1083 500 1086 532 c 128,-1,8
 1089 564 1089 564 1089 598 c 0,9,10
 1089 659 1089 659 1073.5 720.5 c 128,-1,11
 1058 782 1058 782 1023 843.5 c 128,-1,12
 988 905 988 905 937 952 c 128,-1,13
 886 999 886 999 807.5 1028 c 128,-1,14
 729 1057 729 1057 634 1057 c 1,15,-1
 621 1056 l 2,16,17
 622 1056 622 1056 625 1054 c 0,18,19
 635 1051 635 1051 622 1051 c 0,20,21
 619 1051 619 1051 616 1051 c 1,22,-1
 616 712 l 1,23,-1
 814 737 l 1,24,-1
 795 548 l 1,25,-1
 616 536 l 1,26,-1
 616 202 l 1,0,-1
43 0 m 1,27,-1
 66 138 l 1,28,-1
 246 241 l 1,29,-1
 246 499 l 1,30,-1
 66 483 l 1,31,-1
 81 666 l 1,32,-1
 246 680 l 1,33,-1
 246 1003 l 1,34,-1
 73 1049 l 1,35,-1
 80 1206 l 1,36,37
 224 1229 224 1229 393.5 1243.5 c 128,-1,38
 563 1258 563 1258 673 1258 c 0,39,40
 813 1258 813 1258 929 1240.5 c 128,-1,41
 1045 1223 1045 1223 1129 1192 c 128,-1,42
 1213 1161 1213 1161 1277.5 1116 c 128,-1,43
 1342 1071 1342 1071 1382.5 1020 c 128,-1,44
 1423 969 1423 969 1448.5 906.5 c 128,-1,45
 1474 844 1474 844 1484 782.5 c 128,-1,46
 1494 721 1494 721 1494 652 c 0,47,48
 1494 524 1494 524 1434.5 406 c 128,-1,49
 1375 288 1375 288 1269.5 198 c 128,-1,50
 1164 108 1164 108 1005.5 54 c 128,-1,51
 847 0 847 0 661 0 c 2,52,-1
 43 0 l 1,27,-1
EndSplineSet
Colour: ffffff
EndChar

StartChar: Euro
Encoding: 8364 8364 18
Width: 1080
VWidth: 0
Flags: MW
LayerCount: 2
Fore
SplineSet
32 511 m 1,0,-1
 54 647 l 1,1,-1
 159 647 l 1,2,3
 184 723 184 723 229 785 c 128,-1,4
 274 847 274 847 339 895.5 c 128,-1,5
 404 944 404 944 497 970.5 c 128,-1,6
 590 997 590 997 702 997 c 0,7,8
 776 997 776 997 860.5 977.5 c 128,-1,9
 945 958 945 958 984 928 c 1,10,-1
 961 620 l 1,11,-1
 811 643 l 1,12,-1
 779 779 l 1,13,14
 723 822 723 822 649 822 c 0,15,16
 589 822 589 822 551 776.5 c 128,-1,17
 513 731 513 731 498 647 c 1,18,-1
 732 647 l 1,19,-1
 705 511 l 1,20,-1
 489 511 l 1,21,22
 490 481 490 481 493 454 c 1,23,-1
 690 454 l 1,24,-1
 663 321 l 1,25,-1
 530 321 l 1,26,27
 591 199 591 199 731 199 c 0,28,29
 802 199 802 199 863 234.5 c 128,-1,30
 924 270 924 270 960 313 c 1,31,-1
 1047 199 l 1,32,33
 993 101 993 101 880.5 36.5 c 128,-1,34
 768 -28 768 -28 621 -28 c 0,35,36
 412 -28 412 -28 290.5 64 c 128,-1,37
 169 156 169 156 138 321 c 1,38,-1
 37 321 l 1,39,-1
 53 454 l 1,40,-1
 127 454 l 1,41,42
 128 483 128 483 131 511 c 1,43,-1
 32 511 l 1,0,-1
EndSplineSet
Colour: ffffff
EndChar

StartChar: F
Encoding: 70 70 19
Width: 1256
VWidth: 0
Flags: MW
LayerCount: 2
Fore
SplineSet
34 1100 m 1,0,-1
 53 1244 l 1,1,-1
 1221 1244 l 1,2,-1
 1162 834 l 1,3,-1
 995 861 l 1,4,-1
 935 1072 l 1,5,-1
 599 1072 l 1,6,-1
 599 686 l 1,7,-1
 826 709 l 1,8,-1
 859 712 l 1,9,-1
 1018 728 l 1,10,-1
 985 452 l 1,11,-1
 832 477 l 1,12,-1
 790 483 l 1,13,-1
 599 514 l 1,14,-1
 599 227 l 1,15,-1
 834 163 l 1,16,-1
 818 0 l 1,17,-1
 49 0 l 1,18,-1
 65 138 l 1,19,-1
 227 217 l 1,20,-1
 227 1030 l 1,21,-1
 34 1100 l 1,0,-1
EndSplineSet
Colour: ffffff
EndChar

StartChar: G
Encoding: 71 71 20
Width: 1412
VWidth: 0
Flags: MW
LayerCount: 2
Back
SplineSet
0 619 m 4,0,1
 0 911 0 911 203.5 1090 c 0
 407 1269 407 1269 755 1269 c 0,2,3
 914 1269 914 1269 1038.5 1231.5 c 0
 1163 1194 1163 1194 1256.5 1116 c 0
 1350 1038 1350 1038 1399.5 908.5 c 0
 1449 779 1449 779 1449 603 c 0,4,5
 1449 448 1449 448 1391 326.5 c 0
 1333 205 1333 205 1229.5 128.5 c 0
 1126 52 1126 52 988 12.5 c 0
 850 -27 850 -27 685 -27 c 0,6,7
 512 -27 512 -27 380 20 c 0
 248 67 248 67 165.5 153.5 c 0
 83 240 83 240 41.5 357 c 0
 0 474 0 474 0 619 c 4,0,1
448 671 m 4,8,9
 448 630 448 630 453 582.5 c 0
 458 535 458 535 469.5 475.5 c 0
 481 416 481 416 503 362.5 c 0
 525 309 525 309 555.5 263 c 0
 586 217 586 217 633 190 c 0
 680 163 680 163 738 163 c 0,10,11
 868 163 868 163 933 262.5 c 0
 998 362 998 362 998 573 c 0,12,13
 998 609 998 609 995.5 648.5 c 0
 993 688 993 688 985 740.5 c 0
 977 793 977 793 964 840 c 0
 951 887 951 887 928.5 934.5 c 0
 906 982 906 982 877 1016.5 c 0
 848 1051 848 1051 804.5 1072.5 c 0
 761 1094 761 1094 709 1094 c 0,14,15
 572 1094 572 1094 510 985.5 c 0
 448 877 448 877 448 671 c 4,8,9
EndSplineSet
Fore
SplineSet
36 580 m 0,0,1
 36 710 36 710 78 823 c 128,-1,2
 120 936 120 936 192 1017 c 128,-1,3
 264 1098 264 1098 359 1156 c 128,-1,4
 454 1214 454 1214 560.5 1242.5 c 128,-1,5
 667 1271 667 1271 777 1271 c 0,6,7
 900 1271 900 1271 1002.5 1255.5 c 128,-1,8
 1105 1240 1105 1240 1152.5 1224.5 c 128,-1,9
 1200 1209 1200 1209 1258 1185 c 1,10,-1
 1217 746 l 1,11,-1
 1029 761 l 1,12,-1
 988 1009 l 1,13,14
 883 1087 883 1087 730 1087 c 0,15,16
 590 1087 590 1087 517 994 c 128,-1,17
 444 901 444 901 444 696 c 0,18,19
 444 452 444 452 526 323.5 c 128,-1,20
 608 195 608 195 752 195 c 0,21,22
 817 195 817 195 856.5 207.5 c 128,-1,23
 896 220 896 220 925 255 c 1,24,-1
 925 355 l 1,25,-1
 704 419 l 1,26,-1
 727 591 l 1,27,-1
 1377 591 l 1,28,-1
 1356 405 l 1,29,-1
 1261 363 l 1,30,-1
 1261 93 l 1,31,32
 1196 51 1196 51 1034.5 13.5 c 128,-1,33
 873 -24 873 -24 756 -24 c 0,34,35
 398 -24 398 -24 217 129.5 c 128,-1,36
 36 283 36 283 36 580 c 0,0,1
EndSplineSet
Colour: ffffff
EndChar

StartChar: H
Encoding: 72 72 21
Width: 1609
VWidth: 0
Flags: MW
LayerCount: 2
Fore
SplineSet
34 1094 m 1,0,-1
 59 1244 l 1,1,-1
 749 1244 l 1,2,-1
 730 1094 l 1,3,-1
 593 1027 l 1,4,-1
 593 744 l 1,5,-1
 1010 744 l 1,6,-1
 1010 1020 l 1,7,-1
 859 1094 l 1,8,-1
 876 1244 l 1,9,-1
 1574 1244 l 1,10,-1
 1555 1094 l 1,11,-1
 1387 1027 l 1,12,-1
 1387 211 l 1,13,-1
 1566 148 l 1,14,-1
 1552 0 l 1,15,-1
 859 0 l 1,16,-1
 873 138 l 1,17,-1
 1010 217 l 1,18,-1
 1010 493 l 1,19,-1
 593 493 l 1,20,-1
 593 211 l 1,21,-1
 744 148 l 1,22,-1
 726 0 l 1,23,-1
 39 0 l 1,24,-1
 51 138 l 1,25,-1
 220 217 l 1,26,-1
 220 1020 l 1,27,-1
 34 1094 l 1,0,-1
EndSplineSet
Colour: ffffff
EndChar

StartChar: I
Encoding: 73 73 22
Width: 816
VWidth: 0
Flags: MW
LayerCount: 2
Fore
SplineSet
34 1094 m 1,0,-1
 54 1244 l 1,1,-1
 781 1244 l 1,2,-1
 765 1084 l 1,3,-1
 586 1017 l 1,4,-1
 586 223 l 1,5,-1
 766 160 l 1,6,-1
 753 0 l 1,7,-1
 36 0 l 1,8,-1
 46 142 l 1,9,-1
 222 221 l 1,10,-1
 222 1020 l 1,11,-1
 34 1094 l 1,0,-1
EndSplineSet
Colour: ffffff
EndChar

StartChar: Iacute
Encoding: 205 205 23
Width: 816
VWidth: 0
Flags: MW
LayerCount: 2
Fore
SplineSet
221 1334 m 1,0,-1
 366 1639 l 1,1,-1
 716 1629 l 1,2,-1
 455 1308 l 1,3,-1
 221 1334 l 1,0,-1
34 1094 m 1,4,-1
 54 1244 l 1,5,-1
 781 1244 l 1,6,-1
 765 1084 l 1,7,-1
 586 1017 l 1,8,-1
 586 223 l 1,9,-1
 766 160 l 1,10,-1
 753 0 l 1,11,-1
 36 0 l 1,12,-1
 46 142 l 1,13,-1
 222 221 l 1,14,-1
 222 1020 l 1,15,-1
 34 1094 l 1,4,-1
EndSplineSet
Colour: ffffff
EndChar

StartChar: Icircumflex
Encoding: 206 206 24
Width: 816
VWidth: 0
Flags: MW
LayerCount: 2
Fore
SplineSet
104 1315 m 1,0,-1
 257 1570 l 1,1,-1
 582 1570 l 1,2,-1
 736 1315 l 1,3,-1
 483 1306 l 1,4,-1
 419 1427 l 1,5,-1
 405 1427 l 1,6,-1
 337 1305 l 1,7,-1
 104 1315 l 1,0,-1
34 1094 m 1,8,-1
 54 1244 l 1,9,-1
 781 1244 l 1,10,-1
 765 1084 l 1,11,-1
 586 1017 l 1,12,-1
 586 223 l 1,13,-1
 766 160 l 1,14,-1
 753 0 l 1,15,-1
 36 0 l 1,16,-1
 46 142 l 1,17,-1
 222 221 l 1,18,-1
 222 1020 l 1,19,-1
 34 1094 l 1,8,-1
EndSplineSet
Colour: ffffff
EndChar

StartChar: Idieresis
Encoding: 207 207 25
Width: 816
VWidth: 0
Flags: MW
LayerCount: 2
Fore
SplineSet
118 1412 m 0,0,1
 118 1431 118 1431 124.5 1448.5 c 128,-1,2
 131 1466 131 1466 146 1482.5 c 128,-1,3
 161 1499 161 1499 189 1509 c 128,-1,4
 217 1519 217 1519 256 1519 c 0,5,6
 297 1519 297 1519 326 1509 c 128,-1,7
 355 1499 355 1499 370.5 1483 c 128,-1,8
 386 1467 386 1467 392.5 1450 c 128,-1,9
 399 1433 399 1433 399 1414 c 0,10,11
 399 1305 399 1305 255 1305 c 0,12,13
 118 1305 118 1305 118 1412 c 0,0,1
427 1412 m 0,14,15
 427 1431 427 1431 433.5 1448.5 c 128,-1,16
 440 1466 440 1466 455 1482.5 c 128,-1,17
 470 1499 470 1499 498 1509 c 128,-1,18
 526 1519 526 1519 565 1519 c 0,19,20
 606 1519 606 1519 635 1509 c 128,-1,21
 664 1499 664 1499 679.5 1483 c 128,-1,22
 695 1467 695 1467 701.5 1450 c 128,-1,23
 708 1433 708 1433 708 1414 c 0,24,25
 708 1305 708 1305 564 1305 c 0,26,27
 427 1305 427 1305 427 1412 c 0,14,15
34 1094 m 1,28,-1
 54 1244 l 1,29,-1
 781 1244 l 1,30,-1
 765 1084 l 1,31,-1
 586 1017 l 1,32,-1
 586 223 l 1,33,-1
 766 160 l 1,34,-1
 753 0 l 1,35,-1
 36 0 l 1,36,-1
 46 142 l 1,37,-1
 222 221 l 1,38,-1
 222 1020 l 1,39,-1
 34 1094 l 1,28,-1
EndSplineSet
Colour: ffffff
EndChar

StartChar: Igrave
Encoding: 204 204 26
Width: 816
VWidth: 0
Flags: MW
LayerCount: 2
Fore
SplineSet
59 1629 m 1,0,-1
 409 1639 l 1,1,-1
 554 1334 l 1,2,-1
 320 1308 l 1,3,-1
 59 1629 l 1,0,-1
34 1094 m 1,4,-1
 54 1244 l 1,5,-1
 781 1244 l 1,6,-1
 765 1084 l 1,7,-1
 586 1017 l 1,8,-1
 586 223 l 1,9,-1
 766 160 l 1,10,-1
 753 0 l 1,11,-1
 36 0 l 1,12,-1
 46 142 l 1,13,-1
 222 221 l 1,14,-1
 222 1020 l 1,15,-1
 34 1094 l 1,4,-1
EndSplineSet
Colour: ffffff
EndChar

StartChar: J
Encoding: 74 74 27
Width: 820
VWidth: 0
Flags: MW
LayerCount: 2
Fore
SplineSet
34 -151 m 1,0,1
 135 -70 135 -70 186.5 49.5 c 128,-1,2
 238 169 238 169 238 285 c 2,3,-1
 238 1020 l 1,4,-1
 53 1094 l 1,5,-1
 72 1244 l 1,6,-1
 785 1244 l 1,7,-1
 765 1094 l 1,8,-1
 605 1027 l 1,9,-1
 605 434 l 1,10,11
 606 277 606 277 587 173.5 c 128,-1,12
 568 70 568 70 512.5 -18.5 c 128,-1,13
 457 -107 457 -107 375 -174 c 128,-1,14
 293 -241 293 -241 151 -326 c 1,15,-1
 34 -151 l 1,0,1
EndSplineSet
Colour: ffffff
EndChar

StartChar: K
Encoding: 75 75 28
Width: 1546
VWidth: 0
Flags: MW
LayerCount: 2
Back
SplineSet
46 1094 m 1,0,-1
 78 1244 l 1,1,-1
 631 1244 l 1,2,-1
 631 1094 l 1,3,-1
 631 1000 l 1,4,-1
 631 240 l 1,5,-1
 631 148 l 1,6,-1
 631 0 l 1,7,-1
 49 0 l 1,8,-1
 65 138 l 1,9,-1
 267 241 l 1,10,-1
 267 993 l 1,11,-1
 46 1094 l 1,0,-1
613 646 m 1,12,-1
 843 1003 l 1,13,-1
 1029 1244 l 1,14,-1
 1404 1244 l 1,15,-1
 1374 1094 l 1,16,-1
 1128 1001 l 1,17,-1
 856 670 l 1,18,19
 1005 473 1005 473 1188 310 c 0
 1371 147 1371 147 1473 113 c 1,20,-1
 1441 2 l 1,21,22
 1391 -27 1391 -27 1291 -27 c 0,23,24
 1233 -27 1233 -27 1175.5 -11.5 c 0
 1118 4 1118 4 1071 26.5 c 0
 1024 49 1024 49 975 88 c 0
 926 127 926 127 890.5 160.5 c 0
 855 194 855 194 814 246.5 c 0
 773 299 773 299 748.5 333 c 0
 724 367 724 367 691 422.5 c 0
 658 478 658 478 644.5 501.5 c 0
 631 525 631 525 606.138 571.659 c 0
 602 579 602 579 600 583 c 1,25,-1
 613 646 l 1,12,-1
EndSplineSet
Fore
SplineSet
650 578 m 1,0,-1
 654 665 l 1,1,2
 680 698 680 698 719 750 c 2,3,-1
 904 1003 l 1,4,-1
 917 1082 l 1,5,-1
 944 1244 l 1,6,-1
 1462 1244 l 1,7,-1
 1432 1094 l 1,8,-1
 1211 1000 l 1,9,-1
 958 670 l 1,10,-1
 1136 460 l 1,11,12
 1242 333 1242 333 1322 261.5 c 128,-1,13
 1402 190 1402 190 1486 146 c 2,14,-1
 1511 133 l 1,15,-1
 1479 2 l 1,16,17
 1367 -22 1367 -22 1285 -22 c 0,18,19
 1143 -22 1143 -22 1034 56.5 c 128,-1,20
 925 135 925 135 794 346 c 2,21,-1
 650 578 l 1,0,-1
34 1094 m 1,22,-1
 66 1244 l 1,23,-1
 786 1244 l 1,24,-1
 763 1074 l 1,25,-1
 619 1000 l 1,26,-1
 619 240 l 1,27,-1
 814 148 l 1,28,-1
 802 0 l 1,29,-1
 37 0 l 1,30,-1
 53 138 l 1,31,-1
 255 241 l 1,32,-1
 255 993 l 1,33,-1
 34 1094 l 1,22,-1
EndSplineSet
Colour: ffffff
EndChar

StartChar: L
Encoding: 76 76 29
Width: 1228
VWidth: 0
Flags: MW
LayerCount: 2
Fore
SplineSet
34 0 m 1,0,-1
 50 138 l 1,1,-1
 210 217 l 1,2,-1
 210 998 l 1,3,-1
 38 1098 l 1,4,-1
 57 1245 l 1,5,-1
 800 1245 l 1,6,-1
 779 1098 l 1,7,-1
 583 1000 l 1,8,-1
 583 200 l 1,9,-1
 853 178 l 1,10,-1
 1027 453 l 1,11,-1
 1193 430 l 1,12,-1
 1146 0 l 1,13,-1
 34 0 l 1,0,-1
EndSplineSet
Colour: ffffff
EndChar

StartChar: M
Encoding: 77 77 30
Width: 1873
VWidth: 0
Flags: MW
LayerCount: 2
Fore
SplineSet
34 0 m 1,0,-1
 55 154 l 1,1,-1
 223 233 l 1,2,-1
 281 1030 l 1,3,-1
 97 1087 l 1,4,-1
 113 1244 l 1,5,-1
 764 1244 l 1,6,-1
 821 1039 l 1,7,-1
 949 553 l 1,8,-1
 1105 1041 l 1,9,-1
 1172 1244 l 1,10,-1
 1792 1244 l 1,11,-1
 1774 1087 l 1,12,-1
 1622 1033 l 1,13,-1
 1672 229 l 1,14,-1
 1838 161 l 1,15,-1
 1824 0 l 1,16,-1
 1163 0 l 1,17,-1
 1186 154 l 1,18,-1
 1288 223 l 1,19,-1
 1265 786 l 1,20,-1
 1040 31 l 1,21,-1
 747 -8 l 1,22,-1
 518 787 l 1,23,-1
 485 229 l 1,24,-1
 614 161 l 1,25,-1
 589 0 l 1,26,-1
 34 0 l 1,0,-1
EndSplineSet
Colour: ffffff
EndChar

StartChar: N
Encoding: 78 78 31
Width: 1442
VWidth: 0
Flags: MW
LayerCount: 2
Fore
SplineSet
34 0 m 1,0,-1
 44 138 l 1,1,-1
 215 217 l 1,2,-1
 215 1003 l 1,3,-1
 38 1087 l 1,4,-1
 52 1244 l 1,5,-1
 462 1244 l 1,6,-1
 1024 513 l 1,7,-1
 1024 1020 l 1,8,-1
 836 1094 l 1,9,-1
 860 1244 l 1,10,-1
 1407 1244 l 1,11,-1
 1382 1094 l 1,12,-1
 1244 1027 l 1,13,-1
 1244 15 l 1,14,-1
 951 -29 l 1,15,-1
 448 619 l 1,16,-1
 448 211 l 1,17,-1
 628 148 l 1,18,-1
 615 0 l 1,19,-1
 34 0 l 1,0,-1
EndSplineSet
Colour: ffffff
EndChar

StartChar: Ntilde
Encoding: 209 209 32
Width: 1442
VWidth: 0
Flags: MW
LayerCount: 2
Fore
SplineSet
377 1319 m 1,0,1
 379 1399 379 1399 395.5 1455.5 c 128,-1,2
 412 1512 412 1512 439 1543 c 128,-1,3
 466 1574 466 1574 505 1586.5 c 128,-1,4
 544 1599 544 1599 587 1595.5 c 128,-1,5
 630 1592 630 1592 682 1576 c 2,6,-1
 752 1554 l 2,7,8
 819 1532 819 1532 854 1542.5 c 128,-1,9
 889 1553 889 1553 903 1604 c 1,10,-1
 1018 1593 l 1,11,12
 1008 1407 1008 1407 935.5 1349 c 128,-1,13
 863 1291 863 1291 724 1334 c 2,14,-1
 658 1354 l 1,15,16
 571 1378 571 1378 541.5 1368 c 128,-1,17
 512 1358 512 1358 494 1308 c 1,18,-1
 377 1319 l 1,0,1
34 0 m 1,19,-1
 44 138 l 1,20,-1
 215 217 l 1,21,-1
 215 1003 l 1,22,-1
 38 1087 l 1,23,-1
 52 1244 l 1,24,-1
 462 1244 l 1,25,-1
 1024 513 l 1,26,-1
 1024 1020 l 1,27,-1
 836 1094 l 1,28,-1
 860 1244 l 1,29,-1
 1407 1244 l 1,30,-1
 1382 1094 l 1,31,-1
 1244 1027 l 1,32,-1
 1244 15 l 1,33,-1
 951 -29 l 1,34,-1
 448 619 l 1,35,-1
 448 211 l 1,36,-1
 628 148 l 1,37,-1
 615 0 l 1,38,-1
 34 0 l 1,19,-1
EndSplineSet
Colour: ffffff
EndChar

StartChar: O
Encoding: 79 79 33
Width: 1355
VWidth: 0
Flags: MW
LayerCount: 2
Fore
SplineSet
444 671 m 0,0,1
 444 620 444 620 450 562 c 128,-1,2
 456 504 456 504 474 430.5 c 128,-1,3
 492 357 492 357 520.5 299.5 c 128,-1,4
 549 242 549 242 598.5 202.5 c 128,-1,5
 648 163 648 163 712 163 c 0,6,7
 904 163 904 163 904 573 c 0,8,9
 904 626 904 626 899 684.5 c 128,-1,10
 894 743 894 743 878 819 c 128,-1,11
 862 895 862 895 836 953.5 c 128,-1,12
 810 1012 810 1012 762.5 1053 c 128,-1,13
 715 1094 715 1094 653 1094 c 0,14,15
 543 1094 543 1094 493.5 985.5 c 128,-1,16
 444 877 444 877 444 671 c 0,0,1
36 619 m 0,17,18
 36 763 36 763 82 883 c 128,-1,19
 128 1003 128 1003 212 1088.5 c 128,-1,20
 296 1174 296 1174 421 1221.5 c 128,-1,21
 546 1269 546 1269 699 1269 c 0,22,23
 839 1269 839 1269 949 1233 c 128,-1,24
 1059 1197 1059 1197 1143.5 1121 c 128,-1,25
 1228 1045 1228 1045 1273 916.5 c 128,-1,26
 1318 788 1318 788 1318 613 c 0,27,28
 1318 460 1318 460 1267 337.5 c 128,-1,29
 1216 215 1216 215 1126.5 136 c 128,-1,30
 1037 57 1037 57 917.5 15 c 128,-1,31
 798 -27 798 -27 659 -27 c 0,32,33
 501 -27 501 -27 381 20 c 128,-1,34
 261 67 261 67 186 153.5 c 128,-1,35
 111 240 111 240 73.5 357 c 128,-1,36
 36 474 36 474 36 619 c 0,17,18
EndSplineSet
Colour: ffffff
EndChar

StartChar: Oacute
Encoding: 211 211 34
Width: 1355
VWidth: 0
Flags: MW
LayerCount: 2
Fore
SplineSet
481 1336 m 1,0,-1
 626 1641 l 1,1,-1
 976 1631 l 1,2,-1
 715 1310 l 1,3,-1
 481 1336 l 1,0,-1
444 671 m 0,4,5
 444 620 444 620 450 562 c 128,-1,6
 456 504 456 504 474 430.5 c 128,-1,7
 492 357 492 357 520.5 299.5 c 128,-1,8
 549 242 549 242 598.5 202.5 c 128,-1,9
 648 163 648 163 712 163 c 0,10,11
 904 163 904 163 904 573 c 0,12,13
 904 626 904 626 899 684.5 c 128,-1,14
 894 743 894 743 878 819 c 128,-1,15
 862 895 862 895 836 953.5 c 128,-1,16
 810 1012 810 1012 762.5 1053 c 128,-1,17
 715 1094 715 1094 653 1094 c 0,18,19
 543 1094 543 1094 493.5 985.5 c 128,-1,20
 444 877 444 877 444 671 c 0,4,5
36 619 m 0,21,22
 36 763 36 763 82 883 c 128,-1,23
 128 1003 128 1003 212 1088.5 c 128,-1,24
 296 1174 296 1174 421 1221.5 c 128,-1,25
 546 1269 546 1269 699 1269 c 0,26,27
 839 1269 839 1269 949 1233 c 128,-1,28
 1059 1197 1059 1197 1143.5 1121 c 128,-1,29
 1228 1045 1228 1045 1273 916.5 c 128,-1,30
 1318 788 1318 788 1318 613 c 0,31,32
 1318 460 1318 460 1267 337.5 c 128,-1,33
 1216 215 1216 215 1126.5 136 c 128,-1,34
 1037 57 1037 57 917.5 15 c 128,-1,35
 798 -27 798 -27 659 -27 c 0,36,37
 501 -27 501 -27 381 20 c 128,-1,38
 261 67 261 67 186 153.5 c 128,-1,39
 111 240 111 240 73.5 357 c 128,-1,40
 36 474 36 474 36 619 c 0,21,22
EndSplineSet
Colour: ffffff
EndChar

StartChar: Ocircumflex
Encoding: 212 212 35
Width: 1355
VWidth: 0
Flags: MW
LayerCount: 2
Fore
SplineSet
372 1318 m 1,0,-1
 525 1573 l 1,1,-1
 850 1573 l 1,2,-1
 1004 1318 l 1,3,-1
 751 1309 l 1,4,-1
 687 1430 l 1,5,-1
 673 1430 l 1,6,-1
 605 1308 l 1,7,-1
 372 1318 l 1,0,-1
444 671 m 0,8,9
 444 620 444 620 450 562 c 128,-1,10
 456 504 456 504 474 430.5 c 128,-1,11
 492 357 492 357 520.5 299.5 c 128,-1,12
 549 242 549 242 598.5 202.5 c 128,-1,13
 648 163 648 163 712 163 c 0,14,15
 904 163 904 163 904 573 c 0,16,17
 904 626 904 626 899 684.5 c 128,-1,18
 894 743 894 743 878 819 c 128,-1,19
 862 895 862 895 836 953.5 c 128,-1,20
 810 1012 810 1012 762.5 1053 c 128,-1,21
 715 1094 715 1094 653 1094 c 0,22,23
 543 1094 543 1094 493.5 985.5 c 128,-1,24
 444 877 444 877 444 671 c 0,8,9
36 619 m 0,25,26
 36 763 36 763 82 883 c 128,-1,27
 128 1003 128 1003 212 1088.5 c 128,-1,28
 296 1174 296 1174 421 1221.5 c 128,-1,29
 546 1269 546 1269 699 1269 c 0,30,31
 839 1269 839 1269 949 1233 c 128,-1,32
 1059 1197 1059 1197 1143.5 1121 c 128,-1,33
 1228 1045 1228 1045 1273 916.5 c 128,-1,34
 1318 788 1318 788 1318 613 c 0,35,36
 1318 460 1318 460 1267 337.5 c 128,-1,37
 1216 215 1216 215 1126.5 136 c 128,-1,38
 1037 57 1037 57 917.5 15 c 128,-1,39
 798 -27 798 -27 659 -27 c 0,40,41
 501 -27 501 -27 381 20 c 128,-1,42
 261 67 261 67 186 153.5 c 128,-1,43
 111 240 111 240 73.5 357 c 128,-1,44
 36 474 36 474 36 619 c 0,25,26
EndSplineSet
Colour: ffffff
EndChar

StartChar: Odieresis
Encoding: 214 214 36
Width: 1355
VWidth: 0
Flags: MW
LayerCount: 2
Fore
SplineSet
378 1418 m 0,0,1
 378 1437 378 1437 384.5 1454.5 c 128,-1,2
 391 1472 391 1472 406 1488.5 c 128,-1,3
 421 1505 421 1505 449 1515 c 128,-1,4
 477 1525 477 1525 516 1525 c 0,5,6
 557 1525 557 1525 586 1515 c 128,-1,7
 615 1505 615 1505 630.5 1489 c 128,-1,8
 646 1473 646 1473 652.5 1456 c 128,-1,9
 659 1439 659 1439 659 1420 c 0,10,11
 659 1311 659 1311 515 1311 c 0,12,13
 378 1311 378 1311 378 1418 c 0,0,1
687 1418 m 0,14,15
 687 1437 687 1437 693.5 1454.5 c 128,-1,16
 700 1472 700 1472 715 1488.5 c 128,-1,17
 730 1505 730 1505 758 1515 c 128,-1,18
 786 1525 786 1525 825 1525 c 0,19,20
 866 1525 866 1525 895 1515 c 128,-1,21
 924 1505 924 1505 939.5 1489 c 128,-1,22
 955 1473 955 1473 961.5 1456 c 128,-1,23
 968 1439 968 1439 968 1420 c 0,24,25
 968 1311 968 1311 824 1311 c 0,26,27
 687 1311 687 1311 687 1418 c 0,14,15
444 671 m 0,28,29
 444 620 444 620 450 562 c 128,-1,30
 456 504 456 504 474 430.5 c 128,-1,31
 492 357 492 357 520.5 299.5 c 128,-1,32
 549 242 549 242 598.5 202.5 c 128,-1,33
 648 163 648 163 712 163 c 0,34,35
 904 163 904 163 904 573 c 0,36,37
 904 626 904 626 899 684.5 c 128,-1,38
 894 743 894 743 878 819 c 128,-1,39
 862 895 862 895 836 953.5 c 128,-1,40
 810 1012 810 1012 762.5 1053 c 128,-1,41
 715 1094 715 1094 653 1094 c 0,42,43
 543 1094 543 1094 493.5 985.5 c 128,-1,44
 444 877 444 877 444 671 c 0,28,29
36 619 m 0,45,46
 36 763 36 763 82 883 c 128,-1,47
 128 1003 128 1003 212 1088.5 c 128,-1,48
 296 1174 296 1174 421 1221.5 c 128,-1,49
 546 1269 546 1269 699 1269 c 0,50,51
 839 1269 839 1269 949 1233 c 128,-1,52
 1059 1197 1059 1197 1143.5 1121 c 128,-1,53
 1228 1045 1228 1045 1273 916.5 c 128,-1,54
 1318 788 1318 788 1318 613 c 0,55,56
 1318 460 1318 460 1267 337.5 c 128,-1,57
 1216 215 1216 215 1126.5 136 c 128,-1,58
 1037 57 1037 57 917.5 15 c 128,-1,59
 798 -27 798 -27 659 -27 c 0,60,61
 501 -27 501 -27 381 20 c 128,-1,62
 261 67 261 67 186 153.5 c 128,-1,63
 111 240 111 240 73.5 357 c 128,-1,64
 36 474 36 474 36 619 c 0,45,46
EndSplineSet
Colour: ffffff
EndChar

StartChar: Ograve
Encoding: 210 210 37
Width: 1355
VWidth: 0
Flags: MW
LayerCount: 2
Fore
SplineSet
349 1632 m 1,0,-1
 699 1642 l 1,1,-1
 844 1337 l 1,2,-1
 610 1311 l 1,3,-1
 349 1632 l 1,0,-1
444 671 m 0,4,5
 444 620 444 620 450 562 c 128,-1,6
 456 504 456 504 474 430.5 c 128,-1,7
 492 357 492 357 520.5 299.5 c 128,-1,8
 549 242 549 242 598.5 202.5 c 128,-1,9
 648 163 648 163 712 163 c 0,10,11
 904 163 904 163 904 573 c 0,12,13
 904 626 904 626 899 684.5 c 128,-1,14
 894 743 894 743 878 819 c 128,-1,15
 862 895 862 895 836 953.5 c 128,-1,16
 810 1012 810 1012 762.5 1053 c 128,-1,17
 715 1094 715 1094 653 1094 c 0,18,19
 543 1094 543 1094 493.5 985.5 c 128,-1,20
 444 877 444 877 444 671 c 0,4,5
36 619 m 0,21,22
 36 763 36 763 82 883 c 128,-1,23
 128 1003 128 1003 212 1088.5 c 128,-1,24
 296 1174 296 1174 421 1221.5 c 128,-1,25
 546 1269 546 1269 699 1269 c 0,26,27
 839 1269 839 1269 949 1233 c 128,-1,28
 1059 1197 1059 1197 1143.5 1121 c 128,-1,29
 1228 1045 1228 1045 1273 916.5 c 128,-1,30
 1318 788 1318 788 1318 613 c 0,31,32
 1318 460 1318 460 1267 337.5 c 128,-1,33
 1216 215 1216 215 1126.5 136 c 128,-1,34
 1037 57 1037 57 917.5 15 c 128,-1,35
 798 -27 798 -27 659 -27 c 0,36,37
 501 -27 501 -27 381 20 c 128,-1,38
 261 67 261 67 186 153.5 c 128,-1,39
 111 240 111 240 73.5 357 c 128,-1,40
 36 474 36 474 36 619 c 0,21,22
EndSplineSet
Colour: ffffff
EndChar

StartChar: Oslash
Encoding: 216 216 38
Width: 1355
VWidth: 0
Flags: MW
LayerCount: 2
Back
SplineSet
66.0283 44 m 5,0,-1
 271.028 270 l 1,1,-1
 444.028 302 l 1,2,-1
 1059.03 1058 l 1,3,-1
 1077.03 1158 l 1,4,-1
 1209.03 1282 l 1,5,-1
 1452.03 1231 l 1,6,-1
 1213.03 987 l 1,7,-1
 1100.03 968 l 1,8,-1
 486.028 203 l 1,9,-1
 415.028 96 l 1,10,-1
 312.028 -19 l 1,11,-1
 66.0283 44 l 5,0,-1
494.028 671 m 0,12,13
 494.028 636.533 494.028 636.533 497.189 596.992 c 0
 500.35 557.451 500.35 557.451 509.112 507.09 c 0
 517.873 456.729 517.873 456.729 531.352 409.971 c 0
 544.832 363.213 544.832 363.213 567.642 317.498 c 0
 590.452 271.783 590.452 271.783 619.393 238.135 c 0
 648.334 204.486 648.334 204.486 690.336 183.743 c 0
 732.338 163 732.338 163 782.028 163 c 0,14,15
 912.536 163 912.536 163 978.283 262.458 c 0
 1044.03 361.915 1044.03 361.915 1044.03 573 c 0,16,17
 1044.03 608.936 1044.03 608.936 1041.34 648.442 c 0
 1038.65 687.949 1038.65 687.949 1030.44 740.278 c 0
 1022.24 792.606 1022.24 792.606 1009.31 840.069 c 0
 996.374 887.532 996.374 887.532 973.628 934.931 c 0
 950.883 982.329 950.883 982.329 921.512 1016.72 c 0
 892.142 1051.12 892.142 1051.12 848.659 1072.56 c 0
 805.177 1094 805.177 1094 753.028 1094 c 0,18,19
 682.995 1094 682.995 1094 632.606 1065.2 c 0
 582.217 1036.4 582.217 1036.4 552.075 980.299 c 0
 521.934 924.197 521.934 924.197 507.981 848.076 c 0
 494.028 771.954 494.028 771.954 494.028 671 c 0,12,13
46.0283 619 m 1,20,21
 46.0283 762.759 46.0283 762.759 98.0325 882.882 c 0
 150.037 1003 150.037 1003 245.836 1088.48 c 0
 341.636 1173.95 341.636 1173.95 483.532 1221.48 c 0
 625.428 1269 625.428 1269 799.028 1269 c 0,22,23
 926.303 1269 926.303 1269 1032.04 1247.05 c 0
 1137.77 1225.1 1137.77 1225.1 1227.15 1175.75 c 0
 1316.53 1126.41 1316.53 1126.41 1377.99 1051.13 c 0
 1439.45 975.848 1439.45 975.848 1473.74 864.872 c 0
 1508.03 753.895 1508.03 753.895 1508.03 613 c 0,24,25
 1508.03 490.469 1508.03 490.469 1468.84 386.648 c 0
 1429.65 282.826 1429.65 282.826 1359.04 207.24 c 0
 1288.43 131.654 1288.43 131.654 1191.22 78.5196 c 0
 1094.01 25.3848 1094.01 25.3848 977.021 -0.807623 c 0
 860.029 -27 860.029 -27 729.028 -27 c 0,26,27
 556.484 -27 556.484 -27 424.351 20.1802 c 0
 292.219 67.3604 292.219 67.3604 209.719 153.82 c 0
 127.22 240.28 127.22 240.28 86.0754 357.43 c 0
 44.9312 474.581 44.9312 474.581 46.0283 619 c 1,20,21
EndSplineSet
Fore
SplineSet
36 619 m 0,0,1
 36 763 36 763 82 883 c 128,-1,2
 128 1003 128 1003 212 1088.5 c 128,-1,3
 296 1174 296 1174 421 1221.5 c 128,-1,4
 546 1269 546 1269 699 1269 c 0,5,6
 894 1269 894 1269 1030 1201 c 1,7,-1
 1097 1262 l 1,8,-1
 1340 1211 l 1,9,-1
 1194 1065 l 1,10,11
 1318 902 1318 902 1318 613 c 0,12,13
 1318 460 1318 460 1267 337.5 c 128,-1,14
 1216 215 1216 215 1126.5 136 c 128,-1,15
 1037 57 1037 57 917.5 15 c 128,-1,16
 798 -27 798 -27 659 -27 c 0,17,18
 438 -27 438 -27 290 66 c 1,19,-1
 232 1 l 1,20,-1
 -14 64 l 1,21,-1
 133 226 l 1,22,23
 36 383 36 383 36 619 c 0,0,1
501 344 m 1,24,25
 573 163 573 163 712 163 c 0,26,27
 904 163 904 163 904 573 c 0,28,29
 904 704 904 704 878 823 c 1,30,-1
 501 344 l 1,24,25
468 453 m 1,31,-1
 847 927 l 1,32,33
 781 1094 781 1094 653 1094 c 0,34,35
 543 1094 543 1094 493.5 985.5 c 128,-1,36
 444 877 444 877 444 671 c 0,37,38
 444 562 444 562 468 453 c 1,31,-1
EndSplineSet
Colour: ffffff
EndChar

StartChar: Otilde
Encoding: 213 213 39
Width: 1355
VWidth: 0
Flags: MW
LayerCount: 2
Fore
SplineSet
350 1319 m 1,0,1
 352 1399 352 1399 368.5 1455.5 c 128,-1,2
 385 1512 385 1512 412 1543 c 128,-1,3
 439 1574 439 1574 478 1586.5 c 128,-1,4
 517 1599 517 1599 560 1595.5 c 128,-1,5
 603 1592 603 1592 655 1576 c 2,6,-1
 725 1554 l 2,7,8
 792 1532 792 1532 827 1542.5 c 128,-1,9
 862 1553 862 1553 876 1604 c 1,10,-1
 991 1593 l 1,11,12
 981 1407 981 1407 908.5 1349 c 128,-1,13
 836 1291 836 1291 697 1334 c 2,14,-1
 631 1354 l 1,15,16
 544 1378 544 1378 514.5 1368 c 128,-1,17
 485 1358 485 1358 467 1308 c 1,18,-1
 350 1319 l 1,0,1
444 671 m 0,19,20
 444 620 444 620 450 562 c 128,-1,21
 456 504 456 504 474 430.5 c 128,-1,22
 492 357 492 357 520.5 299.5 c 128,-1,23
 549 242 549 242 598.5 202.5 c 128,-1,24
 648 163 648 163 712 163 c 0,25,26
 904 163 904 163 904 573 c 0,27,28
 904 626 904 626 899 684.5 c 128,-1,29
 894 743 894 743 878 819 c 128,-1,30
 862 895 862 895 836 953.5 c 128,-1,31
 810 1012 810 1012 762.5 1053 c 128,-1,32
 715 1094 715 1094 653 1094 c 0,33,34
 543 1094 543 1094 493.5 985.5 c 128,-1,35
 444 877 444 877 444 671 c 0,19,20
36 619 m 0,36,37
 36 763 36 763 82 883 c 128,-1,38
 128 1003 128 1003 212 1088.5 c 128,-1,39
 296 1174 296 1174 421 1221.5 c 128,-1,40
 546 1269 546 1269 699 1269 c 0,41,42
 839 1269 839 1269 949 1233 c 128,-1,43
 1059 1197 1059 1197 1143.5 1121 c 128,-1,44
 1228 1045 1228 1045 1273 916.5 c 128,-1,45
 1318 788 1318 788 1318 613 c 0,46,47
 1318 460 1318 460 1267 337.5 c 128,-1,48
 1216 215 1216 215 1126.5 136 c 128,-1,49
 1037 57 1037 57 917.5 15 c 128,-1,50
 798 -27 798 -27 659 -27 c 0,51,52
 501 -27 501 -27 381 20 c 128,-1,53
 261 67 261 67 186 153.5 c 128,-1,54
 111 240 111 240 73.5 357 c 128,-1,55
 36 474 36 474 36 619 c 0,36,37
EndSplineSet
Colour: ffffff
EndChar

StartChar: P
Encoding: 80 80 40
Width: 1265
VWidth: 0
Flags: MW
LayerCount: 2
Fore
SplineSet
34 0 m 1,0,-1
 56 138 l 1,1,-1
 243 217 l 1,2,-1
 243 1008 l 1,3,-1
 53 1052 l 1,4,-1
 66 1211 l 1,5,6
 250 1241 250 1241 379.5 1254 c 128,-1,7
 509 1267 509 1267 681 1267 c 0,8,9
 811 1267 811 1267 907.5 1246.5 c 128,-1,10
 1004 1226 1004 1226 1078.5 1180 c 128,-1,11
 1153 1134 1153 1134 1191 1053 c 128,-1,12
 1229 972 1229 972 1229 858 c 0,13,14
 1229 674 1229 674 1090.5 548.5 c 128,-1,15
 952 423 952 423 732 423 c 0,16,17
 698 423 698 423 651 428 c 1,18,-1
 619 602 l 1,19,-1
 640 602 l 2,20,21
 748 602 748 602 803.5 656 c 128,-1,22
 859 710 859 710 859 800 c 0,23,24
 859 910 859 910 809 982 c 128,-1,25
 759 1054 759 1054 664 1054 c 0,26,27
 637 1054 637 1054 597 1047 c 1,28,-1
 597 233 l 1,29,-1
 848 164 l 1,30,-1
 824 0 l 1,31,-1
 34 0 l 1,0,-1
EndSplineSet
Colour: ffffff
EndChar

StartChar: Q
Encoding: 81 81 41
Width: 1384
VWidth: 0
Flags: MW
LayerCount: 2
Fore
SplineSet
431 681 m 0,0,1
 431 455 431 455 515 314.5 c 128,-1,2
 599 174 599 174 765 147 c 1,3,4
 865 206 865 206 901 313.5 c 128,-1,5
 937 421 937 421 937 593 c 0,6,7
 937 642 937 642 932 692 c 128,-1,8
 927 742 927 742 915 801 c 128,-1,9
 903 860 903 860 880 910 c 128,-1,10
 857 960 857 960 825 1002.5 c 128,-1,11
 793 1045 793 1045 743.5 1069.5 c 128,-1,12
 694 1094 694 1094 633 1094 c 0,13,14
 431 1094 431 1094 431 681 c 0,0,1
36 609 m 0,15,16
 36 800 36 800 117.5 950 c 128,-1,17
 199 1100 199 1100 348.5 1184.5 c 128,-1,18
 498 1269 498 1269 691 1269 c 0,19,20
 810 1269 810 1269 909 1246.5 c 128,-1,21
 1008 1224 1008 1224 1090 1176 c 128,-1,22
 1172 1128 1172 1128 1228.5 1055 c 128,-1,23
 1285 982 1285 982 1316 878 c 128,-1,24
 1347 774 1347 774 1347 643 c 0,25,26
 1347 488 1347 488 1287 355 c 128,-1,27
 1227 222 1227 222 1134 138 c 128,-1,28
 1041 54 1041 54 929 16 c 1,29,30
 994 -133 994 -133 1274 -200 c 1,31,-1
 1253 -335 l 1,32,33
 1134 -373 1134 -373 1022 -373 c 0,34,35
 942 -373 942 -373 874.5 -353 c 128,-1,36
 807 -333 807 -333 755.5 -292.5 c 128,-1,37
 704 -252 704 -252 678 -183.5 c 128,-1,38
 652 -115 652 -115 660 -26 c 1,39,40
 643 -27 643 -27 621 -27 c 0,41,42
 343 -27 343 -27 189.5 145.5 c 128,-1,43
 36 318 36 318 36 609 c 0,15,16
EndSplineSet
Colour: ffffff
EndChar

StartChar: R
Encoding: 82 82 42
Width: 1485
VWidth: 0
Flags: MW
LayerCount: 2
Back
SplineSet
7 1094 m 5,0,-1
 39 1244 l 1,1,-1
 593 1244 l 1,2,-1
 592 1094 l 1,3,-1
 592 1000 l 1,4,-1
 592 240 l 1,5,-1
 787 148 l 1,6,-1
 775 0 l 1,7,-1
 10 0 l 1,8,-1
 26 138 l 1,9,-1
 228 241 l 1,10,-1
 228 993 l 1,11,-1
 7 1094 l 5,0,-1
627 665 m 5,12,13
 653 698 653 698 692 750 c 2,14,-1
 877 1003 l 1,15,-1
 890 1082 l 1,16,-1
 917 1244 l 1,17,-1
 1435 1244 l 1,18,-1
 1405 1094 l 1,19,-1
 1184 1000 l 1,20,-1
 929 670 l 1,21,-1
 1107 460 l 2,22,23
 1214 333 1214 333 1294 261.5 c 0
 1374 190 1374 190 1459 146 c 2,24,-1
 1484 133 l 1,25,-1
 1452 2 l 1,26,27
 1340.2 -21.5566 1340.2 -21.5566 1258.09 -21.5566 c 0,28,29
 1162.95 -21.5566 1162.95 -21.5566 1088.39 10.4289 c 0
 1013.84 42.4144 1013.84 42.4144 935.998 122.537 c 0
 858.16 202.659 858.16 202.659 767 346 c 2,30,-1
 622 574 l 1,31,-1
 627 665 l 5,12,13
EndSplineSet
Fore
SplineSet
613 648 m 1,0,-1
 816 648 l 1,1,2
 885 719 885 719 885 860 c 0,3,4
 885 949 885 949 818.5 1012 c 128,-1,5
 752 1075 752 1075 646 1075 c 0,6,7
 624 1075 624 1075 613 1074 c 1,8,-1
 613 648 l 1,0,-1
34 0 m 1,9,-1
 53 138 l 1,10,-1
 243 217 l 1,11,-1
 243 996 l 1,12,-1
 51 1043 l 1,13,-1
 63 1203 l 1,14,15
 318 1255 318 1255 670 1255 c 0,16,17
 972 1255 972 1255 1119 1175.5 c 128,-1,18
 1266 1096 1266 1096 1266 908 c 0,19,20
 1266 783 1266 783 1200.5 698.5 c 128,-1,21
 1135 614 1135 614 1032 572 c 1,22,-1
 1032 571 l 1,23,-1
 1135 420 l 2,24,25
 1204 319 1204 319 1266 258.5 c 128,-1,26
 1328 198 1328 198 1411 152 c 1,27,-1
 1450 133 l 1,28,-1
 1419 2 l 1,29,30
 1358 -27 1358 -27 1235 -27 c 0,31,32
 908 -27 908 -27 790 388 c 2,33,-1
 767 469 l 1,34,-1
 613 469 l 1,35,-1
 613 209 l 1,36,-1
 766 155 l 1,37,-1
 754 0 l 1,38,-1
 34 0 l 1,9,-1
EndSplineSet
Colour: ffffff
EndChar

StartChar: S
Encoding: 83 83 43
Width: 1008
VWidth: 0
Flags: MW
LayerCount: 2
Back
SplineSet
34 66 m 5,0,-1
 68 438 l 1,1,-1
 245 409 l 1,2,-1
 287 222 l 1,3,4
 315 191 315 191 374.5 173.5 c 0
 434 156 434 156 498 156 c 0,5,6
 562.792 156 562.792 156 611.749 191.389 c 0
 660.706 226.778 660.706 226.778 660.706 270.8 c 0,7,8
 660.706 305.862 660.706 305.862 633.151 336.193 c 0
 605.596 366.523 605.596 366.523 559.888 390.853 c 0
 514.18 415.184 514.18 415.184 457.999 439.458 c 0
 401.818 463.733 401.818 463.733 341.485 492.71 c 0
 281.151 521.687 281.151 521.687 227.633 554.884 c 0
 174.114 588.081 174.114 588.081 130.444 636.682 c 0
 86.7736 685.283 86.7736 685.283 67 742.781 c 0,9,10
 45.1339 806.363 45.1339 806.363 45.1339 867.288 c 0,11,12
 45.1339 938.022 45.1339 938.022 74.2936 1002.07 c 0
 103.453 1066.12 103.453 1066.12 152.591 1113.33 c 0
 201.728 1160.55 201.728 1160.55 264.429 1195.56 c 0
 327.129 1230.57 327.129 1230.57 396.097 1248.28 c 0
 465.066 1266 465.066 1266 532 1266 c 0,13,14
 621 1266 621 1266 740 1241.5 c 0
 859 1217 859 1217 896 1186 c 1,15,16
 868 824 l 1,17,-1
 695 854 l 1,18,-1
 656 1017 l 1,19,20
 630 1057 630 1057 573 1081.5 c 0
 516 1106 516 1106 460 1106 c 0,21,22
 395 1106 395 1106 360 1075 c 0
 325 1044 325 1044 325 990 c 0,23,24
 325 959 325 959 353 929.5 c 0
 381 900 381 900 426.5 876 c 0
 472 852 472 852 530 823.5 c 0
 588 795 588 795 649 767.5 c 0
 710 740 710 740 768 701.5 c 0
 826 663 826 663 871.5 621 c 0
 917 579 917 579 945 519 c 0
 973 459 973 459 973 391 c 0,25,26
 973 299 973 299 936.5 225 c 0
 900 151 900 151 844.5 106 c 0
 789 61 789 61 719 31 c 0
 649 1 649 1 586 -11 c 0
 523 -23 523 -23 466 -23 c 0,27,28
 306 -23 306 -23 190 2 c 0
 74 27 74 27 34 66 c 5,0,-1
EndSplineSet
Fore
SplineSet
34 66 m 1,0,-1
 68 438 l 1,1,-1
 245 409 l 1,2,-1
 287 222 l 1,3,4
 315 191 315 191 374.5 173.5 c 128,-1,5
 434 156 434 156 498 156 c 0,6,7
 563 156 563 156 612 191.5 c 128,-1,8
 661 227 661 227 661 271 c 0,9,10
 661 309 661 309 627 341.5 c 128,-1,11
 593 374 593 374 538.5 400.5 c 128,-1,12
 484 427 484 427 418.5 455.5 c 128,-1,13
 353 484 353 484 287.5 520 c 128,-1,14
 222 556 222 556 167.5 600 c 128,-1,15
 113 644 113 644 79 710 c 128,-1,16
 45 776 45 776 45 857 c 0,17,18
 45 1041 45 1041 184 1153.5 c 128,-1,19
 323 1266 323 1266 532 1266 c 0,20,21
 621 1266 621 1266 740 1241.5 c 128,-1,22
 859 1217 859 1217 896 1186 c 1,23,-1
 868 824 l 1,24,-1
 695 854 l 1,25,-1
 656 1017 l 1,26,27
 630 1057 630 1057 573 1081.5 c 128,-1,28
 516 1106 516 1106 460 1106 c 0,29,30
 395 1106 395 1106 360 1075 c 128,-1,31
 325 1044 325 1044 325 990 c 0,32,33
 325 962 325 962 347 936 c 128,-1,34
 369 910 369 910 406.5 887.5 c 128,-1,35
 444 865 444 865 493 841.5 c 128,-1,36
 542 818 542 818 595.5 793 c 128,-1,37
 649 768 649 768 702.5 740 c 128,-1,38
 756 712 756 712 805 676.5 c 128,-1,39
 854 641 854 641 891.5 600.5 c 128,-1,40
 929 560 929 560 951 506 c 128,-1,41
 973 452 973 452 973 391 c 0,42,43
 973 299 973 299 936.5 225 c 128,-1,44
 900 151 900 151 844.5 106 c 128,-1,45
 789 61 789 61 718.5 30.5 c 128,-1,46
 648 0 648 0 585.5 -11.5 c 128,-1,47
 523 -23 523 -23 466 -23 c 0,48,49
 306 -23 306 -23 190 2 c 128,-1,50
 74 27 74 27 34 66 c 1,0,-1
EndSplineSet
Colour: ffffff
EndChar

StartChar: T
Encoding: 84 84 44
Width: 1297
VWidth: 0
Flags: MW
LayerCount: 2
Back
SplineSet
123 1244 m 5,0,-1
 1234 1244 l 1,1,-1
 1200 906 l 1,2,-1
 1105 921 l 1,3,-1
 1067 1152 l 1,4,-1
 762 1152 l 1,5,-1
 762 114 l 1,6,-1
 947 80 l 1,7,-1
 933 0 l 1,8,-1
 394 0 l 1,9,-1
 401 74 l 1,10,-1
 570 121 l 1,11,-1
 570 1152 l 1,12,-1
 275 1152 l 1,13,-1
 222 909 l 1,14,-1
 131 922 l 1,15,-1
 123 1244 l 5,0,-1
EndSplineSet
Fore
SplineSet
37 1244 m 1,0,-1
 1261 1244 l 1,1,-1
 1229 786 l 1,2,-1
 1046 817 l 1,3,-1
 982 1072 l 1,4,-1
 818 1072 l 1,5,-1
 818 208 l 1,6,-1
 1030 153 l 1,7,-1
 1014 0 l 1,8,-1
 257 0 l 1,9,-1
 270 140 l 1,10,-1
 457 209 l 1,11,-1
 457 1072 l 1,12,-1
 297 1072 l 1,13,-1
 210 776 l 1,14,-1
 40 802 l 1,15,-1
 37 1244 l 1,0,-1
EndSplineSet
Colour: ffffff
EndChar

StartChar: Thorn
Encoding: 222 222 45
Width: 1281
VWidth: 0
Flags: MW
LayerCount: 2
Fore
SplineSet
50 1094 m 1,0,-1
 70 1244 l 1,1,-1
 797 1244 l 1,2,-1
 781 1084 l 1,3,-1
 602 1017 l 1,4,-1
 602 982 l 1,5,6
 663 993 663 993 721 993 c 0,7,8
 823 993 823 993 896 985.5 c 128,-1,9
 969 978 969 978 1037 956 c 128,-1,10
 1105 934 1105 934 1146 896 c 128,-1,11
 1187 858 1187 858 1211.5 795 c 128,-1,12
 1236 732 1236 732 1236 645 c 0,13,14
 1236 465 1236 465 1099.5 353.5 c 128,-1,15
 963 242 963 242 739 242 c 0,16,17
 705 242 705 242 658 247 c 1,18,-1
 626 421 l 1,19,20
 749 421 749 421 807.5 461 c 128,-1,21
 866 501 866 501 866 597 c 0,22,23
 866 690 866 690 817 740 c 128,-1,24
 768 790 768 790 671 790 c 0,25,26
 644 790 644 790 604 783 c 1,27,-1
 604 222 l 1,28,-1
 782 160 l 1,29,-1
 769 0 l 1,30,-1
 52 0 l 1,31,-1
 62 142 l 1,32,-1
 238 221 l 1,33,-1
 238 1020 l 1,34,-1
 50 1094 l 1,0,-1
EndSplineSet
Colour: ffffff
EndChar

StartChar: U
Encoding: 85 85 46
Width: 1563
VWidth: 0
Flags: MW
LayerCount: 2
Fore
SplineSet
34 1094 m 1,0,-1
 63 1244 l 1,1,-1
 783 1244 l 1,2,-1
 761 1094 l 1,3,-1
 596 1027 l 1,4,-1
 596 501 l 2,5,6
 596 342 596 342 667 267.5 c 128,-1,7
 738 193 738 193 862 193 c 0,8,9
 973 193 973 193 1036 265.5 c 128,-1,10
 1099 338 1099 338 1099 487 c 2,11,-1
 1099 1020 l 1,12,-1
 923 1094 l 1,13,-1
 943 1244 l 1,14,-1
 1528 1244 l 1,15,-1
 1511 1094 l 1,16,-1
 1346 1027 l 1,17,-1
 1342 555 l 1,18,19
 1336 -27 1336 -27 791 -27 c 0,20,21
 732 -27 732 -27 688 -24.5 c 128,-1,22
 644 -22 644 -22 581.5 -11 c 128,-1,23
 519 -0 519 -0 473 19.5 c 128,-1,24
 427 39 427 39 377.5 76 c 128,-1,25
 328 113 328 113 296.5 165 c 128,-1,26
 265 217 265 217 244.5 296 c 128,-1,27
 224 375 224 375 224 474 c 2,28,-1
 224 1020 l 1,29,-1
 34 1094 l 1,0,-1
EndSplineSet
Colour: ffffff
EndChar

StartChar: Uacute
Encoding: 218 218 47
Width: 1563
VWidth: 0
Flags: MW
LayerCount: 2
Fore
SplineSet
665 1336 m 1,0,-1
 810 1641 l 1,1,-1
 1160 1631 l 1,2,-1
 899 1310 l 1,3,-1
 665 1336 l 1,0,-1
34 1094 m 1,4,-1
 63 1244 l 1,5,-1
 783 1244 l 1,6,-1
 761 1094 l 1,7,-1
 596 1027 l 1,8,-1
 596 501 l 2,9,10
 596 342 596 342 667 267.5 c 128,-1,11
 738 193 738 193 862 193 c 0,12,13
 973 193 973 193 1036 265.5 c 128,-1,14
 1099 338 1099 338 1099 487 c 2,15,-1
 1099 1020 l 1,16,-1
 923 1094 l 1,17,-1
 943 1244 l 1,18,-1
 1528 1244 l 1,19,-1
 1511 1094 l 1,20,-1
 1346 1027 l 1,21,-1
 1342 555 l 1,22,23
 1336 -27 1336 -27 791 -27 c 0,24,25
 732 -27 732 -27 688 -24.5 c 128,-1,26
 644 -22 644 -22 581.5 -11 c 128,-1,27
 519 -0 519 -0 473 19.5 c 128,-1,28
 427 39 427 39 377.5 76 c 128,-1,29
 328 113 328 113 296.5 165 c 128,-1,30
 265 217 265 217 244.5 296 c 128,-1,31
 224 375 224 375 224 474 c 2,32,-1
 224 1020 l 1,33,-1
 34 1094 l 1,4,-1
EndSplineSet
Colour: ffffff
EndChar

StartChar: Ucircumflex
Encoding: 219 219 48
Width: 1563
VWidth: 0
Flags: MW
LayerCount: 2
Fore
SplineSet
536 1321 m 1,0,-1
 689 1576 l 1,1,-1
 1014 1576 l 1,2,-1
 1168 1321 l 1,3,-1
 915 1312 l 1,4,-1
 851 1433 l 1,5,-1
 837 1433 l 1,6,-1
 769 1311 l 1,7,-1
 536 1321 l 1,0,-1
34 1094 m 1,8,-1
 63 1244 l 1,9,-1
 783 1244 l 1,10,-1
 761 1094 l 1,11,-1
 596 1027 l 1,12,-1
 596 501 l 2,13,14
 596 342 596 342 667 267.5 c 128,-1,15
 738 193 738 193 862 193 c 0,16,17
 973 193 973 193 1036 265.5 c 128,-1,18
 1099 338 1099 338 1099 487 c 2,19,-1
 1099 1020 l 1,20,-1
 923 1094 l 1,21,-1
 943 1244 l 1,22,-1
 1528 1244 l 1,23,-1
 1511 1094 l 1,24,-1
 1346 1027 l 1,25,-1
 1342 555 l 1,26,27
 1336 -27 1336 -27 791 -27 c 0,28,29
 732 -27 732 -27 688 -24.5 c 128,-1,30
 644 -22 644 -22 581.5 -11 c 128,-1,31
 519 -0 519 -0 473 19.5 c 128,-1,32
 427 39 427 39 377.5 76 c 128,-1,33
 328 113 328 113 296.5 165 c 128,-1,34
 265 217 265 217 244.5 296 c 128,-1,35
 224 375 224 375 224 474 c 2,36,-1
 224 1020 l 1,37,-1
 34 1094 l 1,8,-1
EndSplineSet
Colour: ffffff
EndChar

StartChar: Udieresis
Encoding: 220 220 49
Width: 1563
VWidth: 0
Flags: MW
LayerCount: 2
Fore
SplineSet
563 1418 m 0,0,1
 563 1437 563 1437 569.5 1454.5 c 128,-1,2
 576 1472 576 1472 591 1488.5 c 128,-1,3
 606 1505 606 1505 634 1515 c 128,-1,4
 662 1525 662 1525 701 1525 c 0,5,6
 742 1525 742 1525 771 1515 c 128,-1,7
 800 1505 800 1505 815.5 1489 c 128,-1,8
 831 1473 831 1473 837.5 1456 c 128,-1,9
 844 1439 844 1439 844 1420 c 0,10,11
 844 1311 844 1311 700 1311 c 0,12,13
 563 1311 563 1311 563 1418 c 0,0,1
872 1418 m 0,14,15
 872 1437 872 1437 878.5 1454.5 c 128,-1,16
 885 1472 885 1472 900 1488.5 c 128,-1,17
 915 1505 915 1505 943 1515 c 128,-1,18
 971 1525 971 1525 1010 1525 c 0,19,20
 1051 1525 1051 1525 1080 1515 c 128,-1,21
 1109 1505 1109 1505 1124.5 1489 c 128,-1,22
 1140 1473 1140 1473 1146.5 1456 c 128,-1,23
 1153 1439 1153 1439 1153 1420 c 0,24,25
 1153 1311 1153 1311 1009 1311 c 0,26,27
 872 1311 872 1311 872 1418 c 0,14,15
34 1094 m 1,28,-1
 63 1244 l 1,29,-1
 783 1244 l 1,30,-1
 761 1094 l 1,31,-1
 596 1027 l 1,32,-1
 596 501 l 2,33,34
 596 342 596 342 667 267.5 c 128,-1,35
 738 193 738 193 862 193 c 0,36,37
 973 193 973 193 1036 265.5 c 128,-1,38
 1099 338 1099 338 1099 487 c 2,39,-1
 1099 1020 l 1,40,-1
 923 1094 l 1,41,-1
 943 1244 l 1,42,-1
 1528 1244 l 1,43,-1
 1511 1094 l 1,44,-1
 1346 1027 l 1,45,-1
 1342 555 l 1,46,47
 1336 -27 1336 -27 791 -27 c 0,48,49
 732 -27 732 -27 688 -24.5 c 128,-1,50
 644 -22 644 -22 581.5 -11 c 128,-1,51
 519 -0 519 -0 473 19.5 c 128,-1,52
 427 39 427 39 377.5 76 c 128,-1,53
 328 113 328 113 296.5 165 c 128,-1,54
 265 217 265 217 244.5 296 c 128,-1,55
 224 375 224 375 224 474 c 2,56,-1
 224 1020 l 1,57,-1
 34 1094 l 1,28,-1
EndSplineSet
Colour: ffffff
EndChar

StartChar: Ugrave
Encoding: 217 217 50
Width: 1563
VWidth: 0
Flags: MW
LayerCount: 2
Fore
SplineSet
503 1632 m 1,0,-1
 853 1642 l 1,1,-1
 998 1337 l 1,2,-1
 764 1311 l 1,3,-1
 503 1632 l 1,0,-1
34 1094 m 1,4,-1
 63 1244 l 1,5,-1
 783 1244 l 1,6,-1
 761 1094 l 1,7,-1
 596 1027 l 1,8,-1
 596 501 l 2,9,10
 596 342 596 342 667 267.5 c 128,-1,11
 738 193 738 193 862 193 c 0,12,13
 973 193 973 193 1036 265.5 c 128,-1,14
 1099 338 1099 338 1099 487 c 2,15,-1
 1099 1020 l 1,16,-1
 923 1094 l 1,17,-1
 943 1244 l 1,18,-1
 1528 1244 l 1,19,-1
 1511 1094 l 1,20,-1
 1346 1027 l 1,21,-1
 1342 555 l 1,22,23
 1336 -27 1336 -27 791 -27 c 0,24,25
 732 -27 732 -27 688 -24.5 c 128,-1,26
 644 -22 644 -22 581.5 -11 c 128,-1,27
 519 -0 519 -0 473 19.5 c 128,-1,28
 427 39 427 39 377.5 76 c 128,-1,29
 328 113 328 113 296.5 165 c 128,-1,30
 265 217 265 217 244.5 296 c 128,-1,31
 224 375 224 375 224 474 c 2,32,-1
 224 1020 l 1,33,-1
 34 1094 l 1,4,-1
EndSplineSet
Colour: ffffff
EndChar

StartChar: V
Encoding: 86 86 51
Width: 1539
VWidth: 0
Flags: MW
LayerCount: 2
Fore
SplineSet
34 1087 m 1,0,-1
 54 1244 l 1,1,-1
 790 1244 l 1,2,-1
 767 1087 l 1,3,-1
 615 1027 l 1,4,-1
 850 391 l 1,5,-1
 1078 1025 l 1,6,-1
 924 1087 l 1,7,-1
 939 1244 l 1,8,-1
 1504 1244 l 1,9,-1
 1489 1087 l 1,10,-1
 1355 1027 l 1,11,-1
 931 25 l 1,12,-1
 578 -33 l 1,13,-1
 179 1025 l 1,14,-1
 34 1087 l 1,0,-1
EndSplineSet
Colour: ffffff
EndChar

StartChar: W
Encoding: 87 87 52
Width: 2106
VWidth: 0
Flags: MW
LayerCount: 2
Fore
SplineSet
34 1089 m 1,0,-1
 45 1244 l 1,1,-1
 800 1244 l 1,2,-1
 764 1081 l 1,3,-1
 611 1027 l 1,4,-1
 765 486 l 1,5,-1
 940 1200 l 1,6,-1
 1279 1240 l 1,7,-1
 1485 502 l 1,8,-1
 1638 1030 l 1,9,-1
 1471 1084 l 1,10,-1
 1492 1244 l 1,11,-1
 2071 1244 l 1,12,-1
 2046 1087 l 1,13,-1
 1914 1033 l 1,14,-1
 1579 28 l 1,15,-1
 1246 -33 l 1,16,-1
 1039 721 l 1,17,-1
 861 28 l 1,18,-1
 515 -34 l 1,19,-1
 210 1023 l 1,20,-1
 34 1089 l 1,0,-1
EndSplineSet
Colour: ffffff
EndChar

StartChar: X
Encoding: 88 88 53
Width: 1413
VWidth: 0
Flags: MW
LayerCount: 2
Back
SplineSet
1313 235 m 13,0,-1
 720 1000 l 1,1,-1
 781 1076 l 1,2,-1
 804 1244 l 1,3,-1
 210 1244 l 1,4,-1
 182 1076 l 1,5,-1
 321 1002 l 1,6,-1
 905 241 l 1,7,-1
 825 166 l 1,8,-1
 796 0 l 1,9,-1
 1420 0 l 1,10,-1
 1446 169 l 1,11,-1
 1313 235 l 13,0,-1
306 233 m 13,12,-1
 1009 1014 l 1,13,-1
 975 1084 l 1,14,-1
 1002 1244 l 1,15,-1
 1440 1244 l 1,16,-1
 1416 1087 l 1,17,-1
 1286 1015 l 1,18,-1
 600 232 l 1,19,-1
 653 167 l 1,20,-1
 622 0 l 1,21,-1
 152 0 l 1,22,-1
 177 157 l 1,23,-1
 306 233 l 13,12,-1
EndSplineSet
Fore
SplineSet
34 0 m 1,0,-1
 59 157 l 1,1,-1
 188 233 l 1,2,-1
 514 591 l 1,3,-1
 173 1012 l 1,4,-1
 47 1066 l 1,5,-1
 75 1244 l 1,6,-1
 720 1244 l 1,7,-1
 693 1076 l 1,8,-1
 602 1010 l 1,9,-1
 782 790 l 1,10,-1
 921 1014 l 1,11,-1
 807 1084 l 1,12,-1
 834 1244 l 1,13,-1
 1342 1244 l 1,14,-1
 1318 1087 l 1,15,-1
 1188 1015 l 1,16,-1
 903 645 l 1,17,-1
 1275 225 l 1,18,-1
 1378 179 l 1,19,-1
 1352 0 l 1,20,-1
 708 0 l 1,21,-1
 737 166 l 1,22,-1
 827 231 l 1,23,-1
 653 436 l 1,24,-1
 482 232 l 1,25,-1
 625 167 l 1,26,-1
 594 0 l 1,27,-1
 34 0 l 1,0,-1
EndSplineSet
Colour: ffffff
EndChar

StartChar: Y
Encoding: 89 89 54
Width: 1357
VWidth: 0
Flags: MW
LayerCount: 2
Fore
SplineSet
34 1089 m 1,0,-1
 66 1245 l 1,1,-1
 727 1245 l 1,2,-1
 699 1089 l 1,3,-1
 624 1028 l 1,4,-1
 773 739 l 1,5,-1
 924 1025 l 1,6,-1
 825 1087 l 1,7,-1
 849 1244 l 1,8,-1
 1322 1244 l 1,9,-1
 1298 1087 l 1,10,-1
 1184 1027 l 1,11,-1
 868 498 l 1,12,-1
 868 221 l 1,13,-1
 1035 140 l 1,14,-1
 1022 0 l 1,15,-1
 320 0 l 1,16,-1
 338 138 l 1,17,-1
 497 217 l 1,18,-1
 497 485 l 1,19,-1
 168 1027 l 1,20,-1
 34 1089 l 1,0,-1
EndSplineSet
Colour: ffffff
EndChar

StartChar: Yacute
Encoding: 221 221 55
Width: 1357
VWidth: 0
Flags: MW
LayerCount: 2
Fore
SplineSet
621 1336 m 1,0,-1
 766 1641 l 1,1,-1
 1116 1631 l 1,2,-1
 855 1310 l 1,3,-1
 621 1336 l 1,0,-1
34 1089 m 1,4,-1
 66 1245 l 1,5,-1
 727 1245 l 1,6,-1
 699 1089 l 1,7,-1
 624 1028 l 1,8,-1
 773 739 l 1,9,-1
 924 1025 l 1,10,-1
 825 1087 l 1,11,-1
 849 1244 l 1,12,-1
 1322 1244 l 1,13,-1
 1298 1087 l 1,14,-1
 1184 1027 l 1,15,-1
 868 498 l 1,16,-1
 868 221 l 1,17,-1
 1035 140 l 1,18,-1
 1022 0 l 1,19,-1
 320 0 l 1,20,-1
 338 138 l 1,21,-1
 497 217 l 1,22,-1
 497 485 l 1,23,-1
 168 1027 l 1,24,-1
 34 1089 l 1,4,-1
EndSplineSet
Colour: ffffff
EndChar

StartChar: Z
Encoding: 90 90 56
Width: 1142
VWidth: 0
Flags: MW
LayerCount: 2
Fore
SplineSet
34 236 m 1,0,-1
 665 1069 l 1,1,-1
 325 1069 l 1,2,-1
 262 812 l 1,3,-1
 62 844 l 1,4,-1
 73 1244 l 1,5,-1
 1104 1244 l 1,6,-1
 1096 1089 l 1,7,-1
 411 206 l 1,8,-1
 769 176 l 1,9,-1
 956 457 l 1,10,-1
 1106 434 l 1,11,-1
 1045 0 l 1,12,-1
 47 0 l 1,13,-1
 34 236 l 1,0,-1
EndSplineSet
Colour: ffffff
EndChar

StartChar: a
Encoding: 97 97 57
Width: 1176
VWidth: 0
Flags: MW
LayerCount: 2
Back
SplineSet
0 188 m 4,0,1
 0 328 0 328 122 420.5 c 0
 244 513 244 513 458 512 c 1,2,-1
 458 607 l 2,3,4
 458 671 458 671 421.5 708.5 c 0
 385 746 385 746 343 746 c 0,5,6
 301 746 301 746 279 707 c 0
 257 668 257 668 239 568 c 1,7,8
 164 556 164 556 99 594 c 0
 34 632 34 632 34 713 c 0,9,10
 34 775 34 775 117 831.5 c 0
 200 888 200 888 302.5 918 c 0
 405 948 405 948 481 948 c 0,11,12
 565 948 565 948 620.5 930.5 c 0
 676 913 676 913 708 873.5 c 0
 740 834 740 834 753 779 c 0
 766 724 766 724 766 641 c 2,13,-1
 766 374 l 2,14,15
 766 299 766 299 792.5 269.5 c 0
 819 240 819 240 904 213 c 2,16,-1
 932 204 l 1,17,-1
 907 34 l 1,18,19
 843 4 843 4 791 -10 c 0
 739 -24 739 -24 671 -24 c 0,20,21
 519 -24 519 -24 469 106 c 2,22,-1
 464 119 l 1,23,-1
 451 125 l 1,24,25
 428 65 428 65 354 21 c 0
 280 -23 280 -23 201 -23 c 0,26,27
 117 -23 117 -23 58.5 31 c 0
 0 85 0 85 0 188 c 4,0,1
458 234 m 5,28,-1
 458 398 l 1,29,30
 374 388 374 388 335 353 c 0
 296 318 296 318 296 279 c 0,31,32
 296 248 296 248 317.5 226.5 c 0
 339 205 339 205 376 205 c 0,33,34
 417 205 417 205 458 234 c 5,28,-1
EndSplineSet
Fore
SplineSet
33 0 m 1,0,-1
 52 138 l 1,1,-1
 153 241 l 1,2,-1
 441 934 l 1,3,-1
 778 999 l 1,4,-1
 1055 238 l 1,5,-1
 1143 145 l 1,6,-1
 1131 -2 l 1,7,-1
 579 -2 l 1,8,-1
 595 136 l 1,9,-1
 671 240 l 1,10,-1
 640 342 l 1,11,-1
 419 342 l 1,12,-1
 384 240 l 1,13,-1
 483 148 l 1,14,-1
 468 0 l 1,15,-1
 33 0 l 1,0,-1
460 461 m 1,16,-1
 603 461 l 1,17,-1
 535 682 l 1,18,-1
 460 461 l 1,16,-1
EndSplineSet
Colour: ffffff
EndChar

StartChar: aacute
Encoding: 225 225 58
Width: 1176
VWidth: 0
Flags: MW
LayerCount: 2
Fore
SplineSet
477 1063 m 1,0,-1
 622 1368 l 1,1,-1
 972 1358 l 1,2,-1
 711 1037 l 1,3,-1
 477 1063 l 1,0,-1
33 0 m 1,4,-1
 52 138 l 1,5,-1
 153 241 l 1,6,-1
 441 934 l 1,7,-1
 778 999 l 1,8,-1
 1055 238 l 1,9,-1
 1143 145 l 1,10,-1
 1131 -2 l 1,11,-1
 579 -2 l 1,12,-1
 595 136 l 1,13,-1
 671 240 l 1,14,-1
 640 342 l 1,15,-1
 419 342 l 1,16,-1
 384 240 l 1,17,-1
 483 148 l 1,18,-1
 468 0 l 1,19,-1
 33 0 l 1,4,-1
460 461 m 1,20,-1
 603 461 l 1,21,-1
 535 682 l 1,22,-1
 460 461 l 1,20,-1
EndSplineSet
Colour: ffffff
EndChar

StartChar: acircumflex
Encoding: 226 226 59
Width: 1176
VWidth: 0
Flags: MW
LayerCount: 2
Fore
SplineSet
304 1049 m 1,0,-1
 457 1304 l 1,1,-1
 782 1304 l 1,2,-1
 936 1049 l 1,3,-1
 683 1040 l 1,4,-1
 619 1161 l 1,5,-1
 605 1161 l 1,6,-1
 537 1039 l 1,7,-1
 304 1049 l 1,0,-1
33 0 m 1,8,-1
 52 138 l 1,9,-1
 153 241 l 1,10,-1
 441 934 l 1,11,-1
 778 999 l 1,12,-1
 1055 238 l 1,13,-1
 1143 145 l 1,14,-1
 1131 -2 l 1,15,-1
 579 -2 l 1,16,-1
 595 136 l 1,17,-1
 671 240 l 1,18,-1
 640 342 l 1,19,-1
 419 342 l 1,20,-1
 384 240 l 1,21,-1
 483 148 l 1,22,-1
 468 0 l 1,23,-1
 33 0 l 1,8,-1
460 461 m 1,24,-1
 603 461 l 1,25,-1
 535 682 l 1,26,-1
 460 461 l 1,24,-1
EndSplineSet
Colour: ffffff
EndChar

StartChar: acute
Encoding: 180 180 60
Width: 584
VWidth: 0
Flags: MW
LayerCount: 2
Fore
SplineSet
45 1333 m 1,0,-1
 190 1638 l 1,1,-1
 540 1628 l 1,2,-1
 279 1307 l 1,3,-1
 45 1333 l 1,0,-1
EndSplineSet
Colour: ffffff
EndChar

StartChar: adieresis
Encoding: 228 228 61
Width: 1176
VWidth: 0
Flags: MW
LayerCount: 2
Fore
SplineSet
622 1146 m 0,0,1
 622 1188 622 1188 654.5 1220.5 c 128,-1,2
 687 1253 687 1253 760 1253 c 0,3,4
 837 1253 837 1253 870 1221.5 c 128,-1,5
 903 1190 903 1190 903 1148 c 0,6,7
 903 1039 903 1039 759 1039 c 0,8,9
 622 1039 622 1039 622 1146 c 0,0,1
313 1146 m 0,10,11
 313 1188 313 1188 345.5 1220.5 c 128,-1,12
 378 1253 378 1253 451 1253 c 0,13,14
 528 1253 528 1253 561 1221.5 c 128,-1,15
 594 1190 594 1190 594 1148 c 0,16,17
 594 1039 594 1039 450 1039 c 0,18,19
 313 1039 313 1039 313 1146 c 0,10,11
33 0 m 1,20,-1
 52 138 l 1,21,-1
 153 241 l 1,22,-1
 441 934 l 1,23,-1
 778 999 l 1,24,-1
 1055 238 l 1,25,-1
 1143 145 l 1,26,-1
 1131 -2 l 1,27,-1
 579 -2 l 1,28,-1
 595 136 l 1,29,-1
 671 240 l 1,30,-1
 640 342 l 1,31,-1
 419 342 l 1,32,-1
 384 240 l 1,33,-1
 483 148 l 1,34,-1
 468 0 l 1,35,-1
 33 0 l 1,20,-1
460 461 m 1,36,-1
 603 461 l 1,37,-1
 535 682 l 1,38,-1
 460 461 l 1,36,-1
EndSplineSet
Colour: ffffff
EndChar

StartChar: ae
Encoding: 230 230 62
Width: 1564
VWidth: 0
Flags: MW
LayerCount: 2
Fore
SplineSet
546 473 m 1,0,-1
 733 473 l 1,1,-1
 714 743 l 1,2,-1
 546 473 l 1,0,-1
33 -2 m 1,3,-1
 53 162 l 1,4,-1
 137 237 l 1,5,-1
 499 755 l 1,6,-1
 369 829 l 1,7,-1
 390 979 l 1,8,-1
 1487 979 l 1,9,-1
 1457 611 l 1,10,-1
 1286 637 l 1,11,-1
 1203 807 l 1,12,-1
 1018 807 l 1,13,-1
 1039 550 l 1,14,-1
 1158 566 l 1,15,-1
 1185 569 l 1,16,-1
 1317 586 l 1,17,-1
 1284 380 l 1,18,-1
 1170 396 l 1,19,-1
 1146 400 l 1,20,-1
 1051 414 l 1,21,-1
 1068 203 l 1,22,-1
 1231 180 l 1,23,-1
 1367 378 l 1,24,-1
 1532 361 l 1,25,-1
 1502 0 l 1,26,-1
 625 0 l 1,27,-1
 638 138 l 1,28,-1
 751 217 l 1,29,-1
 742 340 l 1,30,-1
 463 340 l 1,31,-1
 403 243 l 1,32,-1
 534 150 l 1,33,-1
 517 -2 l 1,34,-1
 33 -2 l 1,3,-1
EndSplineSet
Colour: ffffff
EndChar

StartChar: agrave
Encoding: 224 224 63
Width: 1176
VWidth: 0
Flags: MW
LayerCount: 2
Fore
SplineSet
222 1358 m 1,0,-1
 572 1368 l 1,1,-1
 717 1063 l 1,2,-1
 483 1037 l 1,3,-1
 222 1358 l 1,0,-1
33 0 m 1,4,-1
 52 138 l 1,5,-1
 153 241 l 1,6,-1
 441 934 l 1,7,-1
 778 999 l 1,8,-1
 1055 238 l 1,9,-1
 1143 145 l 1,10,-1
 1131 -2 l 1,11,-1
 579 -2 l 1,12,-1
 595 136 l 1,13,-1
 671 240 l 1,14,-1
 640 342 l 1,15,-1
 419 342 l 1,16,-1
 384 240 l 1,17,-1
 483 148 l 1,18,-1
 468 0 l 1,19,-1
 33 0 l 1,4,-1
460 461 m 1,20,-1
 603 461 l 1,21,-1
 535 682 l 1,22,-1
 460 461 l 1,20,-1
EndSplineSet
Colour: ffffff
EndChar

StartChar: ampersand
Encoding: 38 38 64
Width: 1141
VWidth: 0
Flags: MW
LayerCount: 2
Fore
SplineSet
358 397 m 1,0,1
 308 344 308 344 308 277 c 0,2,3
 308 234 308 234 335 200.5 c 128,-1,4
 362 167 362 167 416 167 c 0,5,6
 483 167 483 167 548 203 c 1,7,-1
 358 397 l 1,0,1
647 105 m 1,8,9
 487 -18 487 -18 309 -18 c 0,10,11
 175 -18 175 -18 104 41 c 128,-1,12
 33 100 33 100 33 205 c 0,13,14
 33 246 33 246 47 282.5 c 128,-1,15
 61 319 61 319 80.5 345 c 128,-1,16
 100 371 100 371 135 399 c 128,-1,17
 170 427 170 427 197.5 444.5 c 128,-1,18
 225 462 225 462 269 487 c 1,19,-1
 264 492 l 2,20,21
 140 618 140 618 140 734 c 0,22,23
 140 813 140 813 190.5 874.5 c 128,-1,24
 241 936 241 936 318 966.5 c 128,-1,25
 395 997 395 997 480 997 c 0,26,27
 590 997 590 997 666 943.5 c 128,-1,28
 742 890 742 890 742 808 c 0,29,30
 742 760 742 760 729 719 c 128,-1,31
 716 678 716 678 690.5 646 c 128,-1,32
 665 614 665 614 637 590 c 128,-1,33
 609 566 609 566 571 541 c 1,34,-1
 727 383 l 1,35,36
 748 415 748 415 769 452 c 1,37,-1
 715 519 l 1,38,-1
 740 656 l 1,39,-1
 1108 656 l 1,40,-1
 1086 519 l 1,41,-1
 948 456 l 1,42,43
 887 360 887 360 826 284 c 1,44,-1
 845 264 l 2,45,46
 891 218 891 218 941.5 193 c 128,-1,47
 992 168 992 168 1061 151 c 2,48,-1
 1085 145 l 1,49,-1
 1054 11 l 1,50,51
 1002 -13 1002 -13 889 -13 c 0,52,53
 823 -13 823 -13 766 17.5 c 128,-1,54
 709 48 709 48 647 105 c 1,8,9
477 636 m 1,55,56
 522 692 522 692 522 760 c 0,57,58
 522 814 522 814 494 845 c 128,-1,59
 466 876 466 876 432 876 c 0,60,61
 407 876 407 876 389.5 861 c 128,-1,62
 372 846 372 846 372 819 c 0,63,64
 372 774 372 774 399 731.5 c 128,-1,65
 426 689 426 689 477 636 c 1,55,56
EndSplineSet
Colour: ffffff
EndChar

StartChar: aring
Encoding: 229 229 65
Width: 1176
VWidth: 0
Flags: MW
LayerCount: 2
Fore
SplineSet
538 1201 m 0,0,1
 538 1144 538 1144 606 1144 c 0,2,3
 632 1144 632 1144 652.5 1159 c 128,-1,4
 673 1174 673 1174 673 1201 c 128,-1,5
 673 1228 673 1228 651 1244 c 128,-1,6
 629 1260 629 1260 600 1260 c 0,7,8
 576 1260 576 1260 557 1243 c 128,-1,9
 538 1226 538 1226 538 1201 c 0,0,1
327 1196 m 0,10,11
 327 1272 327 1272 397.5 1320.5 c 128,-1,12
 468 1369 468 1369 611 1369 c 0,13,14
 896 1369 896 1369 896 1205 c 0,15,16
 896 1133 896 1133 823.5 1083.5 c 128,-1,17
 751 1034 751 1034 603 1034 c 0,18,19
 456 1034 456 1034 391.5 1076 c 128,-1,20
 327 1118 327 1118 327 1196 c 0,10,11
33 0 m 1,21,-1
 52 138 l 1,22,-1
 153 241 l 1,23,-1
 441 934 l 1,24,-1
 778 999 l 1,25,-1
 1055 238 l 1,26,-1
 1143 145 l 1,27,-1
 1131 -2 l 1,28,-1
 579 -2 l 1,29,-1
 595 136 l 1,30,-1
 671 240 l 1,31,-1
 640 342 l 1,32,-1
 419 342 l 1,33,-1
 384 240 l 1,34,-1
 483 148 l 1,35,-1
 468 0 l 1,36,-1
 33 0 l 1,21,-1
460 461 m 1,37,-1
 603 461 l 1,38,-1
 535 682 l 1,39,-1
 460 461 l 1,37,-1
EndSplineSet
Colour: ffffff
EndChar

StartChar: asciicircum
Encoding: 94 94 66
Width: 740
VWidth: 0
Flags: MW
LayerCount: 2
Fore
SplineSet
50 825 m 1,0,-1
 291 1237 l 1,1,-1
 435 1250 l 1,2,-1
 690 823 l 1,3,-1
 568 789 l 1,4,-1
 352 963 l 1,5,-1
 341 963 l 1,6,-1
 164 796 l 1,7,-1
 50 825 l 1,0,-1
EndSplineSet
Colour: ffffff
EndChar

StartChar: asciitilde
Encoding: 126 126 67
Width: 1075
VWidth: 0
Flags: MW
LayerCount: 2
Fore
SplineSet
60 282 m 1,0,1
 53 345 53 345 60 408.5 c 128,-1,2
 67 472 67 472 89.5 533.5 c 128,-1,3
 112 595 112 595 152.5 637 c 128,-1,4
 193 679 193 679 253 698 c 128,-1,5
 313 717 313 717 396 696 c 2,6,-1
 738 613 l 2,7,8
 757 609 757 609 775 616.5 c 128,-1,9
 793 624 793 624 805 637.5 c 128,-1,10
 817 651 817 651 826.5 666.5 c 128,-1,11
 836 682 836 682 840 692 c 2,12,-1
 844 702 l 1,13,-1
 1018 684 l 1,14,15
 1017 543 1017 543 975.5 445.5 c 128,-1,16
 934 348 934 348 848.5 306.5 c 128,-1,17
 763 265 763 265 644 296 c 2,18,-1
 329 378 l 2,19,20
 292 388 292 388 269 362 c 128,-1,21
 246 336 246 336 242 304 c 2,22,-1
 238 272 l 1,23,-1
 60 282 l 1,0,1
EndSplineSet
Colour: ffffff
EndChar

StartChar: asterisk
Encoding: 42 42 68
Width: 828
VWidth: 0
Flags: MW
LayerCount: 2
Fore
SplineSet
41 913 m 1,0,-1
 123 1088 l 1,1,-1
 356 993 l 1,2,-1
 301 1300 l 1,3,-1
 490 1275 l 1,4,-1
 464 1005 l 1,5,-1
 744 1175 l 1,6,-1
 781 989 l 1,7,-1
 526 906 l 1,8,-1
 768 714 l 1,9,-1
 597 623 l 1,10,-1
 452 824 l 1,11,-1
 326 548 l 1,12,-1
 187 686 l 1,13,-1
 358 876 l 1,14,-1
 41 913 l 1,0,-1
EndSplineSet
Colour: ffffff
EndChar

StartChar: at
Encoding: 64 64 69
Width: 1554
VWidth: 0
Flags: MW
LayerCount: 2
Fore
SplineSet
674 395 m 0,0,1
 674 294 674 294 727 294 c 0,2,3
 741 294 741 294 782 306 c 1,4,-1
 826 648 l 1,5,6
 824 647 824 647 823.5 647.5 c 128,-1,7
 823 648 823 648 820.5 650 c 128,-1,8
 818 652 818 652 815.5 654 c 128,-1,9
 813 656 813 656 807 657.5 c 128,-1,10
 801 659 801 659 792 659 c 0,11,12
 758 659 758 659 732.5 625.5 c 128,-1,13
 707 592 707 592 695.5 543.5 c 128,-1,14
 684 495 684 495 679 457 c 128,-1,15
 674 419 674 419 674 395 c 0,0,1
53 326 m 0,16,17
 53 434 53 434 92 539 c 128,-1,18
 131 644 131 644 208 734.5 c 128,-1,19
 285 825 285 825 390 894.5 c 128,-1,20
 495 964 495 964 636 1003.5 c 128,-1,21
 777 1043 777 1043 935 1043 c 0,22,23
 1021 1043 1021 1043 1100.5 1029 c 128,-1,24
 1180 1015 1180 1015 1254 982.5 c 128,-1,25
 1328 950 1328 950 1382 902.5 c 128,-1,26
 1436 855 1436 855 1468.5 783 c 128,-1,27
 1501 711 1501 711 1501 622 c 0,28,29
 1501 477 1501 477 1429.5 350 c 128,-1,30
 1358 223 1358 223 1238.5 147.5 c 128,-1,31
 1119 72 1119 72 985 72 c 0,32,33
 949 72 949 72 915 78 c 128,-1,34
 881 84 881 84 848 97.5 c 128,-1,35
 815 111 815 111 795.5 136.5 c 128,-1,36
 776 162 776 162 777 197 c 1,37,-1
 766 197 l 1,38,39
 728 142 728 142 679.5 114 c 128,-1,40
 631 86 631 86 581 86 c 0,41,42
 502 86 502 86 448 153.5 c 128,-1,43
 394 221 394 221 394 342 c 0,44,45
 394 423 394 423 425.5 501 c 128,-1,46
 457 579 457 579 518 646 c 128,-1,47
 579 713 579 713 682.5 754.5 c 128,-1,48
 786 796 786 796 915 796 c 0,49,50
 998 796 998 796 1078 778 c 1,51,-1
 1094 761 l 1,52,-1
 1054 395 l 1,53,54
 1046 332 1046 332 1047 298 c 128,-1,55
 1048 264 1048 264 1057 253.5 c 128,-1,56
 1066 243 1066 243 1088 243 c 0,57,58
 1131 243 1131 243 1166 280 c 128,-1,59
 1201 317 1201 317 1220.5 371.5 c 128,-1,60
 1240 426 1240 426 1250.5 477.5 c 128,-1,61
 1261 529 1261 529 1261 567 c 0,62,63
 1261 896 1261 896 864 894 c 0,64,65
 600 893 600 893 450.5 746 c 128,-1,66
 301 599 301 599 301 377 c 0,67,68
 301 152 301 152 430.5 43.5 c 128,-1,69
 560 -65 560 -65 836 -65 c 0,70,71
 955 -65 955 -65 1043.5 -47 c 128,-1,72
 1132 -29 1132 -29 1197 26 c 1,73,-1
 1242 -84 l 1,74,75
 1157 -149 1157 -149 1029.5 -185 c 128,-1,76
 902 -221 902 -221 762 -221 c 0,77,78
 431 -221 431 -221 242 -71.5 c 128,-1,79
 53 78 53 78 53 326 c 0,16,17
EndSplineSet
Colour: ffffff
EndChar

StartChar: atilde
Encoding: 227 227 70
Width: 1176
VWidth: 0
Flags: MW
LayerCount: 2
Fore
SplineSet
299 1042 m 1,0,1
 301 1122 301 1122 317.5 1178.5 c 128,-1,2
 334 1235 334 1235 361 1266 c 128,-1,3
 388 1297 388 1297 427 1309.5 c 128,-1,4
 466 1322 466 1322 509 1318.5 c 128,-1,5
 552 1315 552 1315 604 1299 c 2,6,-1
 674 1277 l 2,7,8
 741 1255 741 1255 776 1265.5 c 128,-1,9
 811 1276 811 1276 825 1327 c 1,10,-1
 940 1316 l 1,11,12
 930 1130 930 1130 857.5 1072 c 128,-1,13
 785 1014 785 1014 646 1057 c 2,14,-1
 580 1077 l 1,15,16
 493 1101 493 1101 463.5 1091 c 128,-1,17
 434 1081 434 1081 416 1031 c 1,18,-1
 299 1042 l 1,0,1
33 0 m 1,19,-1
 52 138 l 1,20,-1
 153 241 l 1,21,-1
 441 934 l 1,22,-1
 778 999 l 1,23,-1
 1055 238 l 1,24,-1
 1143 145 l 1,25,-1
 1131 -2 l 1,26,-1
 579 -2 l 1,27,-1
 595 136 l 1,28,-1
 671 240 l 1,29,-1
 640 342 l 1,30,-1
 419 342 l 1,31,-1
 384 240 l 1,32,-1
 483 148 l 1,33,-1
 468 0 l 1,34,-1
 33 0 l 1,19,-1
460 461 m 1,35,-1
 603 461 l 1,36,-1
 535 682 l 1,37,-1
 460 461 l 1,35,-1
EndSplineSet
Colour: ffffff
EndChar

StartChar: b
Encoding: 98 98 71
Width: 1148
VWidth: 0
Flags: MW
LayerCount: 2
Back
SplineSet
-184 0 m 1,0,-1
 -167 157 l 1,1,-1
 -25 229 l 1,2,-1
 -25 640 l 1,3,-1
 -167 721 l 1,4,-1
 -140 889 l 1,5,-1
 263 918 l 1,6,-1
 301 879 l 1,7,-1
 278 777 l 1,8,-1
 293 771 l 1,9,10
 368.469 849.75 368.469 849.75 435.821 889.183 c 0
 503.173 928.617 503.173 928.617 582.449 928.617 c 0,11,12
 697.883 928.617 697.883 928.617 762.942 859.476 c 0
 828 790.336 828 790.336 828 641 c 2,13,-1
 828 229 l 1,14,-1
 976 165 l 1,15,-1
 953 0 l 1,16,-1
 517 0 l 1,17,-1
 517 157 l 1,18,-1
 517 229 l 1,19,-1
 517 429 l 2,20,21
 517 522.379 517 522.379 493.633 562.203 c 0
 470.266 602.028 470.266 602.028 422.271 602.028 c 0,22,23
 349.976 602.028 349.976 602.028 293 552 c 1,24,-1
 293 229 l 1,25,-1
 416 166 l 1,26,-1
 388 0 l 1,27,-1
 -184 0 l 1,0,-1
EndSplineSet
Fore
SplineSet
525 542 m 1,0,-1
 679 542 l 1,1,2
 698 559 698 559 711 588.5 c 128,-1,3
 724 618 724 618 724 647 c 0,4,5
 724 722 724 722 692 771 c 128,-1,6
 660 820 660 820 589 820 c 0,7,8
 552 820 552 820 525 815 c 1,9,-1
 525 542 l 1,0,-1
525 186 m 1,10,-1
 597 186 l 2,11,12
 756 186 756 186 756 298 c 0,13,14
 756 360 756 360 710 400.5 c 128,-1,15
 664 441 664 441 581 441 c 2,16,-1
 525 441 l 1,17,-1
 525 186 l 1,10,-1
33 0 m 1,18,-1
 47 138 l 1,19,-1
 153 217 l 1,20,-1
 153 758 l 1,21,-1
 44 802 l 1,22,-1
 54 961 l 1,23,24
 272 997 272 997 581 997 c 0,25,26
 827 997 827 997 948 931 c 128,-1,27
 1069 865 1069 865 1069 741 c 0,28,29
 1069 673 1069 673 1009 610.5 c 128,-1,30
 949 548 949 548 856 535 c 1,31,-1
 856 525 l 1,32,33
 952 522 952 522 1033.5 467.5 c 128,-1,34
 1115 413 1115 413 1115 330 c 0,35,36
 1115 167 1115 167 974 83.5 c 128,-1,37
 833 0 833 0 567 0 c 2,38,-1
 33 0 l 1,18,-1
EndSplineSet
Colour: ffffff
EndChar

StartChar: backslash
Encoding: 92 92 72
Width: 765
VWidth: 0
Flags: MW
LayerCount: 2
Fore
SplineSet
35 1333 m 1,0,-1
 270 1316 l 1,1,-1
 731 -410 l 1,2,-1
 504 -397 l 1,3,-1
 35 1333 l 1,0,-1
EndSplineSet
Colour: ffffff
EndChar

StartChar: bar
Encoding: 124 124 73
Width: 346
VWidth: 0
Flags: MW
LayerCount: 2
Fore
SplineSet
75 -363 m 1,0,-1
 75 1260 l 1,1,-1
 271 1248 l 1,2,-1
 271 -379 l 1,3,-1
 75 -363 l 1,0,-1
EndSplineSet
Colour: ffffff
EndChar

StartChar: braceleft
Encoding: 123 123 74
Width: 771
VWidth: 0
Flags: MW
LayerCount: 2
Fore
SplineSet
684 -379 m 1,0,-1
 439 -379 l 2,1,2
 355 -379 355 -379 302.5 -343 c 128,-1,3
 250 -307 250 -307 230 -248 c 128,-1,4
 210 -189 210 -189 203 -117 c 128,-1,5
 196 -45 196 -45 194.5 29 c 128,-1,6
 193 103 193 103 185.5 166.5 c 128,-1,7
 178 230 178 230 149.5 276 c 128,-1,8
 121 322 121 322 68 333 c 2,9,-1
 7 346 l 1,10,-1
 7 545 l 1,11,-1
 65 557 l 2,12,13
 114 567 114 567 143.5 603.5 c 128,-1,14
 173 640 173 640 182 690.5 c 128,-1,15
 191 741 191 741 196 803 c 128,-1,16
 201 865 201 865 201 927.5 c 128,-1,17
 201 990 201 990 212.5 1049 c 128,-1,18
 224 1108 224 1108 245 1154 c 128,-1,19
 266 1200 266 1200 315 1227.5 c 128,-1,20
 364 1255 364 1255 437 1255 c 2,21,-1
 677 1255 l 1,22,-1
 671 1052 l 1,23,-1
 538 1049 l 2,24,25
 505 1048 505 1048 495.5 991.5 c 128,-1,26
 486 935 486 935 487.5 852.5 c 128,-1,27
 489 770 489 770 485.5 685.5 c 128,-1,28
 482 601 482 601 450 536 c 128,-1,29
 418 471 418 471 353 459 c 1,30,-1
 353 446 l 1,31,32
 408 410 408 410 438.5 348 c 128,-1,33
 469 286 469 286 474.5 219.5 c 128,-1,34
 480 153 480 153 481.5 83 c 128,-1,35
 483 13 483 13 482 -41.5 c 128,-1,36
 481 -96 481 -96 496.5 -132 c 128,-1,37
 512 -168 512 -168 548 -169 c 2,38,-1
 672 -173 l 1,39,-1
 684 -379 l 1,0,-1
EndSplineSet
Colour: ffffff
EndChar

StartChar: braceright
Encoding: 125 125 75
Width: 769
VWidth: 0
Flags: MW
LayerCount: 2
Fore
SplineSet
43 -379 m 1,0,-1
 55 -173 l 1,1,-1
 179 -169 l 2,2,3
 215 -168 215 -168 230.5 -132 c 128,-1,4
 246 -96 246 -96 245 -41.5 c 128,-1,5
 244 13 244 13 245.5 83 c 128,-1,6
 247 153 247 153 252.5 219.5 c 128,-1,7
 258 286 258 286 288.5 348 c 128,-1,8
 319 410 319 410 374 446 c 1,9,-1
 374 459 l 1,10,11
 309 471 309 471 277 536 c 128,-1,12
 245 601 245 601 241.5 685.5 c 128,-1,13
 238 770 238 770 239.5 852.5 c 128,-1,14
 241 935 241 935 231.5 991.5 c 128,-1,15
 222 1048 222 1048 189 1049 c 2,16,-1
 56 1052 l 1,17,-1
 50 1255 l 1,18,-1
 290 1255 l 2,19,20
 363 1255 363 1255 412 1227.5 c 128,-1,21
 461 1200 461 1200 482 1154 c 128,-1,22
 503 1108 503 1108 514.5 1049 c 128,-1,23
 526 990 526 990 526 927.5 c 128,-1,24
 526 865 526 865 531 803 c 128,-1,25
 536 741 536 741 545 690.5 c 128,-1,26
 554 640 554 640 583.5 603.5 c 128,-1,27
 613 567 613 567 662 557 c 2,28,-1
 720 545 l 1,29,-1
 720 346 l 1,30,-1
 659 333 l 2,31,32
 606 322 606 322 577.5 276 c 128,-1,33
 549 230 549 230 541.5 166.5 c 128,-1,34
 534 103 534 103 532.5 29 c 128,-1,35
 531 -45 531 -45 524 -117 c 128,-1,36
 517 -189 517 -189 497 -248 c 128,-1,37
 477 -307 477 -307 424.5 -343 c 128,-1,38
 372 -379 372 -379 288 -379 c 2,39,-1
 43 -379 l 1,0,-1
EndSplineSet
Colour: ffffff
EndChar

StartChar: bracketleft
Encoding: 91 91 76
Width: 593
VWidth: 0
Flags: MW
LayerCount: 2
Fore
SplineSet
511 -214 m 1,0,-1
 483 -378 l 1,1,-1
 34 -378 l 1,2,-1
 38 1255 l 1,3,-1
 474 1255 l 1,4,-1
 504 1094 l 1,5,-1
 265 1075 l 1,6,-1
 265 -193 l 1,7,-1
 511 -214 l 1,0,-1
EndSplineSet
Colour: ffffff
EndChar

StartChar: bracketright
Encoding: 93 93 77
Width: 592
VWidth: 0
Flags: MW
LayerCount: 2
Back
SplineSet
-189 -217 m 5,0,-1
 -159 -378 l 1,1,-1
 267 -378 l 1,2,-1
 271 1255 l 1,3,-1
 -169 1255 l 1,4,-1
 -187 1050 l 1,5,-1
 40 1034 l 1,6,-1
 40 -198 l 1,7,-1
 -189 -217 l 5,0,-1
EndSplineSet
Fore
SplineSet
41 -214 m 1,0,-1
 287 -193 l 1,1,-1
 287 1075 l 1,2,-1
 48 1094 l 1,3,-1
 78 1255 l 1,4,-1
 514 1255 l 1,5,-1
 518 -378 l 1,6,-1
 69 -378 l 1,7,-1
 41 -214 l 1,0,-1
EndSplineSet
Colour: ffffff
EndChar

StartChar: brokenbar
Encoding: 166 166 78
Width: 366
VWidth: 0
Flags: MW
LayerCount: 2
Fore
SplineSet
74 528 m 1,0,-1
 74 1274 l 1,1,-1
 290 1248 l 1,2,-1
 292 505 l 1,3,-1
 74 528 l 1,0,-1
74 -351 m 1,4,-1
 74 415 l 1,5,-1
 293 387 l 1,6,-1
 293 -379 l 1,7,-1
 74 -351 l 1,4,-1
EndSplineSet
Colour: ffffff
EndChar

StartChar: c
Encoding: 99 99 79
Width: 980
VWidth: 0
Flags: MW
LayerCount: 2
Back
SplineSet
0 426 m 0,0,1
 0 552 0 552 50 657.5 c 0
 100 763 100 763 179.5 829 c 0
 259 895 259 895 352.5 931 c 0
 446 967 446 967 538 967 c 0,2,3
 684 967 684 967 758.5 896 c 0
 833 825 833 825 833 714 c 0,4,5
 833 630 833 630 779.5 579.5 c 0
 726 529 726 529 641 520 c 1,6,7
 606 624 606 624 573 678.5 c 0
 540 733 540 733 513 748.5 c 0
 486 764 486 764 446 764 c 0,8,9
 385 764 385 764 359 704.5 c 0
 333 645 333 645 333 515 c 0,10,11
 333 389 333 389 397.5 294.5 c 0
 462 200 462 200 573 200 c 0,12,13
 650 200 650 200 701.5 216.5 c 0
 753 233 753 233 817 271 c 1,14,-1
 857 167 l 1,15,16
 818 84 818 84 712.5 26.5 c 0
 607 -31 607 -31 482 -31 c 0,17,18
 0 -31 0 -31 0 426 c 0,0,1
EndSplineSet
Fore
SplineSet
35 439 m 0,0,1
 35 526 35 526 55 605.5 c 128,-1,2
 75 685 75 685 119.5 757.5 c 128,-1,3
 164 830 164 830 229.5 882.5 c 128,-1,4
 295 935 295 935 392.5 966 c 128,-1,5
 490 997 490 997 610 997 c 0,6,7
 686 997 686 997 773.5 977.5 c 128,-1,8
 861 958 861 958 902 928 c 1,9,-1
 871 554 l 1,10,-1
 701 577 l 1,11,-1
 637 769 l 1,12,13
 602 792 602 792 557 792 c 0,14,15
 493 792 493 792 460 723 c 128,-1,16
 427 654 427 654 427 532 c 0,17,18
 427 381 427 381 498.5 293 c 128,-1,19
 570 205 570 205 682 205 c 0,20,21
 797 205 797 205 888 263 c 1,22,-1
 947 128 l 1,23,24
 897 65 897 65 789.5 18 c 128,-1,25
 682 -29 682 -29 553 -29 c 0,26,27
 293 -29 293 -29 164 93 c 128,-1,28
 35 215 35 215 35 439 c 0,0,1
EndSplineSet
Colour: ffffff
EndChar

StartChar: ccedilla
Encoding: 231 231 80
Width: 980
VWidth: 0
Flags: MW
LayerCount: 2
Fore
SplineSet
364 -303 m 1,0,1
 422 -302 422 -302 461.5 -282.5 c 128,-1,2
 501 -263 501 -263 501 -239 c 0,3,4
 501 -200 501 -200 345 -147 c 1,5,-1
 498 -27 l 1,6,7
 265 -14 265 -14 150 106.5 c 128,-1,8
 35 227 35 227 35 439 c 0,9,10
 35 526 35 526 55 605.5 c 128,-1,11
 75 685 75 685 119.5 757.5 c 128,-1,12
 164 830 164 830 229.5 882.5 c 128,-1,13
 295 935 295 935 392.5 966 c 128,-1,14
 490 997 490 997 610 997 c 0,15,16
 686 997 686 997 773.5 977.5 c 128,-1,17
 861 958 861 958 902 928 c 1,18,-1
 871 554 l 1,19,-1
 701 577 l 1,20,-1
 637 769 l 1,21,22
 602 792 602 792 557 792 c 0,23,24
 493 792 493 792 460 723 c 128,-1,25
 427 654 427 654 427 532 c 0,26,27
 427 381 427 381 498.5 293 c 128,-1,28
 570 205 570 205 682 205 c 0,29,30
 797 205 797 205 888 263 c 1,31,-1
 947 128 l 1,32,33
 912 83 912 83 843 44 c 128,-1,34
 774 5 774 5 687 -14 c 1,35,-1
 589 -86 l 1,36,37
 764 -101 764 -101 764 -229 c 0,38,39
 764 -313 764 -313 681 -352 c 128,-1,40
 598 -391 598 -391 400 -391 c 1,41,-1
 364 -303 l 1,0,1
EndSplineSet
Colour: ffffff
EndChar

StartChar: cedilla
Encoding: 184 184 81
Width: 529
VWidth: 0
Flags: MW
LayerCount: 2
Fore
SplineSet
72 -300 m 1,0,1
 130 -299 130 -299 169.5 -279.5 c 128,-1,2
 209 -260 209 -260 209 -236 c 0,3,4
 209 -197 209 -197 53 -144 c 1,5,-1
 241 3 l 1,6,-1
 415 3 l 1,7,-1
 297 -83 l 1,8,9
 472 -98 472 -98 472 -226 c 0,10,11
 472 -310 472 -310 389 -349 c 128,-1,12
 306 -388 306 -388 108 -388 c 1,13,-1
 72 -300 l 1,0,1
EndSplineSet
Colour: ffffff
EndChar

StartChar: cent
Encoding: 162 162 82
Width: 963
VWidth: 0
Flags: MW
LayerCount: 2
Fore
SplineSet
399 1232 m 1,0,-1
 626 1249 l 1,1,-1
 604 1012 l 1,2,3
 675 1010 675 1010 730.5 984.5 c 128,-1,4
 786 959 786 959 819 919 c 128,-1,5
 852 879 852 879 869 830.5 c 128,-1,6
 886 782 886 782 886 730 c 0,7,8
 886 646 886 646 832.5 595.5 c 128,-1,9
 779 545 779 545 694 536 c 1,10,11
 641 693 641 693 597.5 751.5 c 128,-1,12
 554 810 554 810 499 810 c 0,13,14
 386 810 386 810 386 531 c 0,15,16
 386 406 386 406 450 318 c 128,-1,17
 514 230 514 230 626 230 c 0,18,19
 701 230 701 230 756 250 c 128,-1,20
 811 270 811 270 880 311 c 1,21,-1
 920 177 l 1,22,23
 887 106 887 106 800 49 c 128,-1,24
 713 -8 713 -8 608 -25 c 1,25,-1
 638 -250 l 1,26,-1
 409 -266 l 1,27,-1
 433 -24 l 1,28,29
 332 -10 332 -10 257.5 31 c 128,-1,30
 183 72 183 72 139 136.5 c 128,-1,31
 95 201 95 201 74 279 c 128,-1,32
 53 357 53 357 53 452 c 0,33,34
 53 551 53 551 84 640 c 128,-1,35
 115 729 115 729 168.5 795 c 128,-1,36
 222 861 222 861 288.5 909 c 128,-1,37
 355 957 355 957 430 983 c 1,38,-1
 399 1232 l 1,0,-1
EndSplineSet
Colour: ffffff
EndChar

StartChar: circumflex
Encoding: 710 710 83
Width: 692
VWidth: 0
Flags: MW
LayerCount: 2
Fore
SplineSet
30 1325 m 1,0,-1
 183 1580 l 1,1,-1
 508 1580 l 1,2,-1
 662 1325 l 1,3,-1
 409 1316 l 1,4,-1
 345 1437 l 1,5,-1
 331 1437 l 1,6,-1
 263 1315 l 1,7,-1
 30 1325 l 1,0,-1
EndSplineSet
Colour: ffffff
EndChar

StartChar: colon
Encoding: 58 58 84
Width: 503
VWidth: 0
Flags: MW
LayerCount: 2
Fore
SplineSet
114 759 m 0,0,1
 114 784 114 784 123 808 c 128,-1,2
 132 832 132 832 152.5 854.5 c 128,-1,3
 173 877 173 877 211.5 890.5 c 128,-1,4
 250 904 250 904 302 904 c 0,5,6
 357 904 357 904 397.5 890.5 c 128,-1,7
 438 877 438 877 459 855 c 128,-1,8
 480 833 480 833 489 810.5 c 128,-1,9
 498 788 498 788 498 762 c 0,10,11
 498 614 498 614 301 613 c 0,12,13
 114 614 114 614 114 759 c 0,0,1
114 144 m 0,14,15
 114 169 114 169 123 193 c 128,-1,16
 132 217 132 217 152.5 239.5 c 128,-1,17
 173 262 173 262 211.5 275.5 c 128,-1,18
 250 289 250 289 302 289 c 0,19,20
 357 289 357 289 397.5 275.5 c 128,-1,21
 438 262 438 262 459 240 c 128,-1,22
 480 218 480 218 489 195 c 128,-1,23
 498 172 498 172 498 146 c 0,24,25
 498 -2 498 -2 301 -2 c 0,26,27
 114 -1 114 -1 114 144 c 0,14,15
EndSplineSet
Colour: ffffff
EndChar

StartChar: comma
Encoding: 44 44 85
Width: 564
VWidth: 0
Flags: MW
LayerCount: 2
Back
SplineSet
0 127 m 0,0,1
 0 187 0 187 49.5 233.5 c 0
 99 280 99 280 209 280 c 0,2,3
 326 280 326 280 376.5 234.5 c 0
 427 189 427 189 427 130 c 0,4,5
 427 -26 427 -26 208 -26 c 0,6,7
 0 -26 0 -26 0 127 c 0,0,1
EndSplineSet
Fore
SplineSet
61 96 m 0,0,1
 60 183 60 183 116.5 230.5 c 128,-1,2
 173 278 173 278 263 278 c 0,3,4
 506 278 506 278 506 12 c 0,5,6
 506 -52 506 -52 482.5 -113 c 128,-1,7
 459 -174 459 -174 412.5 -229 c 128,-1,8
 366 -284 366 -284 288.5 -323.5 c 128,-1,9
 211 -363 211 -363 112 -377 c 1,10,-1
 68 -259 l 1,11,12
 149 -232 149 -232 191 -181.5 c 128,-1,13
 233 -131 233 -131 233 -80 c 0,14,15
 233 -39 233 -39 208 -14.5 c 128,-1,16
 183 10 183 10 146 10 c 0,17,18
 118 10 118 10 92 -3 c 1,19,20
 61 49 61 49 61 96 c 0,0,1
EndSplineSet
Colour: ffffff
EndChar

StartChar: copyright
Encoding: 169 169 86
Width: 1507
VWidth: 0
Flags: MW
LayerCount: 2
Fore
SplineSet
382 678 m 0,0,1
 382 763 382 763 409.5 837.5 c 128,-1,2
 437 912 437 912 482 965 c 128,-1,3
 527 1018 527 1018 585.5 1056 c 128,-1,4
 644 1094 644 1094 706.5 1112.5 c 128,-1,5
 769 1131 769 1131 830 1131 c 0,6,7
 937 1131 937 1131 1004 1073 c 128,-1,8
 1071 1015 1071 1015 1071 927 c 0,9,10
 1071 801 1071 801 902 782 c 1,11,12
 867 892 867 892 835.5 931.5 c 128,-1,13
 804 971 804 971 766 971 c 0,14,15
 711 971 711 971 686 920.5 c 128,-1,16
 661 870 661 870 661 752 c 0,17,18
 661 646 661 646 714.5 567 c 128,-1,19
 768 488 768 488 861 488 c 0,20,21
 926 488 926 488 969.5 502 c 128,-1,22
 1013 516 1013 516 1066 548 c 1,23,-1
 1099 461 l 1,24,25
 1066 391 1066 391 978 343 c 128,-1,26
 890 295 890 295 785 295 c 0,27,28
 382 295 382 295 382 678 c 0,0,1
255 708 m 0,29,30
 255 446 255 446 395.5 308 c 128,-1,31
 536 170 536 170 763 170 c 0,32,33
 868 170 868 170 958.5 204 c 128,-1,34
 1049 238 1049 238 1118 301.5 c 128,-1,35
 1187 365 1187 365 1227 465.5 c 128,-1,36
 1267 566 1267 566 1267 690 c 0,37,38
 1267 800 1267 800 1236.5 897.5 c 128,-1,39
 1206 995 1206 995 1145.5 1073.5 c 128,-1,40
 1085 1152 1085 1152 983.5 1198 c 128,-1,41
 882 1244 882 1244 752 1244 c 0,42,43
 517 1244 517 1244 386 1097 c 128,-1,44
 255 950 255 950 255 708 c 0,29,30
49 687 m 0,45,46
 49 850 49 850 104.5 984.5 c 128,-1,47
 160 1119 160 1119 256.5 1209 c 128,-1,48
 353 1299 353 1299 484 1348 c 128,-1,49
 615 1397 615 1397 766 1397 c 0,50,51
 1085 1397 1085 1397 1271.5 1206 c 128,-1,52
 1458 1015 1458 1015 1458 700 c 0,53,54
 1458 568 1458 568 1404 442.5 c 128,-1,55
 1350 317 1350 317 1257.5 221.5 c 128,-1,56
 1165 126 1165 126 1033.5 68 c 128,-1,57
 902 10 902 10 757 10 c 0,58,59
 424 10 424 10 236.5 192.5 c 128,-1,60
 49 375 49 375 49 687 c 0,45,46
EndSplineSet
Colour: ffffff
EndChar

StartChar: currency
Encoding: 164 164 87
Width: 947
VWidth: 0
Flags: MW
LayerCount: 2
Fore
SplineSet
364 491 m 0,0,1
 364 436 364 436 396 400 c 128,-1,2
 428 364 428 364 471 364 c 0,3,4
 515 364 515 364 546 397.5 c 128,-1,5
 577 431 577 431 577 485 c 0,6,7
 577 542 577 542 546.5 576 c 128,-1,8
 516 610 516 610 472 610 c 0,9,10
 429 610 429 610 396.5 577 c 128,-1,11
 364 544 364 544 364 491 c 0,0,1
43 733 m 1,12,-1
 209 886 l 1,13,-1
 348 741 l 1,14,15
 397 784 397 784 481 784 c 0,16,17
 549 784 549 784 592 752 c 1,18,-1
 733 891 l 1,19,-1
 898 732 l 1,20,-1
 749 595 l 1,21,22
 773 552 773 552 773 488 c 0,23,24
 773 420 773 420 744 372 c 1,25,-1
 903 221 l 1,26,-1
 727 71 l 1,27,-1
 582 226 l 1,28,29
 521 190 521 190 462 190 c 0,30,31
 410 190 410 190 363 218 c 1,32,-1
 217 54 l 1,33,-1
 52 212 l 1,34,-1
 207 362 l 1,35,36
 172 412 172 412 172 484 c 0,37,38
 172 544 172 544 199 589 c 1,39,-1
 43 733 l 1,12,-1
EndSplineSet
Colour: ffffff
EndChar

StartChar: d
Encoding: 100 100 88
Width: 1184
VWidth: 0
Flags: MW
LayerCount: 2
Back
SplineSet
24 188 m 0,0,1
 24 328 24 328 146 420.5 c 0
 268 513 268 513 482 512 c 1,2,-1
 482 607 l 2,3,4
 482 671.404 482 671.404 445.559 708.905 c 0
 409.117 746.405 409.117 746.405 367.311 746.405 c 0,5,6
 325.174 746.405 325.174 746.405 302.904 707.04 c 0
 280.635 667.676 280.635 667.676 263 568 c 1,7,8
 188 556 188 556 123 594 c 0
 58 632 58 632 58 713 c 0,9,10
 58 775 58 775 141 831.5 c 0
 224 888 224 888 326.5 918 c 0
 429 948 429 948 505 948 c 0,11,12
 589 948 589 948 644.5 930.5 c 0
 700 913 700 913 732 873.5 c 0
 764 834 764 834 777 779 c 0
 790 724 790 724 790 641 c 2,13,-1
 790 374 l 2,14,15
 790 299 790 299 817 269.5 c 0
 844 240 844 240 928 213 c 2,16,-1
 956 204 l 1,17,-1
 931 34 l 1,18,19
 867.48 4.21421 867.48 4.21421 815.283 -9.83139 c 0
 763.085 -23.877 763.085 -23.877 694.626 -23.877 c 0,20,21
 542.952 -23.877 542.952 -23.877 493 106 c 2,22,-1
 488 119 l 1,23,-1
 475 125 l 1,24,25
 452.699 64.9011 452.699 64.9011 378.582 21.1332 c 0
 304.465 -22.6348 304.465 -22.6348 224.929 -22.6348 c 0,26,27
 140.168 -22.6348 140.168 -22.6348 82.0839 31.3447 c 0
 24 85.3242 24 85.3242 24 188 c 0,0,1
482 234 m 1,28,-1
 482 398 l 1,29,30
 397.584 388.469 397.584 388.469 358.689 353.595 c 0
 319.793 318.721 319.793 318.721 319.793 279.474 c 0,31,32
 319.793 248.081 319.793 248.081 341.521 226.802 c 0
 363.249 205.522 363.249 205.522 400.331 205.522 c 0,33,34
 442.567 205.522 442.567 205.522 482 234 c 1,28,-1
EndSplineSet
Fore
SplineSet
536 202 m 1,0,-1
 571 202 l 2,1,2
 626 202 626 202 666.5 223.5 c 128,-1,3
 707 245 707 245 728.5 275.5 c 128,-1,4
 750 306 750 306 763 349 c 128,-1,5
 776 392 776 392 779.5 425.5 c 128,-1,6
 783 459 783 459 783 497 c 0,7,8
 783 548 783 548 770 598 c 128,-1,9
 757 648 757 648 731 693.5 c 128,-1,10
 705 739 705 739 659 767.5 c 128,-1,11
 613 796 613 796 554 796 c 0,12,13
 541 796 541 796 536 795 c 1,14,-1
 536 202 l 1,0,-1
33 0 m 1,15,-1
 46 158 l 1,16,-1
 166 241 l 1,17,-1
 166 742 l 1,18,-1
 53 788 l 1,19,-1
 60 945 l 1,20,21
 147 965 147 965 295 981 c 128,-1,22
 443 997 443 997 573 997 c 0,23,24
 698 997 698 997 796.5 972 c 128,-1,25
 895 947 895 947 960.5 904.5 c 128,-1,26
 1026 862 1026 862 1069 800.5 c 128,-1,27
 1112 739 1112 739 1130.5 670 c 128,-1,28
 1149 601 1149 601 1149 520 c 0,29,30
 1149 290 1149 290 991 145 c 128,-1,31
 833 0 833 0 561 0 c 2,32,-1
 33 0 l 1,15,-1
EndSplineSet
Colour: ffffff
EndChar

StartChar: dagger
Encoding: 8224 8224 89
Width: 903
VWidth: 0
Flags: MW
LayerCount: 2
Fore
SplineSet
47 666 m 1,0,-1
 54 860 l 1,1,-1
 349 853 l 1,2,-1
 345 1255 l 1,3,-1
 557 1244 l 1,4,-1
 550 853 l 1,5,-1
 856 860 l 1,6,-1
 847 657 l 1,7,-1
 550 667 l 1,8,-1
 563 -362 l 1,9,-1
 339 -351 l 1,10,-1
 349 671 l 1,11,-1
 47 666 l 1,0,-1
EndSplineSet
Colour: ffffff
EndChar

StartChar: daggerdbl
Encoding: 8225 8225 90
Width: 908
VWidth: 0
Flags: MW
LayerCount: 2
Fore
SplineSet
55 666 m 1,0,-1
 59 862 l 1,1,-1
 353 856 l 1,2,-1
 345 1255 l 1,3,-1
 559 1244 l 1,4,-1
 544 856 l 1,5,-1
 848 862 l 1,6,-1
 843 660 l 1,7,-1
 544 669 l 1,8,-1
 533 430 l 1,9,-1
 537 212 l 1,10,-1
 855 217 l 1,11,-1
 848 19 l 1,12,-1
 537 26 l 1,13,-1
 551 -362 l 1,14,-1
 336 -351 l 1,15,-1
 346 26 l 1,16,-1
 56 19 l 1,17,-1
 67 224 l 1,18,-1
 346 210 l 1,19,-1
 356 497 l 1,20,-1
 353 674 l 1,21,-1
 55 666 l 1,0,-1
EndSplineSet
Colour: ffffff
EndChar

StartChar: degree
Encoding: 176 176 91
Width: 505
VWidth: 0
Flags: MW
LayerCount: 2
Fore
SplineSet
186 1129 m 0,0,1
 186 1023 186 1023 252 1023 c 0,2,3
 278 1023 278 1023 292.5 1046 c 128,-1,4
 307 1069 307 1069 307 1105 c 0,5,6
 307 1149 307 1149 290 1179 c 128,-1,7
 273 1209 273 1209 242 1209 c 0,8,9
 216 1209 216 1209 201 1186 c 128,-1,10
 186 1163 186 1163 186 1129 c 0,0,1
55 1107 m 0,11,12
 55 1185 55 1185 116 1244.5 c 128,-1,13
 177 1304 177 1304 258 1304 c 0,14,15
 345 1304 345 1304 397 1256.5 c 128,-1,16
 449 1209 449 1209 449 1128 c 0,17,18
 449 1044 449 1044 383 986 c 128,-1,19
 317 928 317 928 234 928 c 0,20,21
 155 928 155 928 105 975 c 128,-1,22
 55 1022 55 1022 55 1107 c 0,11,12
EndSplineSet
Colour: ffffff
EndChar

StartChar: dieresis
Encoding: 168 168 92
Width: 744
VWidth: 0
Flags: MW
LayerCount: 2
Back
SplineSet
0 1464 m 4,0,1
 0 1492 0 1492 54 1516.5 c 0
 108 1541 108 1541 146 1541 c 0,2,3
 190 1541 190 1541 239 1515.5 c 0
 288 1490 288 1490 288 1464 c 0,4,5
 288 1435 288 1435 235.5 1409 c 0
 183 1383 183 1383 143 1383 c 0,6,7
 102 1383 102 1383 51 1407.5 c 0
 0 1432 0 1432 0 1464 c 4,0,1
269 1464 m 4,8,9
 269 1492 269 1492 321.5 1516.5 c 0
 374 1541 374 1541 412 1541 c 0,10,11
 457 1541 457 1541 507.5 1515.5 c 0
 558 1490 558 1490 558 1464 c 0,12,13
 558 1435 558 1435 504.5 1409 c 0
 451 1383 451 1383 411 1383 c 0,14,15
 370 1383 370 1383 319.5 1407.5 c 0
 269 1432 269 1432 269 1464 c 4,8,9
EndSplineSet
Fore
SplineSet
425 1465 m 0,0,1
 425 1484 425 1484 431.5 1501.5 c 128,-1,2
 438 1519 438 1519 453 1535.5 c 128,-1,3
 468 1552 468 1552 496 1562 c 128,-1,4
 524 1572 524 1572 563 1572 c 0,5,6
 604 1572 604 1572 633 1562 c 128,-1,7
 662 1552 662 1552 677.5 1536 c 128,-1,8
 693 1520 693 1520 699.5 1503 c 128,-1,9
 706 1486 706 1486 706 1467 c 0,10,11
 706 1358 706 1358 562 1358 c 0,12,13
 425 1358 425 1358 425 1465 c 0,0,1
116 1465 m 0,14,15
 116 1484 116 1484 122.5 1501.5 c 128,-1,16
 129 1519 129 1519 144 1535.5 c 128,-1,17
 159 1552 159 1552 187 1562 c 128,-1,18
 215 1572 215 1572 254 1572 c 0,19,20
 295 1572 295 1572 324 1562 c 128,-1,21
 353 1552 353 1552 368.5 1536 c 128,-1,22
 384 1520 384 1520 390.5 1503 c 128,-1,23
 397 1486 397 1486 397 1467 c 0,24,25
 397 1358 397 1358 253 1358 c 0,26,27
 116 1358 116 1358 116 1465 c 0,14,15
EndSplineSet
Colour: ffffff
EndChar

StartChar: divide
Encoding: 247 247 93
Width: 910
VWidth: 0
Flags: MW
LayerCount: 2
Fore
SplineSet
236 781 m 0,0,1
 236 841 236 841 285.5 887.5 c 128,-1,2
 335 934 335 934 445 934 c 0,3,4
 562 934 562 934 612.5 888.5 c 128,-1,5
 663 843 663 843 663 784 c 0,6,7
 663 628 663 628 444 628 c 0,8,9
 236 628 236 628 236 781 c 0,0,1
236 218 m 0,10,11
 236 278 236 278 285.5 324.5 c 128,-1,12
 335 371 335 371 445 371 c 0,13,14
 562 371 562 371 612.5 325.5 c 128,-1,15
 663 280 663 280 663 221 c 0,16,17
 663 65 663 65 444 65 c 0,18,19
 236 65 236 65 236 218 c 0,10,11
45 411 m 1,20,-1
 57 597 l 1,21,-1
 868 597 l 1,22,-1
 859 411 l 1,23,-1
 45 411 l 1,20,-1
EndSplineSet
Colour: ffffff
EndChar

StartChar: dollar
Encoding: 36 36 94
Width: 844
VWidth: 0
Flags: MW
LayerCount: 2
Fore
SplineSet
344 1068 m 1,0,-1
 534 1085 l 1,1,-1
 511 947 l 1,2,3
 642 940 642 940 718.5 894.5 c 128,-1,4
 795 849 795 849 795 773 c 0,5,6
 795 709 795 709 738 664 c 128,-1,7
 681 619 681 619 604 611 c 1,8,9
 580 708 580 708 536.5 753.5 c 128,-1,10
 493 799 493 799 419 799 c 0,11,12
 380 799 380 799 357 780 c 128,-1,13
 334 761 334 761 334 732 c 0,14,15
 334 708 334 708 360.5 685 c 128,-1,16
 387 662 387 662 428.5 641 c 128,-1,17
 470 620 470 620 521 596.5 c 128,-1,18
 572 573 572 573 623 542.5 c 128,-1,19
 674 512 674 512 715.5 475.5 c 128,-1,20
 757 439 757 439 783.5 386.5 c 128,-1,21
 810 334 810 334 810 272 c 0,22,23
 810 152 810 152 728.5 75.5 c 128,-1,24
 647 -1 647 -1 508 -25 c 1,25,-1
 529 -178 l 1,26,-1
 342 -196 l 1,27,-1
 364 -36 l 1,28,29
 282 -34 282 -34 207 -9 c 128,-1,30
 132 16 132 16 81.5 62.5 c 128,-1,31
 31 109 31 109 31 167 c 0,32,33
 31 239 31 239 81 279.5 c 128,-1,34
 131 320 131 320 223 328 c 1,35,36
 251 229 251 229 299 176.5 c 128,-1,37
 347 124 347 124 406 124 c 0,38,39
 466 124 466 124 490.5 137 c 128,-1,40
 515 150 515 150 515 186 c 0,41,42
 515 209 515 209 490 231 c 128,-1,43
 465 253 465 253 425.5 273 c 128,-1,44
 386 293 386 293 338 316 c 128,-1,45
 290 339 290 339 242 369 c 128,-1,46
 194 399 194 399 154.5 434.5 c 128,-1,47
 115 470 115 470 90 521.5 c 128,-1,48
 65 573 65 573 65 634 c 0,49,50
 65 666 65 666 74 700.5 c 128,-1,51
 83 735 83 735 105.5 774 c 128,-1,52
 128 813 128 813 161 845.5 c 128,-1,53
 194 878 194 878 247.5 904 c 128,-1,54
 301 930 301 930 367 941 c 1,55,-1
 344 1068 l 1,0,-1
EndSplineSet
Colour: ffffff
EndChar

StartChar: dotaccent
Encoding: 729 729 95
Width: 579
VWidth: 0
Flags: MW
LayerCount: 2
Fore
SplineSet
76 1473 m 0,0,1
 76 1533 76 1533 125.5 1579.5 c 128,-1,2
 175 1626 175 1626 285 1626 c 0,3,4
 402 1626 402 1626 452.5 1580.5 c 128,-1,5
 503 1535 503 1535 503 1476 c 0,6,7
 503 1320 503 1320 284 1320 c 0,8,9
 76 1320 76 1320 76 1473 c 0,0,1
EndSplineSet
Colour: ffffff
EndChar

StartChar: e
Encoding: 101 101 96
Width: 1079
VWidth: 0
Flags: MW
LayerCount: 2
Fore
SplineSet
33 835 m 1,0,-1
 52 979 l 1,1,-1
 1045 979 l 1,2,-1
 1015 611 l 1,3,-1
 844 637 l 1,4,-1
 761 807 l 1,5,-1
 536 807 l 1,6,-1
 536 559 l 1,7,-1
 661 575 l 1,8,-1
 688 578 l 1,9,-1
 825 596 l 1,10,-1
 792 390 l 1,11,-1
 679 406 l 1,12,-1
 649 411 l 1,13,-1
 536 427 l 1,14,-1
 536 203 l 1,15,-1
 739 180 l 1,16,-1
 875 378 l 1,17,-1
 1040 361 l 1,18,-1
 1010 0 l 1,19,-1
 49 0 l 1,20,-1
 59 158 l 1,21,-1
 163 217 l 1,22,-1
 163 765 l 1,23,-1
 33 835 l 1,0,-1
EndSplineSet
Colour: ffffff
EndChar

StartChar: eacute
Encoding: 233 233 97
Width: 1079
VWidth: 0
Flags: MW
LayerCount: 2
Fore
SplineSet
379 1063 m 1,0,-1
 524 1368 l 1,1,-1
 874 1358 l 1,2,-1
 613 1037 l 1,3,-1
 379 1063 l 1,0,-1
33 835 m 1,4,-1
 52 979 l 1,5,-1
 1045 979 l 1,6,-1
 1015 611 l 1,7,-1
 844 637 l 1,8,-1
 761 807 l 1,9,-1
 536 807 l 1,10,-1
 536 559 l 1,11,-1
 661 575 l 1,12,-1
 688 578 l 1,13,-1
 825 596 l 1,14,-1
 792 390 l 1,15,-1
 679 406 l 1,16,-1
 649 411 l 1,17,-1
 536 427 l 1,18,-1
 536 203 l 1,19,-1
 739 180 l 1,20,-1
 875 378 l 1,21,-1
 1040 361 l 1,22,-1
 1010 0 l 1,23,-1
 49 0 l 1,24,-1
 59 158 l 1,25,-1
 163 217 l 1,26,-1
 163 765 l 1,27,-1
 33 835 l 1,4,-1
EndSplineSet
Colour: ffffff
EndChar

StartChar: ecircumflex
Encoding: 234 234 98
Width: 1079
VWidth: 0
Flags: MW
LayerCount: 2
Fore
SplineSet
252 1044 m 1,0,-1
 405 1299 l 1,1,-1
 730 1299 l 1,2,-1
 884 1044 l 1,3,-1
 631 1035 l 1,4,-1
 567 1156 l 1,5,-1
 553 1156 l 1,6,-1
 485 1034 l 1,7,-1
 252 1044 l 1,0,-1
33 835 m 1,8,-1
 52 979 l 1,9,-1
 1045 979 l 1,10,-1
 1015 611 l 1,11,-1
 844 637 l 1,12,-1
 761 807 l 1,13,-1
 536 807 l 1,14,-1
 536 559 l 1,15,-1
 661 575 l 1,16,-1
 688 578 l 1,17,-1
 825 596 l 1,18,-1
 792 390 l 1,19,-1
 679 406 l 1,20,-1
 649 411 l 1,21,-1
 536 427 l 1,22,-1
 536 203 l 1,23,-1
 739 180 l 1,24,-1
 875 378 l 1,25,-1
 1040 361 l 1,26,-1
 1010 0 l 1,27,-1
 49 0 l 1,28,-1
 59 158 l 1,29,-1
 163 217 l 1,30,-1
 163 765 l 1,31,-1
 33 835 l 1,8,-1
EndSplineSet
Colour: ffffff
EndChar

StartChar: edieresis
Encoding: 235 235 99
Width: 1079
VWidth: 0
Flags: MW
LayerCount: 2
Fore
SplineSet
588 1148 m 0,0,1
 588 1190 588 1190 620.5 1222.5 c 128,-1,2
 653 1255 653 1255 726 1255 c 0,3,4
 803 1255 803 1255 836 1223.5 c 128,-1,5
 869 1192 869 1192 869 1150 c 0,6,7
 869 1041 869 1041 725 1041 c 0,8,9
 588 1041 588 1041 588 1148 c 0,0,1
279 1148 m 0,10,11
 279 1190 279 1190 311.5 1222.5 c 128,-1,12
 344 1255 344 1255 417 1255 c 0,13,14
 494 1255 494 1255 527 1223.5 c 128,-1,15
 560 1192 560 1192 560 1150 c 0,16,17
 560 1041 560 1041 416 1041 c 0,18,19
 279 1041 279 1041 279 1148 c 0,10,11
33 835 m 1,20,-1
 52 979 l 1,21,-1
 1045 979 l 1,22,-1
 1015 611 l 1,23,-1
 844 637 l 1,24,-1
 761 807 l 1,25,-1
 536 807 l 1,26,-1
 536 559 l 1,27,-1
 661 575 l 1,28,-1
 688 578 l 1,29,-1
 825 596 l 1,30,-1
 792 390 l 1,31,-1
 679 406 l 1,32,-1
 649 411 l 1,33,-1
 536 427 l 1,34,-1
 536 203 l 1,35,-1
 739 180 l 1,36,-1
 875 378 l 1,37,-1
 1040 361 l 1,38,-1
 1010 0 l 1,39,-1
 49 0 l 1,40,-1
 59 158 l 1,41,-1
 163 217 l 1,42,-1
 163 765 l 1,43,-1
 33 835 l 1,20,-1
EndSplineSet
Colour: ffffff
EndChar

StartChar: egrave
Encoding: 232 232 100
Width: 1079
VWidth: 0
Flags: MW
LayerCount: 2
Fore
SplineSet
212 1358 m 1,0,-1
 562 1368 l 1,1,-1
 707 1063 l 1,2,-1
 473 1037 l 1,3,-1
 212 1358 l 1,0,-1
33 835 m 1,4,-1
 52 979 l 1,5,-1
 1045 979 l 1,6,-1
 1015 611 l 1,7,-1
 844 637 l 1,8,-1
 761 807 l 1,9,-1
 536 807 l 1,10,-1
 536 559 l 1,11,-1
 661 575 l 1,12,-1
 688 578 l 1,13,-1
 825 596 l 1,14,-1
 792 390 l 1,15,-1
 679 406 l 1,16,-1
 649 411 l 1,17,-1
 536 427 l 1,18,-1
 536 203 l 1,19,-1
 739 180 l 1,20,-1
 875 378 l 1,21,-1
 1040 361 l 1,22,-1
 1010 0 l 1,23,-1
 49 0 l 1,24,-1
 59 158 l 1,25,-1
 163 217 l 1,26,-1
 163 765 l 1,27,-1
 33 835 l 1,4,-1
EndSplineSet
Colour: ffffff
EndChar

StartChar: eight
Encoding: 56 56 101
Width: 1053
VWidth: 0
Flags: MW
LayerCount: 2
Fore
SplineSet
458 986 m 0,0,1
 458 938 458 938 499 874.5 c 128,-1,2
 540 811 540 811 608 769 c 1,3,4
 647 795 647 795 647 874 c 0,5,6
 647 961 647 961 607.5 1012 c 128,-1,7
 568 1063 568 1063 521 1063 c 0,8,9
 493 1063 493 1063 475.5 1043 c 128,-1,10
 458 1023 458 1023 458 986 c 0,0,1
400 347 m 0,11,12
 400 247 400 247 444 181 c 128,-1,13
 488 115 488 115 576 115 c 0,14,15
 617 115 617 115 645.5 139.5 c 128,-1,16
 674 164 674 164 674 193 c 0,17,18
 674 216 674 216 663 237 c 128,-1,19
 652 258 652 258 625.5 282.5 c 128,-1,20
 599 307 599 307 572.5 328 c 128,-1,21
 546 349 546 349 498.5 386 c 128,-1,22
 451 423 451 423 414 454 c 1,23,24
 406 441 406 441 402.5 427 c 128,-1,25
 399 413 399 413 398.5 404 c 128,-1,26
 398 395 398 395 399 375.5 c 128,-1,27
 400 356 400 356 400 347 c 0,11,12
48 270 m 0,28,29
 48 364 48 364 103.5 438 c 128,-1,30
 159 512 159 512 272 558 c 1,31,-1
 272 573 l 1,32,33
 103 708 103 708 103 863 c 0,34,35
 103 928 103 928 131 987 c 128,-1,36
 159 1046 159 1046 213.5 1094 c 128,-1,37
 268 1142 268 1142 358 1170.5 c 128,-1,38
 448 1199 448 1199 563 1199 c 0,39,40
 735 1199 735 1199 840.5 1117 c 128,-1,41
 946 1035 946 1035 946 925 c 0,42,43
 946 856 946 856 894 789.5 c 128,-1,44
 842 723 842 723 753 681 c 1,45,-1
 754 665 l 1,46,47
 889 577 889 577 948 498.5 c 128,-1,48
 1007 420 1007 420 1007 331 c 0,49,50
 1007 184 1007 184 862.5 78.5 c 128,-1,51
 718 -27 718 -27 495 -27 c 0,52,53
 280 -27 280 -27 164 60.5 c 128,-1,54
 48 148 48 148 48 270 c 0,28,29
EndSplineSet
Colour: ffffff
EndChar

StartChar: emdash
Encoding: 8212 8212 102
Width: 1513
VWidth: 0
Flags: MW
LayerCount: 2
Fore
SplineSet
61 367 m 1,0,-1
 82 554 l 1,1,-1
 1452 562 l 1,2,-1
 1426 372 l 1,3,-1
 61 367 l 1,0,-1
EndSplineSet
Colour: ffffff
EndChar

StartChar: endash
Encoding: 8211 8211 103
Width: 880
VWidth: 0
Flags: MW
LayerCount: 2
Fore
SplineSet
61 367 m 1,0,-1
 84 554 l 1,1,-1
 819 562 l 1,2,-1
 790 372 l 1,3,-1
 61 367 l 1,0,-1
EndSplineSet
Colour: ffffff
EndChar

StartChar: equal
Encoding: 61 61 104
Width: 768
VWidth: 0
Flags: MW
LayerCount: 2
Fore
SplineSet
68 276 m 1,0,-1
 79 464 l 1,1,-1
 704 464 l 1,2,-1
 691 276 l 1,3,-1
 68 276 l 1,0,-1
65 557 m 1,4,-1
 76 745 l 1,5,-1
 701 745 l 1,6,-1
 688 557 l 1,7,-1
 65 557 l 1,4,-1
EndSplineSet
Colour: ffffff
EndChar

StartChar: eth
Encoding: 240 240 105
Width: 1183
VWidth: 0
Flags: MW
LayerCount: 2
Back
SplineSet
0 451 m 0,0,1
 0 556 0 556 50 651.5 c 0
 100 747 100 747 177 810 c 0
 254 873 254 873 343.5 910 c 0
 433 947 433 947 514 947 c 1,2,3
 459.279 947 459.279 947 452.864 982.707 c 0
 448.362 1007.76 448.362 1007.76 466.722 1023.45 c 0
 487.347 1041.07 487.347 1041.07 502.386 1011.72 c 0
 503.756 1009.05 503.756 1009.05 505 1006 c 1,4,-1
 510 1012 l 1,5,6
 508 999 508 999 503 993 c 0
 498 987 498 987 493 992.5 c 0
 488 998 488 998 487 1015 c 1,7,-1
 336 997 l 1,8,-1
 345 1119 l 1,9,-1
 441 1136 l 1,10,11
 419 1220 419 1220 326 1302 c 1,12,-1
 542 1302 l 1,13,14
 538.043 1306.22 538.043 1306.22 540.79 1305.8 c 0
 556.414 1303.43 556.414 1303.43 614.456 1251.41 c 0
 641.357 1227.31 641.357 1227.31 668 1199 c 1,15,-1
 795 1219 l 1,16,-1
 784 1090 l 1,17,-1
 754 1084 l 1,18,19
 944 812 944 812 944 464 c 0,20,21
 944 354 944 354 900.5 259 c 0
 857 164 857 164 787.5 103 c 0
 718 42 718 42 635 7.5 c 0
 552 -27 552 -27 471 -27 c 0,22,23
 370 -27 370 -27 289.5 -0.5 c 0
 209 26 209 26 155.5 71 c 0
 102 116 102 116 66.5 178 c 0
 31 240 31 240 15.5 307.5 c 0
 0 375 0 375 0 451 c 0,0,1
334 497 m 1,24,25
 338 421 338 421 347 363 c 0
 356 305 356 305 373.5 255.5 c 0
 391 206 391 206 421 179.5 c 0
 451 153 451 153 492 153 c 0,26,27
 516 153 516 153 533.5 155.5 c 0
 551 158 551 158 565 160.5 c 0
 579 163 579 163 589 171.5 c 0
 599 180 599 180 606 186 c 0
 613 192 613 192 617 208.5 c 0
 621 225 621 225 623.5 235 c 0
 626 245 626 245 626.5 270.5 c 0
 627 296 627 296 627 312 c 0
 627 328 627 328 626.5 364 c 0
 626 400 626 400 626 423 c 0,28,29
 626 465 626 465 611.5 544.5 c 0
 597 624 597 624 566.5 701 c 0
 536 778 536 778 501 783 c 1,30,-1
 488 783 l 1,31,32
 428 786 428 786 396.5 765 c 0
 365 744 365 744 349.5 681 c 0
 334 618 334 618 334 497 c 1,24,25
EndSplineSet
Fore
SplineSet
537 202 m 1,0,-1
 572 202 l 2,1,2
 627 202 627 202 667.5 223.5 c 128,-1,3
 708 245 708 245 729.5 275.5 c 128,-1,4
 751 306 751 306 764 349 c 128,-1,5
 777 392 777 392 780.5 425.5 c 128,-1,6
 784 459 784 459 784 497 c 0,7,8
 784 548 784 548 771 598 c 128,-1,9
 758 648 758 648 732 693.5 c 128,-1,10
 706 739 706 739 660 767.5 c 128,-1,11
 614 796 614 796 555 796 c 0,12,13
 542 796 542 796 537 795 c 1,14,-1
 537 583 l 1,15,-1
 679 594 l 1,16,-1
 669 445 l 1,17,-1
 537 428 l 1,18,-1
 537 202 l 1,0,-1
42 364 m 1,19,-1
 57 547 l 1,20,-1
 167 555 l 1,21,-1
 167 742 l 1,22,-1
 54 788 l 1,23,-1
 61 945 l 1,24,25
 148 965 148 965 296 981 c 128,-1,26
 444 997 444 997 574 997 c 0,27,28
 699 997 699 997 797.5 972 c 128,-1,29
 896 947 896 947 961.5 904.5 c 128,-1,30
 1027 862 1027 862 1070 800.5 c 128,-1,31
 1113 739 1113 739 1131.5 670 c 128,-1,32
 1150 601 1150 601 1150 520 c 0,33,34
 1150 290 1150 290 992 145 c 128,-1,35
 834 0 834 0 562 0 c 2,36,-1
 34 0 l 1,37,-1
 47 158 l 1,38,-1
 167 241 l 1,39,-1
 167 380 l 1,40,-1
 42 364 l 1,19,-1
EndSplineSet
Colour: ffffff
EndChar

StartChar: exclam
Encoding: 33 33 106
Width: 518
VWidth: 0
Flags: MW
LayerCount: 2
Back
SplineSet
10 1094 m 5,0,-1
 30 1244 l 1,1,-1
 757 1244 l 1,2,-1
 741 1084 l 1,3,-1
 562 1017 l 1,4,-1
 562 223 l 1,5,-1
 742 160 l 1,6,-1
 729 0 l 1,7,-1
 12 0 l 1,8,-1
 22 142 l 1,9,-1
 198 221 l 1,10,-1
 198 1020 l 1,11,-1
 10 1094 l 5,0,-1
EndSplineSet
Fore
SplineSet
66 1194 m 0,0,1
 66 1306 66 1306 272 1306 c 0,2,3
 354 1306 354 1306 390 1286.5 c 128,-1,4
 426 1267 426 1267 426 1215 c 0,5,6
 426 1052 426 1052 402 810.5 c 128,-1,7
 378 569 378 569 347 362 c 1,8,-1
 180 391 l 1,9,10
 144 579 144 579 105 850.5 c 128,-1,11
 66 1122 66 1122 66 1194 c 0,0,1
47 127 m 0,12,13
 47 187 47 187 96.5 233.5 c 128,-1,14
 146 280 146 280 256 280 c 0,15,16
 373 280 373 280 423.5 234.5 c 128,-1,17
 474 189 474 189 474 130 c 0,18,19
 474 -26 474 -26 255 -26 c 0,20,21
 47 -26 47 -26 47 127 c 0,12,13
EndSplineSet
Colour: ffffff
EndChar

StartChar: exclamdown
Encoding: 161 161 107
Width: 521
VWidth: 0
Flags: MW
LayerCount: 2
Fore
SplineSet
407 -294 m 0,0,1
 407 -406 407 -406 201 -406 c 0,2,3
 119 -406 119 -406 83 -386.5 c 128,-1,4
 47 -367 47 -367 47 -315 c 0,5,6
 47 -152 47 -152 71 89.5 c 128,-1,7
 95 331 95 331 126 538 c 1,8,-1
 293 509 l 1,9,10
 329 321 329 321 368 49.5 c 128,-1,11
 407 -222 407 -222 407 -294 c 0,0,1
426 773 m 0,12,13
 426 713 426 713 376.5 666.5 c 128,-1,14
 327 620 327 620 217 620 c 0,15,16
 100 620 100 620 49.5 665.5 c 128,-1,17
 -1 711 -1 711 -1 770 c 0,18,19
 -1 926 -1 926 218 926 c 0,20,21
 426 926 426 926 426 773 c 0,12,13
EndSplineSet
Colour: ffffff
EndChar

StartChar: f
Encoding: 102 102 108
Width: 1083
VWidth: 0
Flags: MW
LayerCount: 2
Back
SplineSet
790.311 602.595 m 4,0,1
 790.311 669.853 790.311 669.853 759.879 728.676 c 0
 729.448 787.5 729.448 787.5 672.805 832.014 c 0
 616.162 876.528 616.162 876.528 528.254 901.926 c 0
 440.347 927.325 440.347 927.325 332.311 926.595 c 1,2,-1
 332.311 1021.59 l 2,3,4
 332.311 1085.99 332.311 1085.99 368.753 1123.5 c 0
 405.194 1161 405.194 1161 447 1161 c 0,5,6
 489.137 1161 489.137 1161 511.406 1121.63 c 0
 533.676 1082.27 533.676 1082.27 551.311 982.595 c 1,7,8
 598.311 975.202 598.311 975.202 643.978 987.121 c 0
 689.644 999.041 689.644 999.041 722.978 1035.73 c 0
 756.311 1072.42 756.311 1072.42 756.311 1127.59 c 0,9,10
 756.311 1174.68 756.311 1174.68 706.796 1219.95 c 0
 657.281 1265.23 657.281 1265.23 586.217 1295.43 c 0
 515.152 1325.63 515.152 1325.63 439.702 1344.11 c 0
 364.253 1362.59 364.253 1362.59 309.311 1362.59 c 0,11,12
 225.232 1362.59 225.232 1362.59 169.907 1344.98 c 0
 114.582 1327.38 114.582 1327.38 82.3862 1288.04 c 0
 50.1905 1248.7 50.1905 1248.7 37.2505 1193.55 c 0
 24.3105 1138.39 24.3105 1138.39 24.3105 1055.59 c 2,13,-1
 24.3105 788.595 l 2,14,15
 24.3105 749.181 24.3105 749.181 18.5751 724.941 c 0
 12.8397 700.702 12.8397 700.702 -4.50221 682.519 c 0
 -21.8441 664.336 -21.8441 664.336 -45.7464 653.043 c 0
 -69.6487 641.751 -69.6487 641.751 -113.689 627.595 c 2,16,-1
 -141.689 618.595 l 1,17,-1
 -116.689 448.595 l 1,18,19
 -53.1712 418.809 -53.1712 418.809 -0.97308 404.764 c 0
 51.2251 390.718 51.2251 390.718 119.685 390.718 c 0,20,21
 271.358 390.718 271.358 390.718 321.311 520.595 c 2,22,-1
 326.311 533.595 l 1,23,-1
 339.311 539.595 l 1,24,25
 361.611 479.496 361.611 479.496 435.729 435.728 c 0
 509.846 391.96 509.846 391.96 589.382 391.96 c 0,26,27
 674.143 391.96 674.143 391.96 732.227 445.94 c 0
 790.311 499.919 790.311 499.919 790.311 602.595 c 4,0,1
332.311 648.595 m 5,28,-1
 332.311 812.595 l 1,29,30
 416.727 803.064 416.727 803.064 455.622 768.19 c 0
 494.518 733.316 494.518 733.316 494.518 694.068 c 0,31,32
 494.518 662.676 494.518 662.676 472.79 641.396 c 0
 451.061 620.117 451.061 620.117 413.979 620.117 c 0,33,34
 371.741 620.117 371.741 620.117 332.311 648.595 c 5,28,-1
-186 0 m 1,35,-1
 -171 176 l 1,36,-1
 -19 230 l 1,37,-1
 -19 966 l 1,38,-1
 -186 1068 l 1,39,-1
 -152 1241 l 1,40,-1
 239 1266 l 1,41,-1
 296 1209 l 1,42,-1
 296 230 l 1,43,-1
 452 174 l 1,44,-1
 439 0 l 1,45,-1
 -186 0 l 1,35,-1
EndSplineSet
Fore
SplineSet
33 835 m 1,0,-1
 52 979 l 1,1,-1
 1050 979 l 1,2,-1
 991 599 l 1,3,-1
 814 626 l 1,4,-1
 764 807 l 1,5,-1
 538 807 l 1,6,-1
 538 517 l 1,7,-1
 661 535 l 1,8,-1
 682 538 l 1,9,-1
 827 559 l 1,10,-1
 794 333 l 1,11,-1
 664 354 l 1,12,-1
 640 358 l 1,13,-1
 538 375 l 1,14,-1
 538 227 l 1,15,-1
 703 163 l 1,16,-1
 687 0 l 1,17,-1
 48 0 l 1,18,-1
 64 138 l 1,19,-1
 166 217 l 1,20,-1
 166 765 l 1,21,-1
 33 835 l 1,0,-1
EndSplineSet
Colour: ffffff
EndChar

StartChar: five
Encoding: 53 53 109
Width: 958
VWidth: 0
Flags: MW
LayerCount: 2
Fore
SplineSet
27 -108 m 0,0,1
 27 -26 27 -26 81.5 25.5 c 128,-1,2
 136 77 136 77 231 96 c 1,3,4
 286 -159 286 -159 468 -159 c 0,5,6
 542 -159 542 -159 583.5 -109.5 c 128,-1,7
 625 -60 625 -60 625 5 c 0,8,9
 625 112 625 112 499.5 193 c 128,-1,10
 374 274 374 274 161 292 c 1,11,-1
 321 980 l 1,12,-1
 883 1017 l 1,13,-1
 842 700 l 1,14,-1
 385 697 l 1,15,-1
 367 568 l 1,16,17
 501 554 501 554 606.5 513 c 128,-1,18
 712 472 712 472 776.5 413 c 128,-1,19
 841 354 841 354 874.5 284 c 128,-1,20
 908 214 908 214 908 138 c 0,21,22
 908 51 908 51 874.5 -28 c 128,-1,23
 841 -107 841 -107 777 -170 c 128,-1,24
 713 -233 713 -233 610 -270.5 c 128,-1,25
 507 -308 507 -308 379 -308 c 0,26,27
 230 -308 230 -308 128.5 -248.5 c 128,-1,28
 27 -189 27 -189 27 -108 c 0,0,1
EndSplineSet
Colour: ffffff
EndChar

StartChar: four
Encoding: 52 52 110
Width: 1187
VWidth: 0
Flags: MW
LayerCount: 2
Fore
SplineSet
328 185 m 1,0,-1
 556 185 l 1,1,-1
 556 567 l 1,2,-1
 328 185 l 1,0,-1
45 181 m 1,3,-1
 743 1022 l 1,4,-1
 899 988 l 1,5,6
 890 808 890 808 890 346 c 2,7,-1
 890 185 l 1,8,-1
 1142 185 l 1,9,-1
 1122 8 l 1,10,-1
 895 8 l 1,11,-1
 895 -279 l 1,12,-1
 552 -324 l 1,13,-1
 552 13 l 1,14,-1
 84 13 l 1,15,-1
 45 181 l 1,3,-1
EndSplineSet
Colour: ffffff
EndChar

StartChar: g
Encoding: 103 103 111
Width: 1158
VWidth: 0
Flags: MW
LayerCount: 2
Back
SplineSet
0 -149 m 0,0,1
 0 -105 0 -105 43 -58 c 0
 86 -11 86 -11 158 5 c 1,2,-1
 158 22 l 1,3,4
 64 68 64 68 64 154 c 0,5,6
 64 220 64 220 120.5 278.5 c 0
 177 337 177 337 263 352 c 1,7,-1
 260 370 l 1,8,9
 177 413 177 413 135 480 c 0
 93 547 93 547 93 623 c 0,10,11
 93 750 93 750 197.5 847 c 0
 302 944 302 944 472 944 c 0,12,13
 639 944 639 944 751 881 c 1,14,-1
 987 913 l 1,15,-1
 1017 879 l 1,16,-1
 972 686 l 1,17,-1
 938 682 l 1,18,-1
 848 710 l 1,19,-1
 843 705 l 1,20,21
 846 679 846 679 846 655 c 0,22,23
 846 554 846 554 795 479.5 c 0
 744 405 744 405 662 369 c 0
 580 333 580 333 480 333 c 0,24,25
 451 333 451 333 416 338 c 1,26,27
 398 289 398 289 426.5 268.5 c 0
 455 248 455 248 544 244 c 2,28,-1
 620 241 l 2,29,30
 795 234 795 234 877.5 178 c 0
 960 122 960 122 960 -4 c 0,31,32
 960 -73 960 -73 921 -140 c 0
 882 -207 882 -207 811.5 -262 c 0
 741 -317 741 -317 630 -351 c 0
 519 -385 519 -385 386 -385 c 0,33,34
 340 -385 340 -385 293 -379.5 c 0
 246 -374 246 -374 191.5 -358 c 0
 137 -342 137 -342 96 -317 c 0
 55 -292 55 -292 27.5 -248.5 c 0
 0 -205 0 -205 0 -149 c 0,0,1
295 3 m 1,35,36
 259 -94 259 -94 300.5 -150.5 c 0
 342 -207 342 -207 469 -207 c 0,37,38
 649 -207 649 -207 649 -103 c 0,39,40
 649 -51 649 -51 616.5 -28 c 0
 584 -5 584 -5 512 -3 c 2,41,-1
 295 3 l 1,35,36
371 645 m 0,42,43
 371 506.037 371 506.037 466.277 465.342 c 1
 465.19 464.129 465.19 464.129 463 464 c 1,44,45
 529 464 529 464 548.5 497 c 0
 568 530 568 530 568 638 c 0,46,47
 568 649 568 649 563.5 672.5 c 0
 559 696 559 696 548 730.5 c 0
 537 765 537 765 511.5 789.5 c 0
 486 814 486 814 450 814 c 0,48,49
 416 814 416 814 393.5 775 c 0
 371 736 371 736 371 645 c 0,42,43
EndSplineSet
Fore
SplineSet
35 450 m 0,0,1
 35 553 35 553 70.5 642.5 c 128,-1,2
 106 732 106 732 166.5 796 c 128,-1,3
 227 860 227 860 307.5 906 c 128,-1,4
 388 952 388 952 478 974.5 c 128,-1,5
 568 997 568 997 661 997 c 0,6,7
 879 997 879 997 1042 961 c 1,8,-1
 1001 652 l 1,9,-1
 813 667 l 1,10,-1
 722 795 l 1,11,12
 679 813 679 813 614 813 c 0,13,14
 440 813 440 813 440 534 c 0,15,16
 440 369 440 369 492 282 c 128,-1,17
 544 195 544 195 636 195 c 0,18,19
 717 195 717 195 749 225 c 1,20,-1
 749 313 l 1,21,-1
 588 377 l 1,22,-1
 605 509 l 1,23,-1
 1125 509 l 1,24,-1
 1110 363 l 1,25,-1
 1045 321 l 1,26,-1
 1045 63 l 1,27,28
 993 32 993 32 863.5 4 c 128,-1,29
 734 -24 734 -24 640 -24 c 0,30,31
 339 -24 339 -24 187 96.5 c 128,-1,32
 35 217 35 217 35 450 c 0,0,1
EndSplineSet
Colour: ffffff
EndChar

StartChar: germandbls
Encoding: 223 223 112
Width: 1424
VWidth: 0
Flags: MW
LayerCount: 2
Back
SplineSet
0 0 m 1,0,-1
 12 158 l 1,1,-1
 165 230 l 1,2,-1
 165 704 l 1,3,-1
 26 704 l 1,4,-1
 31 832 l 1,5,-1
 167 855 l 1,6,7
 174 925 174 925 224.5 1005.5 c 0
 275 1086 275 1086 349.5 1154 c 0
 424 1222 424 1222 521 1267 c 0
 618 1312 618 1312 710 1312 c 0,8,9
 770 1312 770 1312 816 1294.5 c 0
 862 1277 862 1277 889 1250 c 0
 916 1223 916 1223 933 1187 c 0
 950 1151 950 1151 956 1118.5 c 0
 962 1086 962 1086 962 1052 c 0,10,11
 962 989 962 989 946.5 943 c 0
 931 897 931 897 908 873.5 c 0
 885 850 885 850 858.5 829.5 c 0
 832 809 832 809 809 794 c 0
 786 779 786 779 770.5 752 c 0
 755 725 755 725 755 687 c 0,12,13
 755 671 755 671 776.5 657.5 c 0
 798 644 798 644 833.5 635 c 0
 869 626 869 626 914 612.5 c 0
 959 599 959 599 1006.5 584 c 0
 1054 569 1054 569 1099 541 c 0
 1144 513 1144 513 1179.5 478 c 0
 1215 443 1215 443 1236.5 387 c 0
 1258 331 1258 331 1258 262 c 0,14,15
 1258 191 1258 191 1203 124 c 0
 1148 57 1148 57 1068 18 c 0
 988 -21 988 -21 912 -21 c 0,16,17
 841 -21 841 -21 780 -12 c 0
 719 -3 719 -3 681.5 9.5 c 0
 644 22 644 22 617 36 c 0
 590 50 590 50 579 61 c 0
 568 72 568 72 568 77 c 0,18,19
 568 185 568 185 630 243.5 c 0
 692 302 692 302 802 299 c 1,20,21
 813.508 287.492 813.508 287.492 900.664 222.199 c 1
 965.152 171.977 965.152 171.977 944 170 c 1,22,23
 946 170 946 170 956.5 157.5 c 0
 967 145 967 145 976 136.5 c 0
 985 128 985 128 992.5 139.5 c 0
 1000 151 1000 151 1000 191 c 0,24,25
 1000 207 1000 207 974 221.5 c 0
 948 236 948 236 906 250 c 0
 864 264 864 264 813 281 c 0
 762 298 762 298 711.5 325 c 0
 661 352 661 352 619 386 c 0
 577 420 577 420 551 474 c 0
 525 528 525 528 525 594 c 0,26,27
 525 643 525 643 542 685 c 0
 559 727 559 727 583.5 756.5 c 0
 608 786 608 786 633 812 c 0
 658 838 658 838 675 868 c 0
 692 898 692 898 692 929 c 0,28,29
 692 944 692 944 692.5 969 c 0
 693 994 693 994 693 1005.5 c 0
 693 1017 693 1017 691.5 1035.5 c 0
 690 1054 690 1054 686.5 1063 c 0
 683 1072 683 1072 676 1083.5 c 0
 669 1095 669 1095 657.5 1100 c 0
 646 1105 646 1105 629.5 1108.5 c 0
 613 1112 613 1112 590 1112 c 0,30,31
 547.453 1112 547.453 1112 530.353 1100.63 c 0
 463 1055.85 463 1055.85 463 766 c 2,32,-1
 465 0 l 1,33,-1
 0 0 l 1,0,-1
EndSplineSet
Fore
SplineSet
32 0 m 1,0,-1
 45 136 l 1,1,-1
 139 192 l 1,2,-1
 139 547 l 2,3,4
 139 639 139 639 171.5 714 c 128,-1,5
 204 789 204 789 261.5 841 c 128,-1,6
 319 893 319 893 400.5 928.5 c 128,-1,7
 482 964 482 964 578 980.5 c 128,-1,8
 674 997 674 997 786 997 c 0,9,10
 1087 997 1087 997 1216 946 c 128,-1,11
 1345 895 1345 895 1345 780 c 0,12,13
 1345 645 1345 645 1195 603 c 1,14,15
 1081 813 1081 813 977 813 c 0,16,17
 941 813 941 813 919.5 793 c 128,-1,18
 898 773 898 773 898 741 c 0,19,20
 898 701 898 701 949 663.5 c 128,-1,21
 1000 626 1000 626 1072.5 591 c 128,-1,22
 1145 556 1145 556 1217.5 516 c 128,-1,23
 1290 476 1290 476 1341 415.5 c 128,-1,24
 1392 355 1392 355 1392 282 c 0,25,26
 1392 221 1392 221 1370.5 171 c 128,-1,27
 1349 121 1349 121 1311.5 89 c 128,-1,28
 1274 57 1274 57 1230 34 c 128,-1,29
 1186 11 1186 11 1134.5 -1 c 128,-1,30
 1083 -13 1083 -13 1039.5 -18 c 128,-1,31
 996 -23 996 -23 955 -23 c 0,32,33
 810 -23 810 -23 705 -5 c 128,-1,34
 600 13 600 13 564 42 c 1,35,-1
 601 359 l 1,36,-1
 778 330 l 1,37,-1
 817 175 l 1,38,39
 851 146 851 146 937 146 c 0,40,41
 1051 146 1051 146 1051 208 c 0,42,43
 1051 228 1051 228 1024.5 249 c 128,-1,44
 998 270 998 270 956 290.5 c 128,-1,45
 914 311 914 311 863 335 c 128,-1,46
 812 359 812 359 761 389.5 c 128,-1,47
 710 420 710 420 668 455 c 128,-1,48
 626 490 626 490 599.5 538.5 c 128,-1,49
 573 587 573 587 573 642 c 0,50,51
 573 718 573 718 612 768.5 c 128,-1,52
 651 819 651 819 696 829 c 1,53,-1
 696 839 l 1,54,55
 595 847 595 847 547 784.5 c 128,-1,56
 499 722 499 722 499 570 c 2,57,-1
 499 0 l 1,58,-1
 32 0 l 1,0,-1
EndSplineSet
AlternateSubs2: "Alternate Substitution in Latin lookup 0-1" germandbls.alt
Colour: ffffff
EndChar

StartChar: grave
Encoding: 96 96 113
Width: 584
VWidth: 0
Flags: MW
LayerCount: 2
Fore
SplineSet
45 1628 m 1,0,-1
 395 1638 l 1,1,-1
 540 1333 l 1,2,-1
 306 1307 l 1,3,-1
 45 1628 l 1,0,-1
EndSplineSet
Colour: ffffff
EndChar

StartChar: greater
Encoding: 62 62 114
Width: 877
VWidth: 0
Flags: MW
LayerCount: 2
Fore
SplineSet
42 36 m 1,0,-1
 390 454 l 1,1,-1
 54 840 l 1,2,-1
 201 974 l 1,3,-1
 830 504 l 1,4,-1
 820 410 l 1,5,-1
 188 -84 l 1,6,-1
 42 36 l 1,0,-1
EndSplineSet
Colour: ffffff
EndChar

StartChar: guillemotleft
Encoding: 171 171 115
Width: 767
VWidth: 0
Flags: MW
LayerCount: 2
Fore
SplineSet
46 447 m 1,0,-1
 49 469 l 1,1,-1
 316 818 l 1,2,-1
 390 712 l 1,3,-1
 275 460 l 1,4,-1
 403 192 l 1,5,-1
 309 75 l 1,6,-1
 46 447 l 1,0,-1
356 447 m 1,7,-1
 359 469 l 1,8,-1
 626 818 l 1,9,-1
 700 712 l 1,10,-1
 585 460 l 1,11,-1
 713 192 l 1,12,-1
 619 75 l 1,13,-1
 356 447 l 1,7,-1
EndSplineSet
Colour: ffffff
EndChar

StartChar: guillemotright
Encoding: 187 187 116
Width: 767
VWidth: 0
Flags: MW
LayerCount: 2
Fore
SplineSet
722 447 m 1,0,-1
 459 75 l 1,1,-1
 365 192 l 1,2,-1
 493 460 l 1,3,-1
 378 712 l 1,4,-1
 452 818 l 1,5,-1
 719 469 l 1,6,-1
 722 447 l 1,0,-1
412 447 m 1,7,-1
 149 75 l 1,8,-1
 55 192 l 1,9,-1
 183 460 l 1,10,-1
 68 712 l 1,11,-1
 142 818 l 1,12,-1
 409 469 l 1,13,-1
 412 447 l 1,7,-1
EndSplineSet
Colour: ffffff
EndChar

StartChar: guilsinglleft
Encoding: 8249 8249 117
Width: 457
VWidth: 0
Flags: MW
LayerCount: 2
Fore
SplineSet
49 447 m 1,0,-1
 52 469 l 1,1,-1
 319 818 l 1,2,-1
 393 712 l 1,3,-1
 278 460 l 1,4,-1
 406 192 l 1,5,-1
 312 75 l 1,6,-1
 49 447 l 1,0,-1
EndSplineSet
Colour: ffffff
EndChar

StartChar: guilsinglright
Encoding: 8250 8250 118
Width: 457
VWidth: 0
Flags: MW
LayerCount: 2
Fore
SplineSet
360 447 m 1,0,-1
 97 75 l 1,1,-1
 3 192 l 1,2,-1
 131 460 l 1,3,-1
 16 712 l 1,4,-1
 90 818 l 1,5,-1
 357 469 l 1,6,-1
 360 447 l 1,0,-1
EndSplineSet
Colour: ffffff
EndChar

StartChar: h
Encoding: 104 104 119
Width: 1306
VWidth: 0
Flags: MW
LayerCount: 2
Fore
SplineSet
33 829 m 1,0,-1
 58 979 l 1,1,-1
 620 979 l 1,2,-1
 601 821 l 1,3,-1
 532 762 l 1,4,-1
 532 587 l 1,5,-1
 769 587 l 1,6,-1
 769 755 l 1,7,-1
 698 819 l 1,8,-1
 715 979 l 1,9,-1
 1273 979 l 1,10,-1
 1254 829 l 1,11,-1
 1146 762 l 1,12,-1
 1146 211 l 1,13,-1
 1265 148 l 1,14,-1
 1251 0 l 1,15,-1
 678 0 l 1,16,-1
 692 146 l 1,17,-1
 769 217 l 1,18,-1
 769 386 l 1,19,-1
 532 386 l 1,20,-1
 532 211 l 1,21,-1
 613 148 l 1,22,-1
 595 0 l 1,23,-1
 38 0 l 1,24,-1
 50 138 l 1,25,-1
 159 217 l 1,26,-1
 159 755 l 1,27,-1
 33 829 l 1,0,-1
EndSplineSet
Colour: ffffff
EndChar

StartChar: hyphen
Encoding: 45 45 120
Width: 717
VWidth: 0
Flags: MW
LayerCount: 2
Fore
SplineSet
61 357 m 1,0,-1
 76 535 l 1,1,-1
 656 557 l 1,2,-1
 641 372 l 1,3,-1
 61 357 l 1,0,-1
EndSplineSet
Colour: ffffff
EndChar

StartChar: i
Encoding: 105 105 121
Width: 693
VWidth: 0
Flags: MW
LayerCount: 2
Fore
SplineSet
33 829 m 1,0,-1
 53 979 l 1,1,-1
 660 979 l 1,2,-1
 644 819 l 1,3,-1
 525 752 l 1,4,-1
 525 223 l 1,5,-1
 645 160 l 1,6,-1
 632 0 l 1,7,-1
 35 0 l 1,8,-1
 45 142 l 1,9,-1
 161 221 l 1,10,-1
 161 755 l 1,11,-1
 33 829 l 1,0,-1
EndSplineSet
Colour: ffffff
EndChar

StartChar: iacute
Encoding: 237 237 122
Width: 693
VWidth: 0
Flags: MW
LayerCount: 2
Fore
SplineSet
202 1065 m 1,0,-1
 348 1370 l 1,1,-1
 698 1360 l 1,2,-1
 436 1039 l 1,3,-1
 202 1065 l 1,0,-1
33 829 m 1,4,-1
 53 979 l 1,5,-1
 660 979 l 1,6,-1
 644 819 l 1,7,-1
 525 752 l 1,8,-1
 525 223 l 1,9,-1
 645 160 l 1,10,-1
 632 0 l 1,11,-1
 35 0 l 1,12,-1
 45 142 l 1,13,-1
 161 221 l 1,14,-1
 161 755 l 1,15,-1
 33 829 l 1,4,-1
EndSplineSet
Colour: ffffff
EndChar

StartChar: icircumflex
Encoding: 238 238 123
Width: 693
VWidth: 0
Flags: MW
LayerCount: 2
Fore
SplineSet
38 1051 m 1,0,-1
 192 1306 l 1,1,-1
 516 1306 l 1,2,-1
 670 1051 l 1,3,-1
 418 1042 l 1,4,-1
 354 1163 l 1,5,-1
 340 1163 l 1,6,-1
 272 1041 l 1,7,-1
 38 1051 l 1,0,-1
33 829 m 1,8,-1
 53 979 l 1,9,-1
 660 979 l 1,10,-1
 644 819 l 1,11,-1
 525 752 l 1,12,-1
 525 223 l 1,13,-1
 645 160 l 1,14,-1
 632 0 l 1,15,-1
 35 0 l 1,16,-1
 45 142 l 1,17,-1
 161 221 l 1,18,-1
 161 755 l 1,19,-1
 33 829 l 1,8,-1
EndSplineSet
Colour: ffffff
EndChar

StartChar: idieresis
Encoding: 239 239 124
Width: 693
VWidth: 0
Flags: MW
LayerCount: 2
Fore
SplineSet
370 1146 m 0,0,1
 370 1188 370 1188 402.5 1220.5 c 128,-1,2
 435 1253 435 1253 508 1253 c 0,3,4
 585 1253 585 1253 618.5 1221.5 c 128,-1,5
 652 1190 652 1190 652 1148 c 0,6,7
 652 1039 652 1039 507 1039 c 0,8,9
 370 1039 370 1039 370 1146 c 0,0,1
61 1146 m 0,10,11
 61 1188 61 1188 93.5 1220.5 c 128,-1,12
 126 1253 126 1253 199 1253 c 0,13,14
 276 1253 276 1253 309.5 1221.5 c 128,-1,15
 343 1190 343 1190 343 1148 c 0,16,17
 343 1039 343 1039 198 1039 c 0,18,19
 61 1039 61 1039 61 1146 c 0,10,11
33 829 m 1,20,-1
 53 979 l 1,21,-1
 660 979 l 1,22,-1
 644 819 l 1,23,-1
 525 752 l 1,24,-1
 525 223 l 1,25,-1
 645 160 l 1,26,-1
 632 0 l 1,27,-1
 35 0 l 1,28,-1
 45 142 l 1,29,-1
 161 221 l 1,30,-1
 161 755 l 1,31,-1
 33 829 l 1,20,-1
EndSplineSet
Colour: ffffff
EndChar

StartChar: igrave
Encoding: 236 236 125
Width: 693
VWidth: 0
Flags: MW
LayerCount: 2
Fore
SplineSet
-4 1360 m 1,0,-1
 346 1370 l 1,1,-1
 492 1065 l 1,2,-1
 258 1039 l 1,3,-1
 -4 1360 l 1,0,-1
33 829 m 1,4,-1
 53 979 l 1,5,-1
 660 979 l 1,6,-1
 644 819 l 1,7,-1
 525 752 l 1,8,-1
 525 223 l 1,9,-1
 645 160 l 1,10,-1
 632 0 l 1,11,-1
 35 0 l 1,12,-1
 45 142 l 1,13,-1
 161 221 l 1,14,-1
 161 755 l 1,15,-1
 33 829 l 1,4,-1
EndSplineSet
Colour: ffffff
EndChar

StartChar: j
Encoding: 106 106 126
Width: 727
VWidth: 0
Flags: MW
LayerCount: 2
Fore
SplineSet
33 -151 m 1,0,1
 93 -100 93 -100 126 -58 c 128,-1,2
 159 -16 159 -16 178 43.5 c 128,-1,3
 197 103 197 103 197 185 c 2,4,-1
 197 755 l 1,5,-1
 62 829 l 1,6,-1
 81 979 l 1,7,-1
 694 979 l 1,8,-1
 674 829 l 1,9,-1
 564 762 l 1,10,-1
 564 334 l 2,11,12
 564 195 564 195 548 104 c 128,-1,13
 532 13 532 13 485 -66 c 128,-1,14
 438 -145 438 -145 359.5 -204 c 128,-1,15
 281 -263 281 -263 150 -326 c 1,16,-1
 33 -151 l 1,0,1
EndSplineSet
Colour: ffffff
EndChar

StartChar: k
Encoding: 107 107 127
Width: 1298
VWidth: 0
Flags: MW
LayerCount: 2
Fore
SplineSet
583 501 m 1,0,1
 587 506 587 506 600 519 c 128,-1,2
 613 532 613 532 620.5 541 c 128,-1,3
 628 550 628 550 641 565.5 c 128,-1,4
 654 581 654 581 666 598 c 2,5,-1
 773 738 l 1,6,-1
 786 817 l 1,7,-1
 813 979 l 1,8,-1
 1221 979 l 1,9,-1
 1191 829 l 1,10,-1
 1020 735 l 1,11,-1
 865 541 l 1,12,-1
 970 390 l 2,13,14
 1111 187 1111 187 1220 149 c 2,15,-1
 1265 133 l 1,16,-1
 1233 0 l 1,17,18
 1143 -24 1143 -24 1078 -24 c 0,19,20
 986 -24 986 -24 912 1.5 c 128,-1,21
 838 27 838 27 765.5 97 c 128,-1,22
 693 167 693 167 637 282 c 2,23,-1
 572 416 l 1,24,-1
 583 501 l 1,0,1
33 829 m 1,25,-1
 65 979 l 1,26,-1
 655 979 l 1,27,-1
 632 809 l 1,28,-1
 548 735 l 1,29,-1
 548 220 l 1,30,-1
 635 168 l 1,31,-1
 611 0 l 1,32,-1
 36 0 l 1,33,-1
 52 138 l 1,34,-1
 184 241 l 1,35,-1
 184 728 l 1,36,-1
 33 829 l 1,25,-1
EndSplineSet
Colour: ffffff
EndChar

StartChar: l
Encoding: 108 108 128
Width: 1066
VWidth: 0
Flags: MW
LayerCount: 2
Fore
SplineSet
37 832 m 1,0,-1
 56 979 l 1,1,-1
 689 979 l 1,2,-1
 668 832 l 1,3,-1
 532 734 l 1,4,-1
 532 200 l 1,5,-1
 722 178 l 1,6,-1
 856 413 l 1,7,-1
 1032 390 l 1,8,-1
 1015 0 l 1,9,-1
 33 0 l 1,10,-1
 49 138 l 1,11,-1
 159 217 l 1,12,-1
 159 732 l 1,13,-1
 37 832 l 1,0,-1
EndSplineSet
Colour: ffffff
EndChar

StartChar: less
Encoding: 60 60 129
Width: 877
VWidth: 0
Flags: MW
LayerCount: 2
Fore
SplineSet
793 36 m 1,0,-1
 647 -84 l 1,1,-1
 15 410 l 1,2,-1
 5 504 l 1,3,-1
 634 974 l 1,4,-1
 781 840 l 1,5,-1
 445 454 l 1,6,-1
 793 36 l 1,0,-1
EndSplineSet
Colour: ffffff
EndChar

StartChar: logicalnot
Encoding: 172 172 130
Width: 934
VWidth: 0
Flags: MW
LayerCount: 2
Fore
SplineSet
57 459 m 1,0,-1
 69 661 l 1,1,-1
 872 661 l 1,2,-1
 872 261 l 1,3,-1
 653 241 l 1,4,-1
 653 459 l 1,5,-1
 57 459 l 1,0,-1
EndSplineSet
Colour: ffffff
EndChar

StartChar: m
Encoding: 109 109 131
Width: 1513
VWidth: 0
Flags: MW
LayerCount: 2
Back
SplineSet
-116 0 m 1,0,-1
 -99 157 l 1,1,-1
 43 229 l 1,2,-1
 43 660 l 1,3,-1
 -99 721 l 1,4,-1
 -72 889 l 1,5,-1
 331 918 l 1,6,-1
 369 879 l 1,7,-1
 346 777 l 1,8,-1
 361 771 l 1,9,10
 436.469 849.75 436.469 849.75 503.821 889.183 c 0
 571.173 928.617 571.173 928.617 650.449 928.617 c 0,11,12
 765.883 928.617 765.883 928.617 830.942 859.476 c 0
 896 790.336 896 790.336 896 641 c 2,13,-1
 896 229 l 1,14,-1
 1044 165 l 1,15,-1
 1021 0 l 1,16,-1
 585 0 l 1,17,-1
 585 157 l 1,18,-1
 585 229 l 1,19,-1
 585 429 l 2,20,21
 585 522.379 585 522.379 561.633 562.203 c 0
 538.266 602.028 538.266 602.028 490.271 602.028 c 0,22,23
 417.976 602.028 417.976 602.028 361 552 c 1,24,-1
 361 229 l 1,25,-1
 484 166 l 1,26,-1
 456 0 l 1,27,-1
 -116 0 l 1,0,-1
EndSplineSet
Fore
SplineSet
33 0 m 1,0,-1
 54 154 l 1,1,-1
 172 233 l 1,2,-1
 207 766 l 1,3,-1
 83 823 l 1,4,-1
 99 980 l 1,5,-1
 673 980 l 1,6,-1
 717 775 l 1,7,-1
 781 443 l 1,8,-1
 857 777 l 1,9,-1
 914 980 l 1,10,-1
 1444 980 l 1,11,-1
 1426 823 l 1,12,-1
 1334 769 l 1,13,-1
 1364 229 l 1,14,-1
 1480 161 l 1,15,-1
 1466 0 l 1,16,-1
 955 0 l 1,17,-1
 978 154 l 1,18,-1
 1040 213 l 1,19,-1
 1027 629 l 1,20,-1
 872 81 l 1,21,-1
 579 42 l 1,22,-1
 444 620 l 1,23,-1
 420 229 l 1,24,-1
 479 161 l 1,25,-1
 454 0 l 1,26,-1
 33 0 l 1,0,-1
EndSplineSet
Colour: ffffff
EndChar

StartChar: macron
Encoding: 175 175 132
Width: 628
VWidth: 0
Flags: MW
LayerCount: 2
Fore
SplineSet
77 1379 m 1,0,-1
 98 1574 l 1,1,-1
 551 1574 l 1,2,-1
 529 1379 l 1,3,-1
 77 1379 l 1,0,-1
EndSplineSet
Colour: ffffff
EndChar

StartChar: multiply
Encoding: 215 215 133
Width: 659
VWidth: 0
Flags: MW
LayerCount: 2
Fore
SplineSet
43 616 m 1,0,-1
 191 732 l 1,1,-1
 335 576 l 1,2,-1
 504 747 l 1,3,-1
 618 597 l 1,4,-1
 452 456 l 1,5,-1
 610 298 l 1,6,-1
 464 176 l 1,7,-1
 325 343 l 1,8,-1
 170 178 l 1,9,-1
 51 328 l 1,10,-1
 206 462 l 1,11,-1
 43 616 l 1,0,-1
EndSplineSet
Colour: ffffff
EndChar

StartChar: n
Encoding: 110 110 134
Width: 1225
VWidth: 0
Flags: MW
LayerCount: 2
Fore
SplineSet
37 822 m 1,0,-1
 51 979 l 1,1,-1
 511 979 l 1,2,-1
 865 453 l 1,3,-1
 865 755 l 1,4,-1
 727 829 l 1,5,-1
 751 979 l 1,6,-1
 1192 979 l 1,7,-1
 1167 829 l 1,8,-1
 1079 762 l 1,9,-1
 1079 15 l 1,10,-1
 752 -29 l 1,11,-1
 387 539 l 1,12,-1
 387 211 l 1,13,-1
 517 148 l 1,14,-1
 504 0 l 1,15,-1
 33 0 l 1,16,-1
 43 138 l 1,17,-1
 164 217 l 1,18,-1
 164 738 l 1,19,-1
 37 822 l 1,0,-1
EndSplineSet
Colour: ffffff
EndChar

StartChar: nine
Encoding: 57 57 136
Width: 1014
VWidth: 0
Flags: MW
LayerCount: 2
Fore
SplineSet
411 607 m 0,0,1
 411 461 411 461 433 392.5 c 128,-1,2
 455 324 455 324 507 324 c 0,3,4
 544 324 544 324 576 360 c 1,5,6
 588 424 588 424 588 569 c 0,7,8
 588 876 588 876 491 876 c 1,9,10
 447 875 447 875 429 813.5 c 128,-1,11
 411 752 411 752 411 607 c 0,0,1
51 499 m 0,12,13
 51 626 51 626 88.5 728 c 128,-1,14
 126 830 126 830 190 894.5 c 128,-1,15
 254 959 254 959 335.5 993 c 128,-1,16
 417 1027 417 1027 508 1027 c 0,17,18
 626 1027 626 1027 714.5 987 c 128,-1,19
 803 947 803 947 855.5 873.5 c 128,-1,20
 908 800 908 800 933.5 705 c 128,-1,21
 959 610 959 610 959 492 c 0,22,23
 959 319 959 319 901 172 c 128,-1,24
 843 25 843 25 742.5 -76.5 c 128,-1,25
 642 -178 642 -178 507.5 -240 c 128,-1,26
 373 -302 373 -302 219 -314 c 1,27,-1
 170 -199 l 1,28,29
 323 -147 323 -147 433.5 -42 c 128,-1,30
 544 63 544 63 564 208 c 1,31,-1
 556 217 l 1,32,33
 533 179 533 179 478 157 c 128,-1,34
 423 135 423 135 358 135 c 0,35,36
 213 135 213 135 132 236.5 c 128,-1,37
 51 338 51 338 51 499 c 0,12,13
EndSplineSet
Colour: ffffff
EndChar

StartChar: ntilde
Encoding: 241 241 137
Width: 1225
VWidth: 0
Flags: MW
LayerCount: 2
Fore
SplineSet
278 1043 m 1,0,1
 280 1123 280 1123 296.5 1179.5 c 128,-1,2
 313 1236 313 1236 340 1267 c 128,-1,3
 367 1298 367 1298 406 1310.5 c 128,-1,4
 445 1323 445 1323 488 1319.5 c 128,-1,5
 531 1316 531 1316 583 1300 c 2,6,-1
 653 1278 l 2,7,8
 720 1256 720 1256 755 1266.5 c 128,-1,9
 790 1277 790 1277 804 1328 c 1,10,-1
 919 1317 l 1,11,12
 909 1131 909 1131 836.5 1073 c 128,-1,13
 764 1015 764 1015 625 1058 c 2,14,-1
 559 1078 l 1,15,16
 472 1102 472 1102 442.5 1092 c 128,-1,17
 413 1082 413 1082 395 1032 c 1,18,-1
 278 1043 l 1,0,1
37 822 m 1,19,-1
 51 979 l 1,20,-1
 511 979 l 1,21,-1
 865 453 l 1,22,-1
 865 755 l 1,23,-1
 727 829 l 1,24,-1
 751 979 l 1,25,-1
 1192 979 l 1,26,-1
 1167 829 l 1,27,-1
 1079 762 l 1,28,-1
 1079 15 l 1,29,-1
 752 -29 l 1,30,-1
 387 539 l 1,31,-1
 387 211 l 1,32,-1
 517 148 l 1,33,-1
 504 0 l 1,34,-1
 33 0 l 1,35,-1
 43 138 l 1,36,-1
 164 217 l 1,37,-1
 164 738 l 1,38,-1
 37 822 l 1,19,-1
EndSplineSet
Colour: ffffff
EndChar

StartChar: numbersign
Encoding: 35 35 138
Width: 1208
VWidth: 0
Flags: MW
LayerCount: 2
Back
SplineSet
-285.096 896.475 m 1,0,-1
 -98.5312 1109.69 l 1,1,-1
 113.069 -665.491 l 1,2,-1
 96.1084 46.8428 l 1,3,-1
 -285.096 896.475 l 1,0,-1
838.325 -43.6123 m 1,4,-1
 1540.97 -180.91 l 1,5,-1
 58.1494 550.807 l 1,6,-1
 -654.185 688.105 l 1,7,-1
 838.325 -43.6123 l 1,4,-1
EndSplineSet
Fore
SplineSet
93 549 m 1,0,-1
 148 771 l 1,1,-1
 366 771 l 1,2,-1
 402 988 l 1,3,-1
 615 998 l 1,4,-1
 578 771 l 1,5,-1
 721 771 l 1,6,-1
 757 988 l 1,7,-1
 971 997 l 1,8,-1
 934 771 l 1,9,-1
 1175 771 l 1,10,-1
 1122 549 l 1,11,-1
 897 549 l 1,12,-1
 877 427 l 1,13,-1
 1111 427 l 1,14,-1
 1057 205 l 1,15,-1
 840 205 l 1,16,-1
 803 -19 l 1,17,-1
 589 -26 l 1,18,-1
 627 205 l 1,19,-1
 484 205 l 1,20,-1
 447 -19 l 1,21,-1
 234 -26 l 1,22,-1
 272 205 l 1,23,-1
 31 205 l 1,24,-1
 86 427 l 1,25,-1
 309 427 l 1,26,-1
 329 549 l 1,27,-1
 93 549 l 1,0,-1
541 549 m 1,28,-1
 521 427 l 1,29,-1
 664 427 l 1,30,-1
 684 549 l 1,31,-1
 541 549 l 1,28,-1
EndSplineSet
Colour: ffffff
EndChar

StartChar: o
Encoding: 111 111 139
Width: 1135
VWidth: 0
Flags: MW
LayerCount: 2
Fore
SplineSet
438 531 m 0,0,1
 438 483 438 483 443.5 428 c 128,-1,2
 449 373 449 373 462.5 309.5 c 128,-1,3
 476 246 476 246 504 204.5 c 128,-1,4
 532 163 532 163 571 163 c 0,5,6
 681 163 681 163 681 494 c 0,7,8
 681 547 681 547 673 602 c 128,-1,9
 665 657 665 657 649 707.5 c 128,-1,10
 633 758 633 758 605 790 c 128,-1,11
 577 822 577 822 542 822 c 0,12,13
 438 822 438 822 438 531 c 0,0,1
35 469 m 0,14,15
 35 707 35 707 179.5 852 c 128,-1,16
 324 997 324 997 573 997 c 0,17,18
 692 997 692 997 786 970 c 128,-1,19
 880 943 880 943 951.5 886 c 128,-1,20
 1023 829 1023 829 1061.5 732.5 c 128,-1,21
 1100 636 1100 636 1100 504 c 0,22,23
 1100 336 1100 336 1023.5 214 c 128,-1,24
 947 92 947 92 820.5 32.5 c 128,-1,25
 694 -27 694 -27 533 -27 c 0,26,27
 285 -27 285 -27 160 107 c 128,-1,28
 35 241 35 241 35 469 c 0,14,15
EndSplineSet
Colour: ffffff
EndChar

StartChar: oacute
Encoding: 243 243 140
Width: 1135
VWidth: 0
Flags: MW
LayerCount: 2
Fore
SplineSet
404 1064 m 1,0,-1
 549 1369 l 1,1,-1
 899 1359 l 1,2,-1
 638 1038 l 1,3,-1
 404 1064 l 1,0,-1
438 531 m 0,4,5
 438 483 438 483 443.5 428 c 128,-1,6
 449 373 449 373 462.5 309.5 c 128,-1,7
 476 246 476 246 504 204.5 c 128,-1,8
 532 163 532 163 571 163 c 0,9,10
 681 163 681 163 681 494 c 0,11,12
 681 547 681 547 673 602 c 128,-1,13
 665 657 665 657 649 707.5 c 128,-1,14
 633 758 633 758 605 790 c 128,-1,15
 577 822 577 822 542 822 c 0,16,17
 438 822 438 822 438 531 c 0,4,5
35 469 m 0,18,19
 35 707 35 707 179.5 852 c 128,-1,20
 324 997 324 997 573 997 c 0,21,22
 692 997 692 997 786 970 c 128,-1,23
 880 943 880 943 951.5 886 c 128,-1,24
 1023 829 1023 829 1061.5 732.5 c 128,-1,25
 1100 636 1100 636 1100 504 c 0,26,27
 1100 336 1100 336 1023.5 214 c 128,-1,28
 947 92 947 92 820.5 32.5 c 128,-1,29
 694 -27 694 -27 533 -27 c 0,30,31
 285 -27 285 -27 160 107 c 128,-1,32
 35 241 35 241 35 469 c 0,18,19
EndSplineSet
Colour: ffffff
EndChar

StartChar: ocircumflex
Encoding: 244 244 141
Width: 1135
VWidth: 0
Flags: MW
LayerCount: 2
Fore
SplineSet
257 1043 m 1,0,-1
 410 1298 l 1,1,-1
 735 1298 l 1,2,-1
 889 1043 l 1,3,-1
 636 1034 l 1,4,-1
 572 1155 l 1,5,-1
 558 1155 l 1,6,-1
 490 1033 l 1,7,-1
 257 1043 l 1,0,-1
438 531 m 0,8,9
 438 483 438 483 443.5 428 c 128,-1,10
 449 373 449 373 462.5 309.5 c 128,-1,11
 476 246 476 246 504 204.5 c 128,-1,12
 532 163 532 163 571 163 c 0,13,14
 681 163 681 163 681 494 c 0,15,16
 681 547 681 547 673 602 c 128,-1,17
 665 657 665 657 649 707.5 c 128,-1,18
 633 758 633 758 605 790 c 128,-1,19
 577 822 577 822 542 822 c 0,20,21
 438 822 438 822 438 531 c 0,8,9
35 469 m 0,22,23
 35 707 35 707 179.5 852 c 128,-1,24
 324 997 324 997 573 997 c 0,25,26
 692 997 692 997 786 970 c 128,-1,27
 880 943 880 943 951.5 886 c 128,-1,28
 1023 829 1023 829 1061.5 732.5 c 128,-1,29
 1100 636 1100 636 1100 504 c 0,30,31
 1100 336 1100 336 1023.5 214 c 128,-1,32
 947 92 947 92 820.5 32.5 c 128,-1,33
 694 -27 694 -27 533 -27 c 0,34,35
 285 -27 285 -27 160 107 c 128,-1,36
 35 241 35 241 35 469 c 0,22,23
EndSplineSet
Colour: ffffff
EndChar

StartChar: odieresis
Encoding: 246 246 142
Width: 1135
VWidth: 0
Flags: MW
LayerCount: 2
Fore
SplineSet
577 1144 m 0,0,1
 577 1186 577 1186 609.5 1218.5 c 128,-1,2
 642 1251 642 1251 715 1251 c 0,3,4
 792 1251 792 1251 825 1219.5 c 128,-1,5
 858 1188 858 1188 858 1146 c 0,6,7
 858 1037 858 1037 714 1037 c 0,8,9
 577 1037 577 1037 577 1144 c 0,0,1
268 1144 m 0,10,11
 268 1186 268 1186 300.5 1218.5 c 128,-1,12
 333 1251 333 1251 406 1251 c 0,13,14
 483 1251 483 1251 516 1219.5 c 128,-1,15
 549 1188 549 1188 549 1146 c 0,16,17
 549 1037 549 1037 405 1037 c 0,18,19
 268 1037 268 1037 268 1144 c 0,10,11
438 531 m 0,20,21
 438 483 438 483 443.5 428 c 128,-1,22
 449 373 449 373 462.5 309.5 c 128,-1,23
 476 246 476 246 504 204.5 c 128,-1,24
 532 163 532 163 571 163 c 0,25,26
 681 163 681 163 681 494 c 0,27,28
 681 547 681 547 673 602 c 128,-1,29
 665 657 665 657 649 707.5 c 128,-1,30
 633 758 633 758 605 790 c 128,-1,31
 577 822 577 822 542 822 c 0,32,33
 438 822 438 822 438 531 c 0,20,21
35 469 m 0,34,35
 35 707 35 707 179.5 852 c 128,-1,36
 324 997 324 997 573 997 c 0,37,38
 692 997 692 997 786 970 c 128,-1,39
 880 943 880 943 951.5 886 c 128,-1,40
 1023 829 1023 829 1061.5 732.5 c 128,-1,41
 1100 636 1100 636 1100 504 c 0,42,43
 1100 336 1100 336 1023.5 214 c 128,-1,44
 947 92 947 92 820.5 32.5 c 128,-1,45
 694 -27 694 -27 533 -27 c 0,46,47
 285 -27 285 -27 160 107 c 128,-1,48
 35 241 35 241 35 469 c 0,34,35
EndSplineSet
Colour: ffffff
EndChar

StartChar: ograve
Encoding: 242 242 143
Width: 1135
VWidth: 0
Flags: MW
LayerCount: 2
Fore
SplineSet
180 1358 m 1,0,-1
 530 1368 l 1,1,-1
 675 1063 l 1,2,-1
 441 1037 l 1,3,-1
 180 1358 l 1,0,-1
438 531 m 0,4,5
 438 483 438 483 443.5 428 c 128,-1,6
 449 373 449 373 462.5 309.5 c 128,-1,7
 476 246 476 246 504 204.5 c 128,-1,8
 532 163 532 163 571 163 c 0,9,10
 681 163 681 163 681 494 c 0,11,12
 681 547 681 547 673 602 c 128,-1,13
 665 657 665 657 649 707.5 c 128,-1,14
 633 758 633 758 605 790 c 128,-1,15
 577 822 577 822 542 822 c 0,16,17
 438 822 438 822 438 531 c 0,4,5
35 469 m 0,18,19
 35 707 35 707 179.5 852 c 128,-1,20
 324 997 324 997 573 997 c 0,21,22
 692 997 692 997 786 970 c 128,-1,23
 880 943 880 943 951.5 886 c 128,-1,24
 1023 829 1023 829 1061.5 732.5 c 128,-1,25
 1100 636 1100 636 1100 504 c 0,26,27
 1100 336 1100 336 1023.5 214 c 128,-1,28
 947 92 947 92 820.5 32.5 c 128,-1,29
 694 -27 694 -27 533 -27 c 0,30,31
 285 -27 285 -27 160 107 c 128,-1,32
 35 241 35 241 35 469 c 0,18,19
EndSplineSet
Colour: ffffff
EndChar

StartChar: one
Encoding: 49 49 144
Width: 890
VWidth: 0
Flags: MW
LayerCount: 2
Fore
SplineSet
45 -5 m 1,0,-1
 62 124 l 1,1,-1
 266 191 l 1,2,-1
 266 745 l 1,3,-1
 70 745 l 1,4,-1
 82 912 l 1,5,-1
 538 1016 l 1,6,-1
 629 1016 l 1,7,-1
 629 178 l 1,8,-1
 846 132 l 1,9,-1
 833 -5 l 1,10,-1
 45 -5 l 1,0,-1
EndSplineSet
Colour: ffffff
EndChar

StartChar: onehalf
Encoding: 189 189 145
Width: 1928
VWidth: 0
Flags: MW
LayerCount: 2
Fore
SplineSet
1210 118 m 1,0,-1
 1326 201 l 2,1,2
 1422 270 1422 270 1471 339 c 128,-1,3
 1520 408 1520 408 1520 456 c 0,4,5
 1520 485 1520 485 1501 501.5 c 128,-1,6
 1482 518 1482 518 1448 518 c 0,7,8
 1431 518 1431 518 1401 507 c 1,9,-1
 1361 334 l 1,10,-1
 1252 344 l 1,11,-1
 1210 572 l 1,12,13
 1267 625 1267 625 1357.5 656.5 c 128,-1,14
 1448 688 1448 688 1553 688 c 0,15,16
 1629 688 1629 688 1689 669 c 128,-1,17
 1749 650 1749 650 1782.5 620.5 c 128,-1,18
 1816 591 1816 591 1833 559 c 128,-1,19
 1850 527 1850 527 1850 497 c 0,20,21
 1850 443 1850 443 1822 392.5 c 128,-1,22
 1794 342 1794 342 1748 304 c 128,-1,23
 1702 266 1702 266 1656 239 c 128,-1,24
 1610 212 1610 212 1560 192 c 2,25,-1
 1480 159 l 1,26,-1
 1681 139 l 1,27,-1
 1769 260 l 1,28,-1
 1880 254 l 1,29,-1
 1846 -60 l 1,30,-1
 1224 -60 l 1,31,-1
 1210 118 l 1,0,-1
269 35 m 1,32,-1
 826 588 l 1,33,-1
 1369 1207 l 1,34,-1
 1671 1205 l 1,35,-1
 1671 1130 l 1,36,-1
 1130 591 l 1,37,-1
 637 -19 l 1,38,-1
 269 35 l 1,32,-1
45 528 m 1,39,-1
 60 658 l 1,40,-1
 188 693 l 1,41,-1
 188 1073 l 1,42,-1
 67 1073 l 1,43,-1
 78 1241 l 1,44,-1
 456 1274 l 1,45,-1
 525 1274 l 1,46,-1
 525 686 l 1,47,-1
 662 666 l 1,48,-1
 655 528 l 1,49,-1
 45 528 l 1,39,-1
EndSplineSet
Colour: ffffff
EndChar

StartChar: onequarter
Encoding: 188 188 146
Width: 1865
VWidth: 0
Flags: MW
LayerCount: 2
Fore
SplineSet
1279 275 m 1,0,-1
 1404 275 l 1,1,-1
 1404 441 l 1,2,-1
 1279 275 l 1,0,-1
1076 295 m 1,3,-1
 1574 707 l 1,4,-1
 1685 681 l 1,5,6
 1674 553 1674 553 1674 425 c 2,7,-1
 1674 314 l 1,8,-1
 1822 314 l 1,9,-1
 1813 145 l 1,10,-1
 1674 145 l 1,11,-1
 1674 63 l 1,12,-1
 1773 35 l 1,13,-1
 1766 -60 l 1,14,-1
 1281 -60 l 1,15,-1
 1286 30 l 1,16,-1
 1385 62 l 1,17,-1
 1385 148 l 1,18,-1
 1091 148 l 1,19,-1
 1076 295 l 1,3,-1
269 35 m 1,20,-1
 826 588 l 1,21,-1
 1369 1207 l 1,22,-1
 1671 1205 l 1,23,-1
 1671 1130 l 1,24,-1
 1130 591 l 1,25,-1
 637 -19 l 1,26,-1
 269 35 l 1,20,-1
45 528 m 1,27,-1
 60 658 l 1,28,-1
 188 693 l 1,29,-1
 188 1073 l 1,30,-1
 67 1073 l 1,31,-1
 78 1241 l 1,32,-1
 456 1274 l 1,33,-1
 525 1274 l 1,34,-1
 525 686 l 1,35,-1
 662 666 l 1,36,-1
 655 528 l 1,37,-1
 45 528 l 1,27,-1
EndSplineSet
Colour: ffffff
EndChar

StartChar: one.superior
Encoding: 185 185 147
Width: 718
VWidth: 0
Flags: MW
LayerCount: 2
Fore
SplineSet
50 528 m 1,0,-1
 65 658 l 1,1,-1
 193 693 l 1,2,-1
 193 1073 l 1,3,-1
 72 1073 l 1,4,-1
 83 1241 l 1,5,-1
 461 1274 l 1,6,-1
 530 1274 l 1,7,-1
 530 686 l 1,8,-1
 667 666 l 1,9,-1
 660 528 l 1,10,-1
 50 528 l 1,0,-1
EndSplineSet
Colour: ffffff
EndChar

StartChar: ordfeminine
Encoding: 170 170 148
Width: 836
VWidth: 0
Flags: MW
LayerCount: 2
Fore
SplineSet
310 749 m 0,0,1
 310 690 310 690 364 690 c 0,2,3
 388 690 388 690 420 713 c 1,4,-1
 420 834 l 1,5,6
 385 830 385 830 361.5 821 c 128,-1,7
 338 812 338 812 327.5 799.5 c 128,-1,8
 317 787 317 787 313.5 775.5 c 128,-1,9
 310 764 310 764 310 749 c 0,0,1
53 676 m 0,10,11
 53 788 53 788 151 862.5 c 128,-1,12
 249 937 249 937 420 936 c 1,13,-1
 420 1012 l 2,14,15
 420 1067 420 1067 395 1099.5 c 128,-1,16
 370 1132 370 1132 329 1132 c 0,17,18
 301 1132 301 1132 291 1101 c 128,-1,19
 281 1070 281 1070 273 968 c 1,20,21
 232 968 232 968 201.5 972 c 128,-1,22
 171 976 171 976 141.5 986 c 128,-1,23
 112 996 112 996 96 1018 c 128,-1,24
 80 1040 80 1040 80 1072 c 0,25,26
 80 1117 80 1117 136.5 1167 c 128,-1,27
 193 1217 193 1217 280 1251 c 128,-1,28
 367 1285 367 1285 448 1285 c 0,29,30
 495 1285 495 1285 535.5 1272 c 128,-1,31
 576 1259 576 1259 611 1231.5 c 128,-1,32
 646 1204 646 1204 666 1155 c 128,-1,33
 686 1106 686 1106 686 1039 c 2,34,-1
 686 825 l 2,35,36
 686 754 686 754 699.5 729.5 c 128,-1,37
 713 705 713 705 764 694 c 2,38,-1
 787 689 l 1,39,-1
 767 553 l 1,40,41
 689 507 689 507 598 507 c 0,42,43
 535 507 535 507 503.5 529 c 128,-1,44
 472 551 472 551 452 601 c 2,45,-1
 448 611 l 1,46,-1
 438 616 l 1,47,48
 421 570 421 570 358.5 539 c 128,-1,49
 296 508 296 508 230 508 c 0,50,51
 147 508 147 508 100 550 c 128,-1,52
 53 592 53 592 53 676 c 0,10,11
EndSplineSet
Colour: ffffff
EndChar

StartChar: ordmasculine
Encoding: 186 186 149
Width: 889
VWidth: 0
Flags: MW
LayerCount: 2
Fore
SplineSet
338 951 m 0,0,1
 338 800 338 800 366 731.5 c 128,-1,2
 394 663 394 663 465 663 c 0,3,4
 514 663 514 663 530.5 694 c 128,-1,5
 547 725 547 725 547 814 c 0,6,7
 547 851 547 851 546.5 870 c 128,-1,8
 546 889 546 889 545 923 c 128,-1,9
 544 957 544 957 540.5 976.5 c 128,-1,10
 537 996 537 996 532 1022.5 c 128,-1,11
 527 1049 527 1049 518 1064 c 128,-1,12
 509 1079 509 1079 496.5 1094.5 c 128,-1,13
 484 1110 484 1110 466.5 1116.5 c 128,-1,14
 449 1123 449 1123 427 1123 c 0,15,16
 373 1123 373 1123 355.5 1082.5 c 128,-1,17
 338 1042 338 1042 338 951 c 0,0,1
51 900 m 0,18,19
 51 988 51 988 89 1063.5 c 128,-1,20
 127 1139 127 1139 187.5 1187 c 128,-1,21
 248 1235 248 1235 318.5 1262 c 128,-1,22
 389 1289 389 1289 457 1289 c 0,23,24
 641 1289 641 1289 739 1196.5 c 128,-1,25
 837 1104 837 1104 837 920 c 0,26,27
 837 732 837 732 727 619.5 c 128,-1,28
 617 507 617 507 440 507 c 0,29,30
 355 507 355 507 287 529 c 128,-1,31
 219 551 219 551 175.5 588 c 128,-1,32
 132 625 132 625 103.5 676 c 128,-1,33
 75 727 75 727 63 782.5 c 128,-1,34
 51 838 51 838 51 900 c 0,18,19
EndSplineSet
Colour: ffffff
EndChar

StartChar: oslash
Encoding: 248 248 150
Width: 1227
VWidth: 0
Flags: MW
LayerCount: 2
Fore
SplineSet
83 469 m 0,0,1
 83 707 83 707 227.5 852 c 128,-1,2
 372 997 372 997 621 997 c 0,3,4
 823 997 823 997 949 922 c 1,5,-1
 1011 965 l 1,6,-1
 1196 900 l 1,7,-1
 1069 808 l 1,8,9
 1148 691 1148 691 1148 504 c 0,10,11
 1148 336 1148 336 1071.5 214 c 128,-1,12
 995 92 995 92 868.5 32.5 c 128,-1,13
 742 -27 742 -27 581 -27 c 0,14,15
 400 -27 400 -27 281 48 c 1,16,-1
 220 1 l 1,17,-1
 32 65 l 1,18,-1
 158 171 l 1,19,20
 83 291 83 291 83 469 c 0,0,1
510 311 m 1,21,22
 545 163 545 163 619 163 c 0,23,24
 729 163 729 163 729 494 c 0,25,26
 729 512 729 512 728 531 c 1,27,-1
 510 311 l 1,21,22
491 430 m 1,28,-1
 712 651 l 1,29,30
 695 727 695 727 664.5 774.5 c 128,-1,31
 634 822 634 822 590 822 c 0,32,33
 486 822 486 822 486 531 c 0,34,35
 486 483 486 483 491 430 c 1,28,-1
EndSplineSet
Colour: ffffff
EndChar

StartChar: otilde
Encoding: 245 245 151
Width: 1135
VWidth: 0
Flags: MW
LayerCount: 2
Fore
SplineSet
249 1046 m 1,0,1
 251 1126 251 1126 267.5 1182.5 c 128,-1,2
 284 1239 284 1239 311 1270 c 128,-1,3
 338 1301 338 1301 377 1313.5 c 128,-1,4
 416 1326 416 1326 459 1322.5 c 128,-1,5
 502 1319 502 1319 554 1303 c 2,6,-1
 624 1281 l 2,7,8
 691 1259 691 1259 726 1269.5 c 128,-1,9
 761 1280 761 1280 775 1331 c 1,10,-1
 890 1320 l 1,11,12
 880 1134 880 1134 807.5 1076 c 128,-1,13
 735 1018 735 1018 596 1061 c 2,14,-1
 530 1081 l 1,15,16
 443 1105 443 1105 413.5 1095 c 128,-1,17
 384 1085 384 1085 366 1035 c 1,18,-1
 249 1046 l 1,0,1
438 531 m 0,19,20
 438 483 438 483 443.5 428 c 128,-1,21
 449 373 449 373 462.5 309.5 c 128,-1,22
 476 246 476 246 504 204.5 c 128,-1,23
 532 163 532 163 571 163 c 0,24,25
 681 163 681 163 681 494 c 0,26,27
 681 547 681 547 673 602 c 128,-1,28
 665 657 665 657 649 707.5 c 128,-1,29
 633 758 633 758 605 790 c 128,-1,30
 577 822 577 822 542 822 c 0,31,32
 438 822 438 822 438 531 c 0,19,20
35 469 m 0,33,34
 35 707 35 707 179.5 852 c 128,-1,35
 324 997 324 997 573 997 c 0,36,37
 692 997 692 997 786 970 c 128,-1,38
 880 943 880 943 951.5 886 c 128,-1,39
 1023 829 1023 829 1061.5 732.5 c 128,-1,40
 1100 636 1100 636 1100 504 c 0,41,42
 1100 336 1100 336 1023.5 214 c 128,-1,43
 947 92 947 92 820.5 32.5 c 128,-1,44
 694 -27 694 -27 533 -27 c 0,45,46
 285 -27 285 -27 160 107 c 128,-1,47
 35 241 35 241 35 469 c 0,33,34
EndSplineSet
Colour: ffffff
EndChar

StartChar: p
Encoding: 112 112 152
Width: 1116
VWidth: 0
Flags: MW
LayerCount: 2
Back
SplineSet
-138 1043 m 5,0,-1
 -110 1208 l 1,1,-1
 266 1234 l 1,2,-1
 323 1180 l 1,3,-1
 323 878 l 1,4,-1
 308 777 l 1,5,-1
 323 771 l 1,6,7
 396 852 396 852 453.5 891 c 0
 511 930 511 930 587 930 c 0,8,9
 748 930 748 930 844 810 c 0
 940 690 940 690 940 497 c 0,10,11
 940 382 940 382 893 282.5 c 0
 846 183 846 183 770 117 c 0
 694 51 694 51 598 14 c 0
 502 -23 502 -23 404 -23 c 0,12,13
 318 -23 318 -23 194.5 -4 c 0
 71 15 71 15 7 51 c 1,14,-1
 7 943 l 1,15,-1
 -138 1043 l 5,0,-1
323 279 m 5,16,17
 386.767 221.946 386.767 221.946 448.382 221.946 c 0,18,19
 511.165 221.946 511.165 221.946 551.123 281.646 c 0
 591.082 341.347 591.082 341.347 591.082 447.165 c 0,20,21
 591.082 526.307 591.082 526.307 560.523 580.75 c 0
 529.964 635.194 529.964 635.194 470.821 635.194 c 0,22,23
 407.811 635.194 407.811 635.194 323 568 c 1,24,-1
 323 279 l 5,16,17
EndSplineSet
Fore
SplineSet
33 0 m 1,0,-1
 55 138 l 1,1,-1
 192 217 l 1,2,-1
 192 758 l 1,3,-1
 52 802 l 1,4,-1
 65 961 l 1,5,6
 372 997 372 997 600 997 c 0,7,8
 834 997 834 997 958 923.5 c 128,-1,9
 1082 850 1082 850 1082 675 c 0,10,11
 1082 485 1082 485 947.5 380 c 128,-1,12
 813 275 813 275 600 298 c 1,13,-1
 568 452 l 1,14,-1
 589 452 l 2,15,16
 650 452 650 452 681 497 c 128,-1,17
 712 542 712 542 712 617 c 0,18,19
 712 694 712 694 677.5 737 c 128,-1,20
 643 780 643 780 580 780 c 0,21,22
 564 780 564 780 546 777 c 1,23,-1
 546 233 l 1,24,-1
 727 164 l 1,25,-1
 703 0 l 1,26,-1
 33 0 l 1,0,-1
EndSplineSet
Colour: ffffff
EndChar

StartChar: paragraph
Encoding: 182 182 153
Width: 1473
VWidth: 0
Flags: MW
LayerCount: 2
Fore
SplineSet
983 0 m 1,0,-1
 983 979 l 1,1,-1
 1439 979 l 1,2,-1
 1419 827 l 1,3,-1
 1257 756 l 1,4,-1
 1257 212 l 1,5,-1
 1436 146 l 1,6,-1
 1423 0 l 1,7,-1
 983 0 l 1,0,-1
33 637 m 0,8,9
 33 799 33 799 158.5 889 c 128,-1,10
 284 979 284 979 508 979 c 2,11,-1
 907 979 l 1,12,-1
 907 0 l 1,13,-1
 394 0 l 1,14,-1
 405 136 l 1,15,-1
 625 216 l 1,16,-1
 625 807 l 1,17,18
 564 818 564 818 514 818 c 0,19,20
 330 818 330 818 330 671 c 0,21,22
 330 522 330 522 568 507 c 1,23,-1
 545 322 l 1,24,25
 279 322 279 322 156 406.5 c 128,-1,26
 33 491 33 491 33 637 c 0,8,9
EndSplineSet
Colour: ffffff
EndChar

StartChar: parenleft
Encoding: 40 40 154
Width: 569
VWidth: 0
Flags: MW
LayerCount: 2
Fore
SplineSet
491 -278 m 1,0,-1
 360 -376 l 1,1,2
 359 -375 359 -375 339.5 -356 c 128,-1,3
 320 -337 320 -337 306 -323 c 128,-1,4
 292 -309 292 -309 265.5 -279 c 128,-1,5
 239 -249 239 -249 218.5 -221 c 128,-1,6
 198 -193 198 -193 171 -150 c 128,-1,7
 144 -107 144 -107 123.5 -64.5 c 128,-1,8
 103 -22 103 -22 82 35 c 128,-1,9
 61 92 61 92 47.5 150 c 128,-1,10
 34 208 34 208 25.5 279.5 c 128,-1,11
 17 351 17 351 17 426 c 0,12,13
 17 533 17 533 33 633.5 c 128,-1,14
 49 734 49 734 72.5 809.5 c 128,-1,15
 96 885 96 885 130 955 c 128,-1,16
 164 1025 164 1025 194.5 1071 c 128,-1,17
 225 1117 225 1117 260.5 1158.5 c 128,-1,18
 296 1200 296 1200 316 1219.5 c 128,-1,19
 336 1239 336 1239 355 1255 c 1,20,-1
 485 1130 l 1,21,22
 448 1082 448 1082 423 1034.5 c 128,-1,23
 398 987 398 987 374 910.5 c 128,-1,24
 350 834 350 834 338 720.5 c 128,-1,25
 326 607 326 607 326 454 c 0,26,27
 326 258 326 258 350 110 c 128,-1,28
 374 -38 374 -38 407 -120 c 128,-1,29
 440 -202 440 -202 491 -278 c 1,0,-1
EndSplineSet
Colour: ffffff
EndChar

StartChar: parenright
Encoding: 41 41 155
Width: 568
VWidth: 0
Flags: MW
LayerCount: 2
Fore
SplineSet
39 -278 m 1,0,1
 90 -202 90 -202 123 -120 c 128,-1,2
 156 -38 156 -38 180 110 c 128,-1,3
 204 258 204 258 204 454 c 0,4,5
 204 607 204 607 192 720.5 c 128,-1,6
 180 834 180 834 156 910.5 c 128,-1,7
 132 987 132 987 107 1034.5 c 128,-1,8
 82 1082 82 1082 45 1130 c 1,9,-1
 175 1255 l 1,10,11
 194 1239 194 1239 214 1219.5 c 128,-1,12
 234 1200 234 1200 269.5 1158.5 c 128,-1,13
 305 1117 305 1117 335.5 1071 c 128,-1,14
 366 1025 366 1025 400 955 c 128,-1,15
 434 885 434 885 457.5 809.5 c 128,-1,16
 481 734 481 734 497 633.5 c 128,-1,17
 513 533 513 533 513 426 c 0,18,19
 513 351 513 351 504.5 279.5 c 128,-1,20
 496 208 496 208 482.5 150 c 128,-1,21
 469 92 469 92 448 35 c 128,-1,22
 427 -22 427 -22 406.5 -64.5 c 128,-1,23
 386 -107 386 -107 359 -150 c 128,-1,24
 332 -193 332 -193 311.5 -221 c 128,-1,25
 291 -249 291 -249 264.5 -279 c 128,-1,26
 238 -309 238 -309 224 -323 c 128,-1,27
 210 -337 210 -337 190.5 -356 c 128,-1,28
 171 -375 171 -375 170 -376 c 1,29,-1
 39 -278 l 1,0,1
EndSplineSet
Colour: ffffff
EndChar

StartChar: percent
Encoding: 37 37 156
Width: 1326
VWidth: 0
Flags: MW
LayerCount: 2
Back
SplineSet
-151 892 m 0,0,1
 -151 973 -151 973 -92.5 1047 c 0
 -34 1121 -34 1121 52.5 1163 c 0
 139 1205 139 1205 224 1205 c 0,2,3
 364 1205 364 1205 470 1112.5 c 0
 576 1020 576 1020 576 889 c 0,4,5
 576 808 576 808 522 735 c 0
 468 662 468 662 387.5 621 c 0
 307 580 307 580 226 580 c 0,6,7
 63 580 63 580 -44 666 c 0
 -151 752 -151 752 -151 892 c 0,0,1
159 882 m 0,8,9
 159 832 159 832 161 803.5 c 0
 163 775 163 775 169.5 749.5 c 0
 176 724 176 724 190 713.5 c 0
 204 703 204 703 226 703 c 0,10,11
 257 703 257 703 268.5 745.5 c 0
 280 788 280 788 280 885 c 0,12,13
 280 978 280 978 265.5 1034 c 0
 251 1090 251 1090 224 1090 c 0,14,15
 186 1090 186 1090 172.5 1036 c 0
 159 982 159 982 159 882 c 0,8,9
EndSplineSet
Fore
SplineSet
975 234 m 0,0,1
 975 148 975 148 984.5 112.5 c 128,-1,2
 994 77 994 77 1026 77 c 0,3,4
 1050 77 1050 77 1058.5 115 c 128,-1,5
 1067 153 1067 153 1067 237 c 0,6,7
 1067 417 1067 417 1025 417 c 0,8,9
 995 417 995 417 985 369.5 c 128,-1,10
 975 322 975 322 975 234 c 0,0,1
740 243 m 0,11,12
 740 351 740 351 832 434.5 c 128,-1,13
 924 518 924 518 1025 518 c 0,14,15
 1132 518 1132 518 1212 437 c 128,-1,16
 1292 356 1292 356 1292 240 c 0,17,18
 1292 132 1292 132 1207 50 c 128,-1,19
 1122 -32 1122 -32 1026 -32 c 0,20,21
 902 -32 902 -32 821 44 c 128,-1,22
 740 120 740 120 740 243 c 0,11,12
128 31 m 1,23,-1
 571 517 l 1,24,-1
 873 906 l 1,25,-1
 501 890 l 1,26,27
 581 819 581 819 581 706 c 0,28,29
 581 594 581 594 496.5 510.5 c 128,-1,30
 412 427 412 427 313 426 c 0,31,32
 186 425 186 425 109 500.5 c 128,-1,33
 32 576 32 576 32 706 c 0,34,35
 32 765 32 765 70.5 829 c 128,-1,36
 109 893 109 893 173 936.5 c 128,-1,37
 237 980 237 980 302 980 c 0,38,39
 309 980 309 980 319 978 c 1,40,-1
 326 874 l 2,41,42
 325 874 325 874 318.5 875 c 128,-1,43
 312 876 312 876 311 876 c 0,44,45
 265 876 265 876 265 706 c 2,46,47
 265 700 l 2,48,49
 265 652 265 652 266 629.5 c 128,-1,50
 267 607 267 607 271 579 c 128,-1,51
 275 551 275 551 285.5 540 c 128,-1,52
 296 529 296 529 313 529 c 0,53,54
 340 529 340 529 349.5 573.5 c 128,-1,55
 359 618 359 618 359 706 c 0,56,57
 359 895 359 895 352 980 c 1,58,-1
 929 979 l 1,59,-1
 1179 978 l 1,60,-1
 1179 912 l 1,61,-1
 822 520 l 1,62,-1
 427 -17 l 1,63,-1
 128 31 l 1,23,-1
EndSplineSet
Colour: ffffff
EndChar

StartChar: period
Encoding: 46 46 157
Width: 546
VWidth: 0
Flags: MW
LayerCount: 2
Fore
SplineSet
60 127 m 0,0,1
 60 187 60 187 109.5 233.5 c 128,-1,2
 159 280 159 280 269 280 c 0,3,4
 386 280 386 280 436.5 234.5 c 128,-1,5
 487 189 487 189 487 130 c 0,6,7
 487 -26 487 -26 268 -26 c 0,8,9
 60 -26 60 -26 60 127 c 0,0,1
EndSplineSet
Colour: ffffff
EndChar

StartChar: periodcentered
Encoding: 183 183 158
Width: 541
VWidth: 0
Flags: MW
LayerCount: 2
Fore
SplineSet
117 505 m 0,0,1
 117 565 117 565 166.5 611.5 c 128,-1,2
 216 658 216 658 326 658 c 0,3,4
 443 658 443 658 493.5 612.5 c 128,-1,5
 544 567 544 567 544 508 c 0,6,7
 544 352 544 352 325 352 c 0,8,9
 117 352 117 352 117 505 c 0,0,1
EndSplineSet
Colour: ffffff
EndChar

StartChar: plus
Encoding: 43 43 159
Width: 747
VWidth: 0
Flags: MW
LayerCount: 2
Fore
SplineSet
53 376 m 1,0,-1
 61 541 l 1,1,-1
 280 541 l 1,2,-1
 280 786 l 1,3,-1
 468 774 l 1,4,-1
 468 541 l 1,5,-1
 694 541 l 1,6,-1
 681 376 l 1,7,-1
 468 376 l 1,8,-1
 468 142 l 1,9,-1
 280 146 l 1,10,-1
 280 376 l 1,11,-1
 53 376 l 1,0,-1
EndSplineSet
Colour: ffffff
EndChar

StartChar: plusminus
Encoding: 177 177 160
Width: 743
VWidth: 0
Flags: MW
LayerCount: 2
Fore
SplineSet
133 141 m 1,0,-1
 148 319 l 1,1,-1
 728 341 l 1,2,-1
 713 156 l 1,3,-1
 133 141 l 1,0,-1
104 610 m 1,4,-1
 112 775 l 1,5,-1
 331 775 l 1,6,-1
 331 1020 l 1,7,-1
 519 1008 l 1,8,-1
 519 775 l 1,9,-1
 745 775 l 1,10,-1
 732 610 l 1,11,-1
 519 610 l 1,12,-1
 519 376 l 1,13,-1
 331 380 l 1,14,-1
 331 610 l 1,15,-1
 104 610 l 1,4,-1
EndSplineSet
Colour: ffffff
EndChar

StartChar: q
Encoding: 113 113 161
Width: 1119
VWidth: 0
Flags: MW
LayerCount: 2
Back
SplineSet
421.879 911.228 m 0,0,1
 429.797 911.228 429.797 911.228 451.027 912.378 c 0
 472.257 913.528 472.257 913.528 487.442 912.756 c 0
 502.627 911.985 502.627 911.985 517 908 c 1,2,-1
 521 908 l 1,3,-1
 511 956 l 1,4,-1
 511 972 l 1,5,-1
 338 1073 l 1,6,-1
 363 1237 l 1,7,-1
 753 1264 l 1,8,-1
 813 1209 l 1,9,-1
 813 375 l 2,10,11
 813 300 813 300 840 270.5 c 0
 867 241 867 241 951 214 c 2,12,-1
 979 205 l 1,13,-1
 954 35 l 1,14,15
 890.48 5.2142 890.48 5.2142 838.283 -8.8314 c 0
 786.085 -22.877 786.085 -22.877 717.626 -22.877 c 0,16,17
 565.952 -22.877 565.952 -22.877 516 107 c 2,18,-1
 511 120 l 1,19,-1
 498 126 l 1,20,21
 449 58 449 58 390.5 19.5 c 0
 332 -19 332 -19 238 -19 c 0,22,23
 159.176 -19 159.176 -19 96.3523 12.4288 c 0
 33.529 43.8577 33.529 43.8577 -5.51368 97.8223 c 0
 -44.5564 151.787 -44.5564 151.787 -65.0106 220.558 c 0
 -85.4648 289.328 -85.4648 289.328 -85.4648 367.182 c 0,24,25
 -85.4648 446.037 -85.4648 446.037 -65.3337 523.167 c 0
 -45.2026 600.297 -45.2026 600.297 -3.13428 670.387 c 0
 38.934 740.477 38.934 740.477 97.8851 793.948 c 0
 156.836 847.42 156.836 847.42 240.639 879.193 c 0
 324.442 910.966 324.442 910.966 421.879 911.228 c 0,0,1
391.334 252.902 m 0,26,27
 441.647 252.902 441.647 252.902 507 291 c 1,28,-1
 507 590 l 1,29,30
 432.985 679.759 432.985 679.759 370.759 679.759 c 0,31,32
 316.221 679.759 316.221 679.759 283.843 616.201 c 0
 251.466 552.644 251.466 552.644 251.466 467.423 c 0,33,34
 251.466 411.329 251.466 411.329 265.783 364.077 c 0
 280.1 316.825 280.1 316.825 312.742 284.863 c 0
 345.385 252.902 345.385 252.902 391.334 252.902 c 0,26,27
EndSplineSet
Fore
SplineSet
430 528 m 0,0,1
 430 367 430 367 470.5 266.5 c 128,-1,2
 511 166 511 166 589 147 c 1,3,4
 638 191 638 191 656 271.5 c 128,-1,5
 674 352 674 352 674 481 c 0,6,7
 674 534 674 534 668 586.5 c 128,-1,8
 662 639 662 639 647.5 695.5 c 128,-1,9
 633 752 633 752 603 787 c 128,-1,10
 573 822 573 822 531 822 c 0,11,12
 430 822 430 822 430 528 c 0,0,1
35 486 m 0,13,14
 35 711 35 711 188.5 854 c 128,-1,15
 342 997 342 997 589 997 c 0,16,17
 820 997 820 997 952 880.5 c 128,-1,18
 1084 764 1084 764 1084 521 c 0,19,20
 1084 326 1084 326 980.5 184 c 128,-1,21
 877 42 877 42 723 -4 c 1,22,23
 779 -141 779 -141 998 -180 c 1,24,-1
 977 -295 l 1,25,26
 877 -345 877 -345 775 -345 c 0,27,28
 640 -345 640 -345 563 -257.5 c 128,-1,29
 486 -170 486 -170 514 -26 c 1,30,31
 290 -25 290 -25 162.5 113 c 128,-1,32
 35 251 35 251 35 486 c 0,13,14
EndSplineSet
Colour: ffffff
EndChar

StartChar: question
Encoding: 63 63 162
Width: 751
VWidth: 0
Flags: MW
LayerCount: 2
Back
SplineSet
85 127 m 0,0,1
 85 187 85 187 134.5 233.5 c 0
 184 280 184 280 294 280 c 0,2,3
 411 280 411 280 461.5 234.5 c 0
 512 189 512 189 512 130 c 0,4,5
 512 -26 512 -26 293 -26 c 0,6,7
 85 -26 85 -26 85 127 c 0,0,1
0 1133 m 0,8,9
 0 1202 0 1202 55 1246.5 c 0
 110 1291 110 1291 231 1291 c 0,10,11
 308 1291 308 1291 387.5 1245.5 c 0
 467 1200 467 1200 526.5 1130.5 c 0
 586 1061 586 1061 623.5 974 c 0
 661 887 661 887 661 806 c 0,12,13
 661 630 661 630 493 561 c 0,14,15
 464 549 464 549 447 540.5 c 0
 430 532 430 532 410.5 517.5 c 0
 391 503 391 503 382 483.5 c 0
 373 464 373 464 373 439 c 0,16,17
 373 422 373 422 377 406 c 1,18,-1
 216 374 l 1,19,20
 170 443 170 443 146 516.5 c 0
 122 590 122 590 122 635 c 0,21,22
 122 681 122 681 155.5 714 c 0
 189 747 189 747 237.5 765.5 c 0
 286 784 286 784 334 802 c 0
 382 820 382 820 415.5 847.5 c 0
 449 875 449 875 449 913 c 0,23,24
 449 979 449 979 350 979 c 0,25,26
 293 979 293 979 227.5 958 c 0
 162 937 162 937 142 916 c 1,27,28
 92 928 92 928 46 995.5 c 0
 0 1063 0 1063 0 1133 c 0,8,9
EndSplineSet
Fore
SplineSet
128 127 m 0,0,1
 128 187 128 187 177.5 233.5 c 128,-1,2
 227 280 227 280 337 280 c 0,3,4
 454 280 454 280 504.5 234.5 c 128,-1,5
 555 189 555 189 555 130 c 0,6,7
 555 -26 555 -26 336 -26 c 0,8,9
 128 -26 128 -26 128 127 c 0,0,1
43 1133 m 0,10,11
 43 1202 43 1202 98 1246.5 c 128,-1,12
 153 1291 153 1291 274 1291 c 0,13,14
 351 1291 351 1291 430.5 1245.5 c 128,-1,15
 510 1200 510 1200 569.5 1130.5 c 128,-1,16
 629 1061 629 1061 666.5 974 c 128,-1,17
 704 887 704 887 704 806 c 0,18,19
 704 749 704 749 688 705.5 c 128,-1,20
 672 662 672 662 646.5 636.5 c 128,-1,21
 621 611 621 611 590.5 592 c 128,-1,22
 560 573 560 573 529.5 558.5 c 128,-1,23
 499 544 499 544 473.5 529.5 c 128,-1,24
 448 515 448 515 432 492.5 c 128,-1,25
 416 470 416 470 416 439 c 0,26,27
 416 414 416 414 429 362 c 1,28,-1
 259 374 l 1,29,30
 213 443 213 443 189 516.5 c 128,-1,31
 165 590 165 590 165 635 c 0,32,33
 165 681 165 681 198.5 715.5 c 128,-1,34
 232 750 232 750 280 770 c 128,-1,35
 328 790 328 790 376.5 807.5 c 128,-1,36
 425 825 425 825 458.5 848 c 128,-1,37
 492 871 492 871 492 900 c 0,38,39
 492 934 492 934 453 954.5 c 128,-1,40
 414 975 414 975 368 975 c 0,41,42
 309 975 309 975 241 956 c 128,-1,43
 173 937 173 937 154 916 c 1,44,45
 114 937 114 937 78.5 1001 c 128,-1,46
 43 1065 43 1065 43 1133 c 0,10,11
EndSplineSet
Colour: ffffff
EndChar

StartChar: questiondown
Encoding: 191 191 163
Width: 747
VWidth: 0
Flags: MW
LayerCount: 2
Fore
SplineSet
580 775 m 0,0,1
 580 715 580 715 530.5 668.5 c 128,-1,2
 481 622 481 622 371 622 c 0,3,4
 254 622 254 622 203.5 667.5 c 128,-1,5
 153 713 153 713 153 772 c 0,6,7
 153 928 153 928 372 928 c 0,8,9
 580 928 580 928 580 775 c 0,0,1
665 -231 m 0,10,11
 665 -300 665 -300 610 -344.5 c 128,-1,12
 555 -389 555 -389 434 -389 c 0,13,14
 357 -389 357 -389 277.5 -343.5 c 128,-1,15
 198 -298 198 -298 138.5 -228.5 c 128,-1,16
 79 -159 79 -159 41.5 -72 c 128,-1,17
 4 15 4 15 4 96 c 0,18,19
 4 153 4 153 20 196.5 c 128,-1,20
 36 240 36 240 61.5 265.5 c 128,-1,21
 87 291 87 291 117.5 310 c 128,-1,22
 148 329 148 329 178.5 343.5 c 128,-1,23
 209 358 209 358 234.5 372.5 c 128,-1,24
 260 387 260 387 276 409.5 c 128,-1,25
 292 432 292 432 292 463 c 0,26,27
 292 488 292 488 279 540 c 1,28,-1
 449 528 l 1,29,30
 495 459 495 459 519 385.5 c 128,-1,31
 543 312 543 312 543 267 c 0,32,33
 543 221 543 221 509.5 186.5 c 128,-1,34
 476 152 476 152 428 132 c 128,-1,35
 380 112 380 112 331.5 94.5 c 128,-1,36
 283 77 283 77 249.5 54 c 128,-1,37
 216 31 216 31 216 2 c 0,38,39
 216 -32 216 -32 255 -52.5 c 128,-1,40
 294 -73 294 -73 340 -73 c 0,41,42
 399 -73 399 -73 467 -54 c 128,-1,43
 535 -35 535 -35 554 -14 c 1,44,45
 594 -35 594 -35 629.5 -99 c 128,-1,46
 665 -163 665 -163 665 -231 c 0,10,11
EndSplineSet
Colour: ffffff
EndChar

StartChar: quotedbl
Encoding: 34 34 164
Width: 744
VWidth: 0
Flags: MW
LayerCount: 2
Fore
SplineSet
430 1302 m 1,0,-1
 741 1278 l 1,1,-1
 680 920 l 1,2,-1
 505 894 l 1,3,-1
 430 1302 l 1,0,-1
100 1302 m 1,4,-1
 411 1278 l 1,5,-1
 350 920 l 1,6,-1
 175 894 l 1,7,-1
 100 1302 l 1,4,-1
EndSplineSet
Colour: ffffff
EndChar

StartChar: quotesinglbase
Encoding: 8218 8218 165
Width: 564
VWidth: 0
Flags: MW
LayerCount: 2
Fore
SplineSet
122 96 m 0,0,1
 121 183 121 183 177.5 230.5 c 128,-1,2
 234 278 234 278 324 278 c 0,3,4
 567 278 567 278 567 12 c 0,5,6
 567 -52 567 -52 543.5 -113 c 128,-1,7
 520 -174 520 -174 473.5 -229 c 128,-1,8
 427 -284 427 -284 349.5 -323.5 c 128,-1,9
 272 -363 272 -363 173 -377 c 1,10,-1
 129 -259 l 1,11,12
 210 -232 210 -232 252 -181.5 c 128,-1,13
 294 -131 294 -131 294 -80 c 0,14,15
 294 -39 294 -39 269 -14.5 c 128,-1,16
 244 10 244 10 207 10 c 0,17,18
 179 10 179 10 153 -3 c 1,19,20
 122 49 122 49 122 96 c 0,0,1
EndSplineSet
Colour: ffffff
EndChar

StartChar: quotesingle
Encoding: 39 39 166
Width: 414
VWidth: 0
Flags: MW
LayerCount: 2
Fore
SplineSet
50 1302 m 1,0,-1
 361 1278 l 1,1,-1
 300 920 l 1,2,-1
 125 894 l 1,3,-1
 50 1302 l 1,0,-1
EndSplineSet
Colour: ffffff
EndChar

StartChar: r
Encoding: 114 114 167
Width: 1334
VWidth: 0
Flags: MW
LayerCount: 2
Back
SplineSet
-105 0 m 1,0,-1
 -88 157 l 1,1,-1
 54 229 l 1,2,-1
 54 640 l 1,3,-1
 -88 721 l 1,4,-1
 -61 889 l 1,5,-1
 342 918 l 1,6,-1
 380 879 l 1,7,-1
 357 777 l 1,8,-1
 372 771 l 1,9,10
 447.469 849.75 447.469 849.75 514.821 889.183 c 0
 582.173 928.617 582.173 928.617 661.449 928.617 c 0,11,12
 776.883 928.617 776.883 928.617 841.942 859.476 c 0
 907 790.336 907 790.336 907 641 c 2,13,-1
 907 229 l 1,14,-1
 1055 165 l 1,15,-1
 1032 0 l 1,16,-1
 596 0 l 1,17,-1
 596 157 l 1,18,-1
 596 229 l 1,19,-1
 596 429 l 2,20,21
 596 522.379 596 522.379 572.633 562.203 c 0
 549.266 602.028 549.266 602.028 501.271 602.028 c 0,22,23
 428.976 602.028 428.976 602.028 372 552 c 1,24,-1
 372 229 l 1,25,-1
 495 166 l 1,26,-1
 467 0 l 1,27,-1
 -105 0 l 1,0,-1
EndSplineSet
Fore
SplineSet
562 512 m 1,0,-1
 717 512 l 1,1,2
 764 561 764 561 764 658 c 0,3,4
 764 723 764 723 717 770 c 128,-1,5
 670 817 670 817 595 817 c 0,6,7
 573 817 573 817 562 816 c 1,8,-1
 562 512 l 1,0,-1
33 0 m 1,9,-1
 52 138 l 1,10,-1
 192 217 l 1,11,-1
 192 738 l 1,12,-1
 50 785 l 1,13,-1
 62 945 l 1,14,15
 295 997 295 997 619 997 c 0,16,17
 886 997 886 997 1015.5 930.5 c 128,-1,18
 1145 864 1145 864 1145 706 c 0,19,20
 1145 598 1145 598 1088.5 525 c 128,-1,21
 1032 452 1032 452 942 416 c 1,22,-1
 942 415 l 1,23,-1
 1003 353 l 2,24,25
 1098 256 1098 256 1154.5 211.5 c 128,-1,26
 1211 167 1211 167 1272 146 c 1,27,-1
 1301 133 l 1,28,-1
 1270 2 l 1,29,30
 1199 -27 1199 -27 1056 -27 c 0,31,32
 932 -27 932 -27 843.5 42.5 c 128,-1,33
 755 112 755 112 678 272 c 1,34,-1
 641 353 l 1,35,-1
 562 353 l 1,36,-1
 562 209 l 1,37,-1
 665 155 l 1,38,-1
 653 0 l 1,39,-1
 33 0 l 1,9,-1
EndSplineSet
Colour: ffffff
EndChar

StartChar: registered
Encoding: 174 174 168
Width: 1227
VWidth: 0
Flags: MW
LayerCount: 2
Fore
SplineSet
562 1073 m 1,0,-1
 621 1073 l 1,1,2
 646 1087 646 1087 655 1106.5 c 128,-1,3
 664 1126 664 1126 664 1160 c 0,4,5
 664 1202 664 1202 641.5 1229 c 128,-1,6
 619 1256 619 1256 573 1256 c 2,7,-1
 562 1256 l 1,8,-1
 562 1073 l 1,0,-1
291 773 m 1,9,-1
 300 835 l 1,10,-1
 375 870 l 1,11,-1
 375 1221 l 1,12,-1
 299 1242 l 1,13,-1
 305 1314 l 1,14,15
 355 1322 355 1322 448.5 1329.5 c 128,-1,16
 542 1337 542 1337 591 1337 c 0,17,18
 726 1337 726 1337 795.5 1301 c 128,-1,19
 865 1265 865 1265 865 1181 c 0,20,21
 865 1126 865 1126 826.5 1091.5 c 128,-1,22
 788 1057 788 1057 738 1040 c 1,23,-1
 738 1039 l 1,24,-1
 777 977 l 1,25,26
 825 903 825 903 929 843 c 1,27,-1
 947 833 l 1,28,-1
 933 774 l 1,29,30
 892 761 892 761 835 761 c 0,31,32
 753 761 753 761 695.5 803 c 128,-1,33
 638 845 638 845 615 918 c 2,34,-1
 595 979 l 1,35,-1
 562 979 l 1,36,-1
 562 876 l 1,37,-1
 616 842 l 1,38,-1
 611 773 l 1,39,-1
 291 773 l 1,9,-1
184 1036 m 0,40,41
 184 844 184 844 297 740 c 128,-1,42
 410 636 410 636 603 636 c 0,43,44
 809 636 809 636 925.5 738.5 c 128,-1,45
 1042 841 1042 841 1042 1016 c 0,46,47
 1042 1208 1042 1208 919 1317 c 128,-1,48
 796 1426 796 1426 605 1426 c 0,49,50
 184 1426 184 1426 184 1036 c 0,40,41
46 1022 m 0,51,52
 46 1128 46 1128 78.5 1216 c 128,-1,53
 111 1304 111 1304 165.5 1363.5 c 128,-1,54
 220 1423 220 1423 292.5 1464 c 128,-1,55
 365 1505 365 1505 443.5 1523.5 c 128,-1,56
 522 1542 522 1542 605 1542 c 0,57,58
 691 1542 691 1542 771 1525 c 128,-1,59
 851 1508 851 1508 926.5 1468.5 c 128,-1,60
 1002 1429 1002 1429 1057.5 1371 c 128,-1,61
 1113 1313 1113 1313 1146.5 1224.5 c 128,-1,62
 1180 1136 1180 1136 1180 1026 c 0,63,64
 1180 924 1180 924 1146 839 c 128,-1,65
 1112 754 1112 754 1055 696 c 128,-1,66
 998 638 998 638 922.5 597.5 c 128,-1,67
 847 557 847 557 764.5 538.5 c 128,-1,68
 682 520 682 520 595 520 c 0,69,70
 514 520 514 520 437 537.5 c 128,-1,71
 360 555 360 555 288.5 594 c 128,-1,72
 217 633 217 633 163.5 690 c 128,-1,73
 110 747 110 747 78 832.5 c 128,-1,74
 46 918 46 918 46 1022 c 0,51,52
EndSplineSet
Colour: ffffff
EndChar

StartChar: ring
Encoding: 730 730 169
Width: 700
VWidth: 0
Flags: MW
LayerCount: 2
Fore
SplineSet
277 1473 m 0,0,1
 277 1416 277 1416 345 1416 c 0,2,3
 371 1416 371 1416 391.5 1431 c 128,-1,4
 412 1446 412 1446 412 1473 c 128,-1,5
 412 1500 412 1500 390 1516 c 128,-1,6
 368 1532 368 1532 339 1532 c 0,7,8
 315 1532 315 1532 296 1515 c 128,-1,9
 277 1498 277 1498 277 1473 c 0,0,1
66 1468 m 0,10,11
 66 1544 66 1544 136.5 1592.5 c 128,-1,12
 207 1641 207 1641 350 1641 c 0,13,14
 635 1641 635 1641 635 1477 c 0,15,16
 635 1405 635 1405 562.5 1355.5 c 128,-1,17
 490 1306 490 1306 342 1306 c 0,18,19
 195 1306 195 1306 130.5 1348 c 128,-1,20
 66 1390 66 1390 66 1468 c 0,10,11
EndSplineSet
Colour: ffffff
EndChar

StartChar: s
Encoding: 115 115 170
Width: 889
VWidth: 0
Flags: MW
LayerCount: 2
Back
SplineSet
-70 141 m 4,0,1
 -70 193 -70 193 -34.5 230 c 0
 1 267 1 267 62 271 c 1,2,3
 93 168 93 168 142.5 116 c 0
 192 64 192 64 251 64 c 0,4,5
 309 64 309 64 346 88.5 c 0
 383 113 383 113 383 165 c 0,6,7
 383 202 383 202 351 235.5 c 0
 319 269 319 269 271.5 294.5 c 0
 224 320 224 320 168.5 353 c 0
 113 386 113 386 65.5 420 c 0
 18 454 18 454 -14 507.5 c 0
 -46 561 -46 561 -46 624 c 0,8,9
 -46 669 -46 669 -27 716 c 0
 -8 763 -8 763 27 805 c 0
 62 847 62 847 121 873.5 c 0
 180 900 180 900 252 900 c 0,10,11
 356 900 356 900 426.5 856.5 c 0
 497 813 497 813 497 734 c 0,12,13
 497 672 497 672 459.5 632.5 c 0
 422 593 422 593 357 589 c 1,14,-1
 350 632 l 1,15,16
 315 816 315 816 201 816 c 0,17,18
 150 816 150 816 119.5 781 c 0
 89 746 89 746 89 696 c 0,19,20
 89 658 89 658 113 625 c 0
 137 592 137 592 176 566 c 0
 215 540 215 540 261.5 514.5 c 0
 308 489 308 489 355 460 c 0
 402 431 402 431 441 398.5 c 0
 480 366 480 366 504 320 c 0
 528 274 528 274 528 220 c 0,21,22
 528 149 528 149 483 89.5 c 0
 438 30 438 30 367.5 -2 c 0
 297 -34 297 -34 220 -34 c 0,23,24
 91 -34 91 -34 10.5 18 c 0
 -70 70 -70 70 -70 141 c 4,0,1
EndSplineSet
Fore
SplineSet
33 46 m 1,0,-1
 67 368 l 1,1,-1
 244 339 l 1,2,-1
 286 192 l 1,3,4
 320 156 320 156 410 156 c 0,5,6
 455 156 455 156 489.5 177.5 c 128,-1,7
 524 199 524 199 524 226 c 0,8,9
 524 245 524 245 498.5 263.5 c 128,-1,10
 473 282 473 282 432 300 c 128,-1,11
 391 318 391 318 342 339 c 128,-1,12
 293 360 293 360 243.5 389.5 c 128,-1,13
 194 419 194 419 153 455.5 c 128,-1,14
 112 492 112 492 86.5 547 c 128,-1,15
 61 602 61 602 61 667 c 0,16,17
 61 816 61 816 178 906.5 c 128,-1,18
 295 997 295 997 471 997 c 0,19,20
 586 997 586 997 681 981 c 128,-1,21
 776 965 776 965 819 947 c 1,22,-1
 791 635 l 1,23,-1
 618 665 l 1,24,-1
 579 808 l 1,25,26
 563 821 563 821 528 829 c 128,-1,27
 493 837 493 837 459 837 c 0,28,29
 409 837 409 837 376.5 817 c 128,-1,30
 344 797 344 797 344 770 c 0,31,32
 344 741 344 741 372 715.5 c 128,-1,33
 400 690 400 690 445.5 669 c 128,-1,34
 491 648 491 648 545.5 625 c 128,-1,35
 600 602 600 602 654.5 572 c 128,-1,36
 709 542 709 542 754.5 505.5 c 128,-1,37
 800 469 800 469 828 414 c 128,-1,38
 856 359 856 359 856 292 c 0,39,40
 856 222 856 222 826 166 c 128,-1,41
 796 110 796 110 750 75.5 c 128,-1,42
 704 41 704 41 645.5 18 c 128,-1,43
 587 -5 587 -5 534.5 -14 c 128,-1,44
 482 -23 482 -23 435 -23 c 0,45,46
 301 -23 301 -23 185 -3 c 128,-1,47
 69 17 69 17 33 46 c 1,0,-1
EndSplineSet
Colour: ffffff
EndChar

StartChar: section
Encoding: 167 167 171
Width: 1053
VWidth: 0
Flags: MW
LayerCount: 2
Fore
SplineSet
73 909 m 0,0,1
 73 1012 73 1012 107.5 1083.5 c 128,-1,2
 142 1155 142 1155 208 1194 c 128,-1,3
 274 1233 274 1233 355 1249.5 c 128,-1,4
 436 1266 436 1266 543 1266 c 128,-1,5
 650 1266 650 1266 745.5 1244 c 128,-1,6
 841 1222 841 1222 887 1187 c 1,7,-1
 874 899 l 1,8,-1
 703 922 l 1,9,-1
 654 1068 l 1,10,11
 627 1087 627 1087 583.5 1102 c 128,-1,12
 540 1117 540 1117 501 1117 c 0,13,14
 391 1117 391 1117 391 995 c 0,15,16
 391 953 391 953 424.5 920 c 128,-1,17
 458 887 458 887 511 866.5 c 128,-1,18
 564 846 564 846 629.5 822 c 128,-1,19
 695 798 695 798 759 774.5 c 128,-1,20
 823 751 823 751 878.5 713 c 128,-1,21
 934 675 934 675 967 625 c 128,-1,22
 1000 575 1000 575 1003 498 c 128,-1,23
 1006 421 1006 421 965 320 c 1,24,-1
 446 545 l 2,25,26
 369 578 369 578 318.5 603.5 c 128,-1,27
 268 629 268 629 217 663 c 128,-1,28
 166 697 166 697 137.5 731 c 128,-1,29
 109 765 109 765 91 810 c 128,-1,30
 73 855 73 855 73 909 c 0,0,1
64 -231 m 1,31,-1
 85 80 l 1,32,-1
 270 46 l 1,33,-1
 318 -157 l 1,34,35
 337 -173 337 -173 396.5 -191.5 c 128,-1,36
 456 -210 456 -210 512 -210 c 0,37,38
 656 -210 656 -210 656 -81 c 0,39,40
 656 -34 656 -34 616 3.5 c 128,-1,41
 576 41 576 41 514.5 65.5 c 128,-1,42
 453 90 453 90 379.5 121 c 128,-1,43
 306 152 306 152 240 187 c 128,-1,44
 174 222 174 222 124.5 280 c 128,-1,45
 75 338 75 338 61 416.5 c 128,-1,46
 47 495 47 495 78 614 c 1,47,-1
 468 442 l 2,48,49
 506 425 506 425 565.5 399.5 c 128,-1,50
 625 374 625 374 654.5 361 c 128,-1,51
 684 348 684 348 730.5 326.5 c 128,-1,52
 777 305 777 305 799.5 292 c 128,-1,53
 822 279 822 279 854.5 258 c 128,-1,54
 887 237 887 237 902.5 220 c 128,-1,55
 918 203 918 203 937 179 c 128,-1,56
 956 155 956 155 964 130.5 c 128,-1,57
 972 106 972 106 978 75.5 c 128,-1,58
 984 45 984 45 984 10 c 0,59,60
 984 -79 984 -79 947 -151.5 c 128,-1,61
 910 -224 910 -224 853.5 -267.5 c 128,-1,62
 797 -311 797 -311 724.5 -340.5 c 128,-1,63
 652 -370 652 -370 586 -381.5 c 128,-1,64
 520 -393 520 -393 459 -393 c 0,65,66
 353 -393 353 -393 233 -343 c 128,-1,67
 113 -293 113 -293 64 -231 c 1,31,-1
EndSplineSet
Colour: ffffff
EndChar

StartChar: semicolon
Encoding: 59 59 172
Width: 532
VWidth: 0
Flags: MW
LayerCount: 2
Fore
SplineSet
115 81 m 0,0,1
 114 159 114 159 167.5 202 c 128,-1,2
 221 245 221 245 307 245 c 0,3,4
 538 245 538 245 538 6 c 0,5,6
 538 -51 538 -51 515.5 -106.5 c 128,-1,7
 493 -162 493 -162 449 -211 c 128,-1,8
 405 -260 405 -260 331 -296 c 128,-1,9
 257 -332 257 -332 163 -344 c 1,10,-1
 122 -238 l 1,11,12
 199 -214 199 -214 238.5 -168.5 c 128,-1,13
 278 -123 278 -123 278 -77 c 0,14,15
 278 -40 278 -40 254.5 -18 c 128,-1,16
 231 4 231 4 196 4 c 0,17,18
 169 4 169 4 144 -8 c 1,19,20
 115 38 115 38 115 81 c 0,0,1
121 759 m 0,21,22
 121 784 121 784 130 808 c 128,-1,23
 139 832 139 832 159.5 854.5 c 128,-1,24
 180 877 180 877 218.5 890.5 c 128,-1,25
 257 904 257 904 309 904 c 0,26,27
 364 904 364 904 404.5 890.5 c 128,-1,28
 445 877 445 877 466 855 c 128,-1,29
 487 833 487 833 496 810.5 c 128,-1,30
 505 788 505 788 505 762 c 0,31,32
 505 614 505 614 308 613 c 0,33,34
 121 614 121 614 121 759 c 0,21,22
EndSplineSet
Colour: ffffff
EndChar

StartChar: seven
Encoding: 55 55 173
Width: 926
VWidth: 0
Flags: MW
LayerCount: 2
Fore
SplineSet
48 567 m 1,0,-1
 101 993 l 1,1,-1
 880 993 l 1,2,-1
 878 817 l 1,3,4
 789 684 789 684 730.5 589.5 c 128,-1,5
 672 495 672 495 611.5 380 c 128,-1,6
 551 265 551 265 515 165.5 c 128,-1,7
 479 66 479 66 452.5 -51.5 c 128,-1,8
 426 -169 426 -169 417 -294 c 1,9,10
 358 -302 358 -302 311 -302 c 0,11,12
 221 -302 221 -302 169.5 -259.5 c 128,-1,13
 118 -217 118 -217 118 -128 c 0,14,15
 118 -94 118 -94 135 -46 c 128,-1,16
 152 2 152 2 188 65 c 128,-1,17
 224 128 224 128 259.5 184.5 c 128,-1,18
 295 241 295 241 352.5 321.5 c 128,-1,19
 410 402 410 402 448 453.5 c 128,-1,20
 486 505 486 505 549.5 590 c 128,-1,21
 613 675 613 675 639 710 c 1,22,-1
 248 710 l 1,23,-1
 185 543 l 1,24,-1
 48 567 l 1,0,-1
EndSplineSet
Colour: ffffff
EndChar

StartChar: six
Encoding: 54 54 174
Width: 1046
VWidth: 0
Flags: MW
LayerCount: 2
Fore
SplineSet
425 386 m 0,0,1
 425 122 425 122 526 122 c 0,2,3
 628 122 628 122 628 350 c 0,4,5
 628 377 628 377 626.5 402 c 128,-1,6
 625 427 625 427 619 466 c 128,-1,7
 613 505 613 505 602.5 533 c 128,-1,8
 592 561 592 561 571 582 c 128,-1,9
 550 603 550 603 521 603 c 0,10,11
 471 603 471 603 431 549 c 1,12,13
 425 453 425 453 425 386 c 0,0,1
53 420 m 0,14,15
 53 552 53 552 97 677 c 128,-1,16
 141 802 141 802 213 898.5 c 128,-1,17
 285 995 285 995 376 1074.5 c 128,-1,18
 467 1154 467 1154 560.5 1203.5 c 128,-1,19
 654 1253 654 1253 742 1275 c 1,20,-1
 809 1185 l 1,21,22
 678 1121 678 1121 573.5 985 c 128,-1,23
 469 849 469 849 438 713 c 1,24,-1
 457 713 l 1,25,26
 542 805 542 805 671 805 c 0,27,28
 838 805 838 805 917 703 c 128,-1,29
 996 601 996 601 996 423 c 0,30,31
 996 332 996 332 967 256.5 c 128,-1,32
 938 181 938 181 891 131 c 128,-1,33
 844 81 844 81 781.5 46.5 c 128,-1,34
 719 12 719 12 653.5 -3.5 c 128,-1,35
 588 -19 588 -19 521 -19 c 0,36,37
 374 -19 374 -19 266 42.5 c 128,-1,38
 158 104 158 104 105.5 202 c 128,-1,39
 53 300 53 300 53 420 c 0,14,15
EndSplineSet
Colour: ffffff
EndChar

StartChar: slash
Encoding: 47 47 175
Width: 768
VWidth: 0
Flags: MW
LayerCount: 2
Fore
SplineSet
37 -372 m 1,0,-1
 499 1224 l 1,1,-1
 729 1244 l 1,2,-1
 263 -358 l 1,3,-1
 37 -372 l 1,0,-1
EndSplineSet
Colour: ffffff
EndChar

StartChar: softhyphen
Encoding: 173 173 176
Width: 634
VWidth: 0
Flags: MW
LayerCount: 2
Fore
SplineSet
61 348 m 1,0,-1
 66 572 l 1,1,-1
 573 628 l 1,2,-1
 567 405 l 1,3,-1
 61 348 l 1,0,-1
EndSplineSet
Colour: ffffff
EndChar

StartChar: sterling
Encoding: 163 163 178
Width: 1187
VWidth: 0
Flags: MW
LayerCount: 2
Fore
SplineSet
32 0 m 1,0,-1
 38 138 l 1,1,-1
 206 193 l 1,2,3
 229 236 229 236 237 275.5 c 128,-1,4
 245 315 245 315 245 379 c 2,5,-1
 245 391 l 1,6,-1
 69 382 l 1,7,-1
 80 537 l 1,8,-1
 250 547 l 1,9,-1
 255 624 l 2,10,11
 260 703 260 703 293.5 767.5 c 128,-1,12
 327 832 327 832 378 874 c 128,-1,13
 429 916 429 916 495.5 944.5 c 128,-1,14
 562 973 562 973 630 985 c 128,-1,15
 698 997 698 997 768 997 c 0,16,17
 953 997 953 997 1044 936 c 128,-1,18
 1135 875 1135 875 1135 789 c 0,19,20
 1135 717 1135 717 1059.5 669.5 c 128,-1,21
 984 622 984 622 884 625 c 1,22,23
 879 729 879 729 834 793.5 c 128,-1,24
 789 858 789 858 726 858 c 0,25,26
 639 858 639 858 610 808 c 128,-1,27
 581 758 581 758 581 633 c 2,28,-1
 581 562 l 1,29,-1
 837 569 l 1,30,-1
 827 414 l 1,31,-1
 578 404 l 1,32,-1
 578 390 l 2,33,34
 578 316 578 316 564 272 c 128,-1,35
 550 228 550 228 515 188 c 1,36,-1
 849 158 l 1,37,-1
 989 404 l 1,38,-1
 1152 364 l 1,39,-1
 1136 0 l 1,40,-1
 32 0 l 1,0,-1
EndSplineSet
Colour: ffffff
EndChar

StartChar: t
Encoding: 116 116 179
Width: 1139
VWidth: 0
Flags: MW
LayerCount: 2
Fore
SplineSet
36 979 m 1,0,-1
 1105 979 l 1,1,-1
 1073 571 l 1,2,-1
 890 602 l 1,3,-1
 826 807 l 1,4,-1
 747 807 l 1,5,-1
 747 208 l 1,6,-1
 889 153 l 1,7,-1
 873 0 l 1,8,-1
 236 0 l 1,9,-1
 249 140 l 1,10,-1
 386 209 l 1,11,-1
 386 807 l 1,12,-1
 296 807 l 1,13,-1
 209 559 l 1,14,-1
 39 585 l 1,15,-1
 36 979 l 1,0,-1
EndSplineSet
Colour: ffffff
EndChar

StartChar: thorn
Encoding: 254 254 180
Width: 1025
VWidth: 0
Flags: MW
LayerCount: 2
Back
SplineSet
23 1043 m 1,0,-1
 51 1208 l 1,1,-1
 427 1234 l 1,2,-1
 484 1180 l 1,3,-1
 484 878 l 1,4,-1
 469 777 l 1,5,-1
 484 771 l 1,6,7
 557 852 557 852 614.5 891 c 0
 672 930 672 930 748 930 c 0,8,9
 909 930 909 930 1005 810 c 0
 1101 690 1101 690 1101 497 c 0,10,11
 1101 343 1101 343 1021.5 222.5 c 0
 942 102 942 102 816 39.5 c 0
 690 -23 690 -23 545 -23 c 0,12,13
 462 -23 462 -23 347.5 -4 c 0
 233 15 233 15 168 51 c 1,14,-1
 168 943 l 1,15,-1
 23 1043 l 1,0,-1
484 259 m 1,16,17
 547.767 201.946 547.767 201.946 609.382 201.946 c 0,18,19
 670.759 201.946 670.759 201.946 711.42 270.655 c 0
 752.082 339.364 752.082 339.364 752.082 447.165 c 0,20,21
 752.082 498.201 752.082 498.201 739.987 541.691 c 0
 727.892 585.182 727.892 585.182 699.759 615.188 c 0
 671.627 645.194 671.627 645.194 631.821 645.194 c 0,22,23
 568.811 645.194 568.811 645.194 484 578 c 1,24,-1
 484 259 l 1,16,17
EndSplineSet
Fore
SplineSet
33 829 m 1,0,-1
 53 979 l 1,1,-1
 660 979 l 1,2,-1
 644 859 l 1,3,-1
 525 802 l 1,4,-1
 525 775 l 1,5,6
 552 775 552 775 580 775 c 0,7,8
 781 775 781 775 886.5 713 c 128,-1,9
 992 651 992 651 992 503 c 0,10,11
 992 359 992 359 877 279 c 128,-1,12
 762 199 762 199 580 216 c 1,13,-1
 548 340 l 1,14,-1
 559 341 l 2,15,16
 604 345 604 345 628 380.5 c 128,-1,17
 652 416 652 416 652 475 c 0,18,19
 652 533 652 533 627.5 565.5 c 128,-1,20
 603 598 603 598 560 598 c 0,21,22
 544 598 544 598 526 595 c 1,23,-1
 525 596 l 1,24,-1
 525 183 l 1,25,-1
 645 130 l 1,26,-1
 632 0 l 1,27,-1
 35 0 l 1,28,-1
 45 142 l 1,29,-1
 161 221 l 1,30,-1
 161 755 l 1,31,-1
 33 829 l 1,0,-1
EndSplineSet
Colour: ffffff
EndChar

StartChar: three
Encoding: 51 51 181
Width: 947
VWidth: 0
Flags: MW
LayerCount: 2
Fore
SplineSet
30 -99 m 0,0,1
 30 -45 30 -45 70 4 c 128,-1,2
 110 53 110 53 202 70 c 1,3,4
 215 32 215 32 235 -5 c 128,-1,5
 255 -42 255 -42 282 -78 c 128,-1,6
 309 -114 309 -114 345.5 -136.5 c 128,-1,7
 382 -159 382 -159 420 -159 c 0,8,9
 568 -159 568 -159 568 -10 c 0,10,11
 568 96 568 96 489.5 177 c 128,-1,12
 411 258 411 258 279 243 c 1,13,-1
 253 362 l 1,14,15
 395 404 395 404 464 478.5 c 128,-1,16
 533 553 533 553 533 637 c 0,17,18
 533 692 533 692 493 729 c 128,-1,19
 453 766 453 766 388 766 c 0,20,21
 316 766 316 766 254.5 720 c 128,-1,22
 193 674 193 674 156 584 c 1,23,-1
 54 670 l 1,24,25
 82 748 82 748 134.5 810 c 128,-1,26
 187 872 187 872 250 908.5 c 128,-1,27
 313 945 313 945 378 964 c 128,-1,28
 443 983 443 983 503 983 c 0,29,30
 658 983 658 983 761 909 c 128,-1,31
 864 835 864 835 864 695 c 0,32,33
 864 600 864 600 788.5 519 c 128,-1,34
 713 438 713 438 594 415 c 1,35,-1
 594 391 l 1,36,37
 681 385 681 385 743.5 355.5 c 128,-1,38
 806 326 806 326 838.5 280.5 c 128,-1,39
 871 235 871 235 885.5 187 c 128,-1,40
 900 139 900 139 900 85 c 0,41,42
 900 -22 900 -22 824.5 -113 c 128,-1,43
 749 -204 749 -204 624 -256 c 128,-1,44
 499 -308 499 -308 356 -308 c 0,45,46
 208 -308 208 -308 119 -246 c 128,-1,47
 30 -184 30 -184 30 -99 c 0,0,1
EndSplineSet
Colour: ffffff
EndChar

StartChar: threequarters
Encoding: 190 190 182
Width: 1869
VWidth: 0
Flags: MW
LayerCount: 2
Fore
SplineSet
1283 275 m 1,0,-1
 1408 275 l 1,1,-1
 1408 441 l 1,2,-1
 1283 275 l 1,0,-1
1080 295 m 1,3,-1
 1578 707 l 1,4,-1
 1689 681 l 1,5,6
 1678 553 1678 553 1678 425 c 2,7,-1
 1678 314 l 1,8,-1
 1826 314 l 1,9,-1
 1817 145 l 1,10,-1
 1678 145 l 1,11,-1
 1678 63 l 1,12,-1
 1777 35 l 1,13,-1
 1770 -60 l 1,14,-1
 1285 -60 l 1,15,-1
 1290 30 l 1,16,-1
 1389 62 l 1,17,-1
 1389 148 l 1,18,-1
 1095 148 l 1,19,-1
 1080 295 l 1,3,-1
273 35 m 1,20,-1
 830 588 l 1,21,-1
 1373 1207 l 1,22,-1
 1675 1205 l 1,23,-1
 1675 1130 l 1,24,-1
 1134 591 l 1,25,-1
 641 -19 l 1,26,-1
 273 35 l 1,20,-1
45 1196 m 1,27,28
 72 1235 72 1235 168.5 1269 c 128,-1,29
 265 1303 265 1303 346 1303 c 128,-1,30
 427 1303 427 1303 488.5 1295.5 c 128,-1,31
 550 1288 550 1288 601 1271 c 128,-1,32
 652 1254 652 1254 679 1222 c 128,-1,33
 706 1190 706 1190 706 1144 c 0,34,35
 706 1097 706 1097 665 1054 c 128,-1,36
 624 1011 624 1011 569.5 984.5 c 128,-1,37
 515 958 515 958 458 944 c 1,38,-1
 458 934 l 1,39,40
 616 940 616 940 678 900 c 128,-1,41
 740 860 740 860 743 767 c 0,42,43
 747 652 747 652 611.5 570.5 c 128,-1,44
 476 489 476 489 265 489 c 0,45,46
 149 489 149 489 59 517 c 1,47,-1
 106 794 l 1,48,-1
 264 786 l 1,49,-1
 275 665 l 1,50,51
 293 661 293 661 303 661 c 0,52,53
 333 661 333 661 355 680 c 128,-1,54
 377 699 377 699 377 734 c 0,55,56
 377 783 377 783 344 814 c 128,-1,57
 311 845 311 845 257 831 c 1,58,-1
 221 956 l 1,59,60
 367 979 367 979 367 1056 c 0,61,62
 367 1098 367 1098 344 1120 c 128,-1,63
 321 1142 321 1142 289 1142 c 0,64,65
 286 1142 286 1142 275 1141.5 c 128,-1,66
 264 1141 264 1141 261 1141 c 1,67,-1
 229 991 l 1,68,-1
 83 996 l 1,69,-1
 45 1196 l 1,27,28
EndSplineSet
Colour: ffffff
EndChar

StartChar: three.superior
Encoding: 179 179 183
Width: 799
VWidth: 0
Flags: MW
LayerCount: 2
Fore
SplineSet
50 1206 m 1,0,1
 77 1245 77 1245 173.5 1279 c 128,-1,2
 270 1313 270 1313 351 1313 c 128,-1,3
 432 1313 432 1313 493.5 1305.5 c 128,-1,4
 555 1298 555 1298 606 1281 c 128,-1,5
 657 1264 657 1264 684 1232 c 128,-1,6
 711 1200 711 1200 711 1154 c 0,7,8
 711 1107 711 1107 670 1064 c 128,-1,9
 629 1021 629 1021 574.5 994.5 c 128,-1,10
 520 968 520 968 463 954 c 1,11,-1
 463 944 l 1,12,13
 621 950 621 950 683 910 c 128,-1,14
 745 870 745 870 748 777 c 0,15,16
 752 662 752 662 616.5 580.5 c 128,-1,17
 481 499 481 499 270 499 c 0,18,19
 154 499 154 499 64 527 c 1,20,-1
 111 804 l 1,21,-1
 269 796 l 1,22,-1
 280 675 l 1,23,24
 298 671 298 671 308 671 c 0,25,26
 338 671 338 671 360 690 c 128,-1,27
 382 709 382 709 382 744 c 0,28,29
 382 793 382 793 349 824 c 128,-1,30
 316 855 316 855 262 841 c 1,31,-1
 226 966 l 1,32,33
 372 989 372 989 372 1066 c 0,34,35
 372 1108 372 1108 349 1130 c 128,-1,36
 326 1152 326 1152 294 1152 c 0,37,38
 291 1152 291 1152 280 1151.5 c 128,-1,39
 269 1151 269 1151 266 1151 c 1,40,-1
 234 1001 l 1,41,-1
 88 1006 l 1,42,-1
 50 1206 l 1,0,1
EndSplineSet
Colour: ffffff
EndChar

StartChar: tilde
Encoding: 732 732 184
Width: 787
VWidth: 0
Flags: MW
LayerCount: 2
Back
SplineSet
248.555 1375.57 m 4,0,1
 233.238 1375.57 233.238 1375.57 218.185 1359.55 c 0
 203.133 1343.53 203.133 1343.53 195.738 1327.51 c 2
 188.344 1311.49 l 1,2,-1
 71.3438 1322.49 l 1,3,4
 72.0138 1449.59 72.0138 1449.59 120.328 1524.79 c 0
 168.643 1600 168.643 1600 258.128 1600 c 0,5,6
 303.205 1600 303.205 1600 366 1581.66 c 0,7,8
 377.684 1578.24 377.684 1578.24 400.985 1570.94 c 0
 424.287 1563.63 424.287 1563.63 436 1560.22 c 0,9,10
 495.384 1542.92 495.384 1542.92 537.133 1542.92 c 0,11,12
 554.737 1542.92 554.737 1542.92 569.79 1558.94 c 0
 584.843 1574.96 584.843 1574.96 591.093 1590.98 c 2
 597.344 1607 l 1,13,-1
 712.344 1596 l 1,14,15
 711.681 1468.9 711.681 1468.9 663.884 1393.7 c 0
 616.087 1318.49 616.087 1318.49 527.56 1318.49 c 0,16,17
 478.696 1318.49 478.696 1318.49 408 1339.9 c 0,18,19
 401.235 1341.95 401.235 1341.95 377.923 1349.26 c 0
 354.612 1356.57 354.612 1356.57 342 1360.16 c 0,20,21
 287.884 1375.57 287.884 1375.57 248.555 1375.57 c 4,0,1
EndSplineSet
Fore
SplineSet
71 1322 m 1,0,1
 73 1402 73 1402 89.5 1458.5 c 128,-1,2
 106 1515 106 1515 133 1546 c 128,-1,3
 160 1577 160 1577 199 1589.5 c 128,-1,4
 238 1602 238 1602 281 1598.5 c 128,-1,5
 324 1595 324 1595 376 1579 c 2,6,-1
 446 1557 l 2,7,8
 513 1535 513 1535 548 1545.5 c 128,-1,9
 583 1556 583 1556 597 1607 c 1,10,-1
 712 1596 l 1,11,12
 702 1410 702 1410 629.5 1352 c 128,-1,13
 557 1294 557 1294 418 1337 c 2,14,-1
 352 1357 l 1,15,16
 265 1381 265 1381 235.5 1371 c 128,-1,17
 206 1361 206 1361 188 1311 c 1,18,-1
 71 1322 l 1,0,1
EndSplineSet
Colour: ffffff
EndChar

StartChar: two
Encoding: 50 50 185
Width: 962
VWidth: 0
Flags: MW
LayerCount: 2
Back
SplineSet
693.759 0 m 1,0,-1
 76.7256 0 l 1,1,-1
 71.8799 82.3789 l 1,2,-1
 262.481 247.944 l 2,3,4
 313.362 291.557 313.362 291.557 345.668 321.438 c 128,-1,5
 377.973 351.321 377.973 351.321 420.374 397.356 c 128,-1,6
 462.776 443.393 462.776 443.393 487.004 481.351 c 128,-1,7
 511.232 519.308 511.232 519.308 529.001 567.363 c 128,-1,8
 546.77 615.419 546.77 615.419 546.769 663.068 c 0,9,10
 546.769 867.401 546.769 867.401 381.204 866.593 c 0,11,12
 248.751 866.593 248.751 866.593 167.988 661.453 c 1,13,-1
 101.762 685.683 l 1,14,15
 113.876 737.372 113.876 737.372 143.355 788.655 c 128,-1,16
 172.835 839.942 172.835 839.942 214.427 881.938 c 128,-1,17
 256.021 923.935 256.021 923.935 312.555 950.183 c 128,-1,18
 369.089 976.432 369.089 976.432 429.662 976.431 c 0,19,20
 559.691 976.431 559.691 976.431 626.725 904.552 c 128,-1,21
 693.759 832.672 693.759 832.672 693.759 698.604 c 0,22,23
 693.759 656.607 693.759 656.607 681.645 614.61 c 128,-1,24
 669.528 572.613 669.528 572.613 651.762 537.077 c 128,-1,25
 633.993 501.542 633.993 501.542 604.919 462.775 c 128,-1,26
 575.83 423.992 575.83 423.992 549.191 395.338 c 128,-1,27
 522.541 366.667 522.541 366.667 484.581 331.131 c 128,-1,28
 446.622 295.593 446.622 295.593 420.374 273.788 c 128,-1,29
 394.125 251.979 394.125 251.979 355.359 219.677 c 128,-1,30
 316.593 187.371 316.593 187.371 298.825 172.026 c 2,31,-1
 225.33 108.223 l 1,32,-1
 605.727 108.223 l 1,33,-1
 683.26 251.982 l 1,34,-1
 738.986 243.906 l 1,35,-1
 693.759 0 l 1,0,-1
EndSplineSet
Fore
SplineSet
45 163 m 1,0,-1
 310 342 l 2,1,2
 408 408 408 408 456.5 487.5 c 128,-1,3
 505 567 505 567 505 641 c 0,4,5
 505 714 505 714 461.5 761.5 c 128,-1,6
 418 809 418 809 347 809 c 0,7,8
 292 809 292 809 247.5 755 c 128,-1,9
 203 701 203 701 185 626 c 1,10,-1
 69 714 l 1,11,12
 75 765 75 765 106.5 819.5 c 128,-1,13
 138 874 138 874 191.5 923.5 c 128,-1,14
 245 973 245 973 332 1005 c 128,-1,15
 419 1037 419 1037 522 1037 c 0,16,17
 591 1037 591 1037 647.5 1015.5 c 128,-1,18
 704 994 704 994 739.5 961 c 128,-1,19
 775 928 775 928 799 885.5 c 128,-1,20
 823 843 823 843 832.5 803.5 c 128,-1,21
 842 764 842 764 842 727 c 0,22,23
 842 620 842 620 756.5 504.5 c 128,-1,24
 671 389 671 389 544 309 c 2,25,-1
 385 209 l 1,26,-1
 666 209 l 1,27,-1
 781 375 l 1,28,-1
 916 362 l 1,29,-1
 870 0 l 1,30,-1
 75 0 l 1,31,-1
 45 163 l 1,0,-1
EndSplineSet
Colour: ffffff
EndChar

StartChar: two.superior
Encoding: 178 178 186
Width: 782
VWidth: 0
Flags: MW
LayerCount: 2
Fore
SplineSet
57 706 m 1,0,-1
 173 789 l 2,1,2
 269 858 269 858 318 927 c 128,-1,3
 367 996 367 996 367 1044 c 0,4,5
 367 1073 367 1073 348 1089.5 c 128,-1,6
 329 1106 329 1106 295 1106 c 0,7,8
 278 1106 278 1106 248 1095 c 1,9,-1
 208 922 l 1,10,-1
 99 932 l 1,11,-1
 57 1160 l 1,12,13
 114 1213 114 1213 204.5 1244.5 c 128,-1,14
 295 1276 295 1276 400 1276 c 0,15,16
 476 1276 476 1276 536 1257 c 128,-1,17
 596 1238 596 1238 629.5 1208.5 c 128,-1,18
 663 1179 663 1179 680 1147 c 128,-1,19
 697 1115 697 1115 697 1085 c 0,20,21
 697 1031 697 1031 669 980.5 c 128,-1,22
 641 930 641 930 595 892 c 128,-1,23
 549 854 549 854 503 827 c 128,-1,24
 457 800 457 800 407 780 c 2,25,-1
 327 747 l 1,26,-1
 528 727 l 1,27,-1
 616 848 l 1,28,-1
 727 842 l 1,29,-1
 693 528 l 1,30,-1
 71 528 l 1,31,-1
 57 706 l 1,0,-1
EndSplineSet
Colour: ffffff
EndChar

StartChar: u
Encoding: 117 117 187
Width: 1227
VWidth: 0
Flags: MW
LayerCount: 2
Back
SplineSet
992 898.617 m 1,0,-1
 975 741.617 l 1,1,-1
 833 669.617 l 1,2,-1
 833 258.617 l 1,3,-1
 975 177.617 l 1,4,-1
 948 9.61719 l 1,5,-1
 545 -19.3828 l 1,6,-1
 507 19.6172 l 1,7,-1
 530 121.617 l 1,8,-1
 515 127.617 l 1,9,10
 439.531 48.8669 439.531 48.8669 372.179 9.43345 c 0
 304.827 -30 304.827 -30 225.551 -30 c 0,11,12
 110.117 -30 110.117 -30 45.0584 39.1408 c 0
 -20 108.282 -20 108.282 -20 257.617 c 2,13,-1
 -20 669.617 l 1,14,-1
 -168 733.617 l 1,15,-1
 -145 898.617 l 1,16,-1
 291 898.617 l 1,17,-1
 291 741.617 l 1,18,-1
 291 669.617 l 1,19,-1
 291 469.617 l 2,20,21
 291 376.238 291 376.238 314.367 336.414 c 0
 337.734 296.589 337.734 296.589 385.729 296.589 c 0,22,23
 458.024 296.589 458.024 296.589 515 346.617 c 1,24,-1
 515 669.617 l 1,25,-1
 392 732.617 l 1,26,-1
 420 898.617 l 1,27,-1
 992 898.617 l 1,0,-1
EndSplineSet
Fore
SplineSet
33 829 m 1,0,-1
 62 979 l 1,1,-1
 662 979 l 1,2,-1
 640 829 l 1,3,-1
 545 762 l 1,4,-1
 545 346 l 2,5,6
 545 193 545 193 684 193 c 0,7,8
 745 193 745 193 780 227.5 c 128,-1,9
 815 262 815 262 815 332 c 2,10,-1
 815 755 l 1,11,-1
 709 829 l 1,12,-1
 729 979 l 1,13,-1
 1194 979 l 1,14,-1
 1177 829 l 1,15,-1
 1062 762 l 1,16,-1
 1058 360 l 1,17,18
 1054 162 1054 162 947 67.5 c 128,-1,19
 840 -27 840 -27 633 -27 c 0,20,21
 585 -27 585 -27 549.5 -25.5 c 128,-1,22
 514 -24 514 -24 463 -16 c 128,-1,23
 412 -8 412 -8 375 6 c 128,-1,24
 338 20 338 20 297.5 46.5 c 128,-1,25
 257 73 257 73 231.5 109.5 c 128,-1,26
 206 146 206 146 189.5 202.5 c 128,-1,27
 173 259 173 259 173 329 c 2,28,-1
 173 755 l 1,29,-1
 33 829 l 1,0,-1
EndSplineSet
Colour: ffffff
EndChar

StartChar: uacute
Encoding: 250 250 188
Width: 1227
VWidth: 0
Flags: MW
LayerCount: 2
Fore
SplineSet
515 1063 m 1,0,-1
 660 1368 l 1,1,-1
 1010 1358 l 1,2,-1
 749 1037 l 1,3,-1
 515 1063 l 1,0,-1
33 829 m 1,4,-1
 62 979 l 1,5,-1
 662 979 l 1,6,-1
 640 829 l 1,7,-1
 545 762 l 1,8,-1
 545 346 l 2,9,10
 545 193 545 193 684 193 c 0,11,12
 745 193 745 193 780 227.5 c 128,-1,13
 815 262 815 262 815 332 c 2,14,-1
 815 755 l 1,15,-1
 709 829 l 1,16,-1
 729 979 l 1,17,-1
 1194 979 l 1,18,-1
 1177 829 l 1,19,-1
 1062 762 l 1,20,-1
 1058 360 l 1,21,22
 1054 162 1054 162 947 67.5 c 128,-1,23
 840 -27 840 -27 633 -27 c 0,24,25
 585 -27 585 -27 549.5 -25.5 c 128,-1,26
 514 -24 514 -24 463 -16 c 128,-1,27
 412 -8 412 -8 375 6 c 128,-1,28
 338 20 338 20 297.5 46.5 c 128,-1,29
 257 73 257 73 231.5 109.5 c 128,-1,30
 206 146 206 146 189.5 202.5 c 128,-1,31
 173 259 173 259 173 329 c 2,32,-1
 173 755 l 1,33,-1
 33 829 l 1,4,-1
EndSplineSet
Colour: ffffff
EndChar

StartChar: ucircumflex
Encoding: 251 251 189
Width: 1227
VWidth: 0
Flags: MW
LayerCount: 2
Fore
SplineSet
338 1051 m 1,0,-1
 491 1306 l 1,1,-1
 816 1306 l 1,2,-1
 970 1051 l 1,3,-1
 717 1042 l 1,4,-1
 653 1163 l 1,5,-1
 639 1163 l 1,6,-1
 571 1041 l 1,7,-1
 338 1051 l 1,0,-1
33 829 m 1,8,-1
 62 979 l 1,9,-1
 662 979 l 1,10,-1
 640 829 l 1,11,-1
 545 762 l 1,12,-1
 545 346 l 2,13,14
 545 193 545 193 684 193 c 0,15,16
 745 193 745 193 780 227.5 c 128,-1,17
 815 262 815 262 815 332 c 2,18,-1
 815 755 l 1,19,-1
 709 829 l 1,20,-1
 729 979 l 1,21,-1
 1194 979 l 1,22,-1
 1177 829 l 1,23,-1
 1062 762 l 1,24,-1
 1058 360 l 1,25,26
 1054 162 1054 162 947 67.5 c 128,-1,27
 840 -27 840 -27 633 -27 c 0,28,29
 585 -27 585 -27 549.5 -25.5 c 128,-1,30
 514 -24 514 -24 463 -16 c 128,-1,31
 412 -8 412 -8 375 6 c 128,-1,32
 338 20 338 20 297.5 46.5 c 128,-1,33
 257 73 257 73 231.5 109.5 c 128,-1,34
 206 146 206 146 189.5 202.5 c 128,-1,35
 173 259 173 259 173 329 c 2,36,-1
 173 755 l 1,37,-1
 33 829 l 1,8,-1
EndSplineSet
Colour: ffffff
EndChar

StartChar: udieresis
Encoding: 252 252 190
Width: 1227
VWidth: 0
Flags: MW
LayerCount: 2
Fore
SplineSet
661 1146 m 0,0,1
 661 1188 661 1188 693.5 1220.5 c 128,-1,2
 726 1253 726 1253 799 1253 c 0,3,4
 876 1253 876 1253 909 1221.5 c 128,-1,5
 942 1190 942 1190 942 1148 c 0,6,7
 942 1039 942 1039 798 1039 c 0,8,9
 661 1039 661 1039 661 1146 c 0,0,1
352 1146 m 0,10,11
 352 1188 352 1188 384.5 1220.5 c 128,-1,12
 417 1253 417 1253 490 1253 c 0,13,14
 567 1253 567 1253 600 1221.5 c 128,-1,15
 633 1190 633 1190 633 1148 c 0,16,17
 633 1039 633 1039 489 1039 c 0,18,19
 352 1039 352 1039 352 1146 c 0,10,11
33 829 m 1,20,-1
 62 979 l 1,21,-1
 662 979 l 1,22,-1
 640 829 l 1,23,-1
 545 762 l 1,24,-1
 545 346 l 2,25,26
 545 193 545 193 684 193 c 0,27,28
 745 193 745 193 780 227.5 c 128,-1,29
 815 262 815 262 815 332 c 2,30,-1
 815 755 l 1,31,-1
 709 829 l 1,32,-1
 729 979 l 1,33,-1
 1194 979 l 1,34,-1
 1177 829 l 1,35,-1
 1062 762 l 1,36,-1
 1058 360 l 1,37,38
 1054 162 1054 162 947 67.5 c 128,-1,39
 840 -27 840 -27 633 -27 c 0,40,41
 585 -27 585 -27 549.5 -25.5 c 128,-1,42
 514 -24 514 -24 463 -16 c 128,-1,43
 412 -8 412 -8 375 6 c 128,-1,44
 338 20 338 20 297.5 46.5 c 128,-1,45
 257 73 257 73 231.5 109.5 c 128,-1,46
 206 146 206 146 189.5 202.5 c 128,-1,47
 173 259 173 259 173 329 c 2,48,-1
 173 755 l 1,49,-1
 33 829 l 1,20,-1
EndSplineSet
Colour: ffffff
EndChar

StartChar: ugrave
Encoding: 249 249 191
Width: 1227
VWidth: 0
Flags: MW
LayerCount: 2
Fore
SplineSet
304 1358 m 1,0,-1
 654 1368 l 1,1,-1
 799 1063 l 1,2,-1
 565 1037 l 1,3,-1
 304 1358 l 1,0,-1
33 829 m 1,4,-1
 62 979 l 1,5,-1
 662 979 l 1,6,-1
 640 829 l 1,7,-1
 545 762 l 1,8,-1
 545 346 l 2,9,10
 545 193 545 193 684 193 c 0,11,12
 745 193 745 193 780 227.5 c 128,-1,13
 815 262 815 262 815 332 c 2,14,-1
 815 755 l 1,15,-1
 709 829 l 1,16,-1
 729 979 l 1,17,-1
 1194 979 l 1,18,-1
 1177 829 l 1,19,-1
 1062 762 l 1,20,-1
 1058 360 l 1,21,22
 1054 162 1054 162 947 67.5 c 128,-1,23
 840 -27 840 -27 633 -27 c 0,24,25
 585 -27 585 -27 549.5 -25.5 c 128,-1,26
 514 -24 514 -24 463 -16 c 128,-1,27
 412 -8 412 -8 375 6 c 128,-1,28
 338 20 338 20 297.5 46.5 c 128,-1,29
 257 73 257 73 231.5 109.5 c 128,-1,30
 206 146 206 146 189.5 202.5 c 128,-1,31
 173 259 173 259 173 329 c 2,32,-1
 173 755 l 1,33,-1
 33 829 l 1,4,-1
EndSplineSet
Colour: ffffff
EndChar

StartChar: underscore
Encoding: 95 95 192
Width: 965
VWidth: 0
Flags: MW
LayerCount: 2
Fore
SplineSet
60 -130 m 1,0,-1
 76 52 l 1,1,-1
 903 52 l 1,2,-1
 887 -130 l 1,3,-1
 60 -130 l 1,0,-1
EndSplineSet
Colour: ffffff
EndChar

